<svg xmlns="http://www.w3.org/2000/svg" viewBox="0 0 329.48 306.18"><defs><style>.cls-1{opacity:0.1;}.cls-2{fill:#e5e5e5;}.cls-3,.cls-7,.cls-9{fill:#fff;}.cls-3,.cls-8{opacity:0.2;}.cls-4{opacity:0.05;}.cls-5{fill:#f1f1f1;}.cls-6{fill:#b2b2b2;}.cls-7{opacity:0.5;}.cls-10{fill:#d0d0d2;}.cls-11{fill:#bebebe;}.cls-12{fill:#efefef;}</style></defs><title>auriculares</title><g id="Layer_2" data-name="Layer 2"><g id="Layer_3" data-name="Layer 3"><g id="Earphones"><path class="cls-1" d="M66.8,25.15l.9,3.81-.4.73-.25,0,.05.32-.4.74.52-.09,1.73,10-2.31.4L70,60.75l.46-.05h0l.08.48,1.2-.15L72,61l1.2,6.92h.5l.08.48.75,0,.3,0c3.15,18,8.35,31.43,15.48,40.08a34.62,34.62,0,0,0,7.67,7.27c9.19,6.24,18.49,5.15,24,4.49.81-.1,1.52-.18,2.13-.23a57.41,57.41,0,0,0,15-2.92c5.71-2.07,9.78-5.16,12.11-9.2a68.47,68.47,0,0,0,4.32-9.27c8.62-1.35,16.18-4.51,22.08-9.32a31.6,31.6,0,0,0,9.9-13.59,24.93,24.93,0,0,0,1.66-6.73,97.53,97.53,0,0,0,.26-9.78c0-7.23-.08-15,2.67-22.53,2.58-6.6,7.35-13,16.16-18.87C236.34-.89,269,3.36,280.75,6.22c10.55,2.57,18.3,6.84,23.31,12.88a29.27,29.27,0,0,1,5.66,13.21,51.63,51.63,0,0,1-.5,18q-.43-.9-.87-1.77a69.24,69.24,0,0,0-11.72-17.27c-4.77-4.91-10-8.06-15.66-9.39-10.81-2.54-23.5-3.37-32.32-2.1-9,1.29-14.85,5.23-16.91,11.38A70.24,70.24,0,0,0,229,57.75c.12,1.23.29,2.44.49,3.6,1.06,6.1,3.21,11.06,6.32,14.73a19.76,19.76,0,0,0,8,6.17c5.62,2.34,13.52,3.38,21.67,2.84,6.28-.41,18-2.33,27-7.21,8.14-4.4,14-10.57,17.3-18.08,2.24,5.89,3.6,12.71,5.16,20.54.95,4.74,1.92,9.64,3.21,15,.62,2.55,1.22,5,1.81,7.42,2.05,8.35,3.83,15.56,5,22.11,2.38,13.74,2.15,25.2-6.69,36.45-9.66,12.29-45.79,18-46.17,18.1l-8.06,1.4,0-.09a1.19,1.19,0,0,0-1.29-1l-10.2-1-6.37,1.1a1.19,1.19,0,0,0-1,1.37l.11.64c-4.67.72-8,0-10.13-2.14s-2.9-5.19-3.67-8c-.1-.36-.21-.73-.34-1.15a28.2,28.2,0,0,1-.81-3.15,8.51,8.51,0,0,1,.17-4,8.73,8.73,0,0,1,.43-.89c2.29-4,8.26-7.72,18.25-11.26,11.16-4,18.67-9.6,22.33-16.79a23,23,0,0,0,1.23-2.88,24.72,24.72,0,0,0,1.21-13.15c-.11-.66-.25-1.31-.41-2-.79-3.19-2-5-3.78-5.83-2.77-1.23-5.88.44-10.18,2.76-1.11.6-2.26,1.22-3.51,1.84-7.14,3.58-9.84,2.12-14.32-.31l-.89-.48-.17-.08c-.34-.13-8.44-3.14-14.18-2.2-4.43.73-26.32,4.54-35.53,6.15l-.11,0-.07-.42L184.08,119a2.77,2.77,0,0,0-3.13-2l-46.68,8.09A2.77,2.77,0,0,0,132,128l-6.67,1.16.07.43c-8.83,1.6-13.62,4.53-14.65,8.93a7.87,7.87,0,0,0-.06,3.15c.41,2.39,1.86,5,4.3,7.92a64.32,64.32,0,0,0,12.12,10.92c6.21,4.54,21.44,5.44,31.72,7.09,8.37,1.34,17,2.72,20,5.6a2.74,2.74,0,0,1,.51,1.14h0c1.18,8.92-8.66,30-21.82,41.8-6.57,5.92-15.9,9-20.76,8.53s-10.15-4-17.3-11.44c-12.58-13-20.34-7.15-27.84-1.44a62.29,62.29,0,0,1-5.34,3.77,40.85,40.85,0,0,1-19.43,5.46h-.21l-2.16.38-.06-.2-.13-.4-4.94.86c-.1-.39-.21-.76-.33-1.1l-.13-.4-33,5.72a8.92,8.92,0,0,0,1.08-2.2,7.78,7.78,0,0,0,.61-4.53c-.93-5.38-7.64-8.73-14.86-7.48h-.12C5.31,213,.13,218.42,1.06,223.8a10.79,10.79,0,0,0,2.53,5.39c4.85,6.6,16.79,6,20.21,5.38l36.09-6.25c0-.16,0-.33,0-.5l.36-.06v-.42c0-.2,0-.42,0-.63l.49-.09,4.09-.71q0-.24,0-.49h0l.36-.06v-.13l2-.35A43,43,0,0,0,87.93,219a64.3,64.3,0,0,0,5.6-3.95c3.56-2.7,6.91-5.26,10.65-5.7,4.17-.5,8.44,1.68,13.44,6.86,7.75,8,13.45,11.71,19,12.29s15.72-2.73,22.94-9.24a80.53,80.53,0,0,0,16.88-22.76,73.16,73.16,0,0,0,3.6-8.3c2.12-5.68,3.05-10.67,2.58-14.25,0-.08,0-.16,0-.24-1.08-6.24-11.49-7.91-23.53-9.83-2.2-.35-4.69-.67-7.33-1-8.83-1.13-18.84-2.41-23.17-5.57-8.89-6.5-14-12.06-14.66-16.09a4.77,4.77,0,0,1,0-1.9c1.26-2.67,5.39-4.71,12.07-5.93l0,.21.49-.08.08.49,5.29-.92,1-.17a2.75,2.75,0,0,0,.68.87,2.27,2.27,0,0,0,2.35,1.12l46.68-8.09a2.27,2.27,0,0,0,1.84-1.85,2.75,2.75,0,0,0,.35-1.05l1-.17,5.29-.92-.08-.49.49-.08,0-.23c3.9-.68,30.67-5.35,35.61-6.16,4.75-.78,11.89,1.75,12.66,2l.78.42c4.55,2.47,8.48,4.6,16.94.35,1.28-.64,2.45-1.27,3.58-1.88,3.46-1.86,6.19-3.33,7.7-2.67a1.93,1.93,0,0,1,.49.34,9.49,9.49,0,0,1,1,2.74c.14.55.26,1.13.37,1.74,1.53,8.85-1.15,21-22.61,28.6-10.66,3.78-17.13,7.88-19.76,12.53a11.26,11.26,0,0,0-1.24,7.87,31.26,31.26,0,0,0,.9,3.57c.11.36.21.7.3,1,.78,2.82,1.76,6.27,4,8.88a11.15,11.15,0,0,0,1,1.16c2.83,2.86,7,3.8,12.62,2.92l.14.81c-2.7.45-10.25,2-18.91,3.68-10.19,2-21.74,4.33-26,5a38.14,38.14,0,0,1-4,.31c-5.24.24-11.77.54-16.36,5.7-3.81,4.29-3.35,10.49-2.65,19.88l.16,2.17c-3.06-2.41-4.84-3.76-6.65-4.21-2.33-.58-6.49.81-8.91,2.49-2.59,1.79-4.94,5.6-6.28,10.18a24.84,24.84,0,0,0-.85,10.91,15.19,15.19,0,0,0,.53,2.14,13,13,0,0,0,2.47,4.36,15.68,15.68,0,0,0,15.29,5.74l.6-.12c3-.6,5.17-1.33,6.36-5.16,1.18-3,1.64-8.23,1.27-17.45,5.51,8.27,8.46,22,9.47,26.72q.07.34.13.66c.37,2.12.18,3.65-.56,4.53-1.48,1.79-5.47,1.68-9.69,1.57l-1.1,0c-8.78-.2-15.24-2-20.33-5.76-2.65-1.94-4.31-2.93-6-3s-3.12.85-5.16,2.24c-.89.6-2,1.35-3.38,2.18-2.32,1.39-5.8,3.59-9.85,6.15-8.56,5.41-19.21,12.13-24.93,15.08-7.43,3.83-16.54,4.77-18.07,4.9l-.2-.63-4.95.86c-.1-.39-.21-.76-.33-1.1L87,286l-28,4.85v0l-2.1.36a12.47,12.47,0,0,0-.16-1.49c-1-5.72-5.62-11.51-10.77-13.47a8.22,8.22,0,0,0-4.57,0l-.63.11-.64.11A8.22,8.22,0,0,0,35.84,278c-4.19,3.57-6.61,10.59-5.61,16.31a13.36,13.36,0,0,0,3.1,6.5,12.94,12.94,0,0,0,21.26-.9L88,294.08c0-.16,0-.33,0-.5l.36-.06v-.42c0-.2,0-.42,0-.63l.49-.09,4.09-.71q0-.24,0-.5h0l.36-.06V291c2.08-.18,11.2-1.19,19-5.19,5.84-3,16.56-9.78,25.17-15.22,4-2.54,7.5-4.74,9.77-6.1,1.45-.87,2.6-1.65,3.52-2.27,1.82-1.23,2.66-1.77,3.48-1.75s2,.67,4.47,2.44c5.58,4.08,12.55,6.08,21.94,6.3l1.09,0c4.92.13,9.58.26,11.94-2.59a5.71,5.71,0,0,0,1.05-2,9.91,9.91,0,0,0,.43-5.88q-.07-.39-.15-.79c-1.16-5.39-5.5-23.55-13-31.75q-.11-1.81-.26-3.79-.11-1.45-.21-2.8c-.45-5.82-.79-10.18.23-13.39a8.31,8.31,0,0,1,1.47-2.37c3.8-4.28,9.66-4.54,14.38-4.76a39.76,39.76,0,0,0,4.29-.34c4.27-.69,15.87-3,26.1-5,8.33-1.66,16.23-3.23,18.84-3.67a1.16,1.16,0,0,0,.63.8v0a.69.69,0,0,0,.8.56l5.2-.9,1.11-.19,9.25-4.41a.69.69,0,0,0,.56-.8v0a1.16,1.16,0,0,0,.32-.6l8.12-1.41c1.53-.24,37.54-5.93,47.93-19.14a39.38,39.38,0,0,0,6.29-11.17,42.15,42.15,0,0,0,2.57-16.61,84.56,84.56,0,0,0-1.32-12.08c-1.15-6.62-2.92-13.84-5-22.22q-.88-3.58-1.81-7.41c-1.27-5.27-2.29-10.11-3.27-14.8-2-9.47-3.7-17.66-6.62-24.53a37.46,37.46,0,0,0,1-4.13,55.22,55.22,0,0,0,.52-19.4,32.48,32.48,0,0,0-6.63-15.08C301,9.92,292.75,5.31,281.25,2.51,273,.5,258.65-.86,245,.63A85.88,85.88,0,0,0,206.5,14.4C185.9,28,186,45.29,186.07,59.16c0,3.37,0,6.55-.24,9.43-.62,6.33-4.34,12.7-10.21,17.49A41.84,41.84,0,0,1,157,94.41c.65-1.82,1.25-3.58,1.79-5.15s1-2.94,1.46-4.22c.37-1,.73-1.89,1.08-2.66a13.51,13.51,0,0,0,.49-1.27,28.16,28.16,0,0,0,1-14.48,30.9,30.9,0,0,0-10.31-18.2c-9.36-8.15-17.48-11.58-24.84-10.49-6.18.92-11.66,5.1-16.27,12.45-5.32,8.49-7.93,18.77-6.65,26.2a17.4,17.4,0,0,0,1.45,4.63,23.72,23.72,0,0,0,3.42,5.15,28,28,0,0,0,8,6.7c5.29,3,12,5,19.84,5.82A71.25,71.25,0,0,0,151.7,99a58.17,58.17,0,0,1-3.14,6.44c-3.5,6.07-11.86,9.68-24.85,10.72-.66.05-1.43.14-2.24.24-5.16.61-13.8,1.62-22.13-4-10.16-6.9-17.33-21.91-21.3-44.6.35-.09.7-.19,1-.29L79,67,79,67l.4-.13-1.2-6.94,1-.23-.08-.48h0l.45-.11L76.27,39.39l-2.3.4-1.73-10,.51-.09-.63-.56-.06-.32-.25,0-.62-.55-.44-3.89-1.6-1L68,23.7Zm43,36.32A46.42,46.42,0,0,1,114,52.85c4.15-6.61,9-10.37,14.29-11.16,6.49-1,13.87,2.25,22.57,9.82a28.27,28.27,0,0,1,2.79,2.79,28.26,28.26,0,0,1,5.88,13c1,5.78.12,10.55-.93,12.88-.94,2.06-1.87,4.79-2.94,8-.71,2.09-1.51,4.44-2.4,6.82a67.38,67.38,0,0,1-15.6.08c-14.26-1.51-24.36-7-28.43-15.34a14.28,14.28,0,0,1-1.19-3.8C107.35,71.84,108,66.67,109.81,61.47ZM305.4,50c.85,1.7,1.7,3.5,2.51,5.34-2.78,8-8.65,14.55-17,19.05-14.47,7.83-36,8.52-46.22,4.24-7.92-3.3-10.89-11.58-12-17.93-.18-1.07-.34-2.18-.45-3.31a66.73,66.73,0,0,1,2.56-25c3.86-9.57,22.19-12.38,45.68-6.86,6,1.41,11.46,5.05,16.47,11A73.37,73.37,0,0,1,305.4,50ZM173.72,250.87l-.56.11c-5.06,1.06-12-1.72-13.86-7.4a12.28,12.28,0,0,1-.42-1.72,15.18,15.18,0,0,1,.89-7.34c1.71-4.48,4.69-8.61,7.05-10.24,3.92-2.71,4-2.61,10.53,2.5l.54.42c.24.19.49.4.74.63C179.9,249.62,177.6,250.09,173.72,250.87Z"/><path class="cls-2" d="M84.89,289.43l5.74-1a12.3,12.3,0,0,1,.41,1.67v.07c.08.45.13.89.16,1.29q0,.26,0,.49l-5.74,1Z"/><path class="cls-3" d="M85.18,291.12l5.86-1v.07c.08.45.13.89.16,1.29l-5.8,1Z"/><path class="cls-4" d="M85.5,293l1.65-.29c-.06-.57-.14-1.17-.24-1.79l0-.12c-.1-.56-.21-1.1-.34-1.61l-1.66.29Z"/><path class="cls-5" d="M49.14,294l36.09-6.25a22.37,22.37,0,0,1,.77,3.12l0,.12a24.23,24.23,0,0,1,.3,2.41q0,.48,0,.92l-36.09,6.25Z"/><path class="cls-3" d="M51.76,296.84,86,290.91l0,.12a24.23,24.23,0,0,1,.3,2.41L52.2,299.35Z"/><path class="cls-4" d="M51.21,293.64l5.87-1a12.94,12.94,0,0,1-2,7.12l-2.73.47Z"/><path class="cls-5" d="M34.71,279.58c-4.19,3.57-6.38,10.5-5.45,15.85A13,13,0,1,0,54.82,291c-.93-5.35-5.32-11.14-10.46-13.09-1.64-.62-3.24-.19-4.95.1S36,278.44,34.71,279.58Z"/><path class="cls-6" d="M41.14,296.85l.65,3.73a1.51,1.51,0,1,0,3-.52l-.65-3.73a1.51,1.51,0,0,0-3,.52Z"/><path class="cls-1" d="M44.65,299.39l.12.67a1.51,1.51,0,1,1-3,.52l-.12-.67a1.51,1.51,0,1,0,3-.52Z"/><path class="cls-6" d="M36.12,279l6.72-1.16A1.62,1.62,0,0,1,44,278a1.2,1.2,0,0,1,.55.8,1.42,1.42,0,0,1-1.27,1.55l-6.72,1.16a1.42,1.42,0,0,1-1.71-1,1.2,1.2,0,0,1,.25-.94A1.61,1.61,0,0,1,36.12,279Z"/><path class="cls-3" d="M36.12,279l6.72-1.16a1.42,1.42,0,0,1,1.71,1,1.2,1.2,0,0,1-.25.94,1.62,1.62,0,0,0-1.16-.22l-6.72,1.16a1.62,1.62,0,0,0-1,.6,1.2,1.2,0,0,1-.55-.8A1.42,1.42,0,0,1,36.12,279Z"/><path class="cls-7" d="M44.56,278.95a1.1,1.1,0,0,1,0,.12,1.42,1.42,0,0,1-1.27,1.55l-6.72,1.16a1.42,1.42,0,0,1-1.71-1,1,1,0,0,1,0-.12,1.43,1.43,0,0,0,1.69.94l6.72-1.16A1.43,1.43,0,0,0,44.56,278.95Z"/><path class="cls-2" d="M56.8,223.65l5.74-1a12.18,12.18,0,0,1,.41,1.67v.07c.08.45.13.89.16,1.29q0,.26,0,.49l-5.74,1Z"/><path class="cls-3" d="M57.09,225.35l5.86-1v.07c.08.45.13.89.16,1.29l-5.8,1Z"/><path class="cls-4" d="M57.41,227.17l1.65-.29c-.06-.57-.14-1.17-.24-1.79l0-.12c-.1-.56-.21-1.1-.34-1.61l-1.66.29Z"/><path class="cls-5" d="M21,228.26,57.14,222a22.38,22.38,0,0,1,.77,3.12l0,.12a24.09,24.09,0,0,1,.3,2.41c0,.32,0,.63,0,.92l-36.09,6.25Z"/><path class="cls-5" d="M.1,225c2,11.34,18,10.58,22.09,9.88,3.17-.55.69-4.26-.54-5.85,2.93-2.24,4.55-5.35,4-8.46-.89-5.13-7.33-8.29-14.39-7.07S-.79,219.83.1,225Z"/><path class="cls-3" d="M15.61,234.13c4.37.44,42.62-6.47,42.62-6.47a24.09,24.09,0,0,0-.3-2.41l0-.12L18.13,232A6.76,6.76,0,0,1,15.61,234.13Z"/><path class="cls-6" d="M14.91,221.1,9.59,222a2.94,2.94,0,1,0,1,5.8l5.32-.92a2.94,2.94,0,0,0-1-5.8Z"/><path class="cls-1" d="M11.9,227.6l-1.3.23a2.94,2.94,0,1,1-1-5.8l1.3-.23a2.94,2.94,0,0,0,1,5.8Z"/><path class="cls-6" d="M12.9,214.15h0a.85.85,0,0,1-.35.77,2,2,0,0,1-.95.42c-.81.14-1.54-.17-1.63-.69h0c-.09-.52.49-1.06,1.3-1.2a2,2,0,0,1,1,.08A.85.85,0,0,1,12.9,214.15Z"/><g class="cls-8"><path class="cls-9" d="M11.27,213.46a2,2,0,0,1,1,.08.85.85,0,0,1,.59.61h0a.57.57,0,0,1,0,.2,1,1,0,0,0-.53-.42,2,2,0,0,0-1-.08,1.48,1.48,0,0,0-1.31,1,.67.67,0,0,1-.06-.19h0C9.88,214.14,10.46,213.6,11.27,213.46Z"/></g><path class="cls-4" d="M22.84,228l2.06-.36s-1.26,2.67-5.29,3.36A10.4,10.4,0,0,0,22.84,228Z"/><rect class="cls-5" x="131.01" y="122.76" width="51.92" height="8.45" rx="2.27" ry="2.27" transform="translate(-19.38 28.67) rotate(-9.83)"/><rect class="cls-2" x="124.69" y="130.25" width="6.76" height="3.48" transform="translate(-20.66 23.81) rotate(-9.83)"/><rect class="cls-4" x="130.02" y="129.79" width="1.38" height="3.48" transform="translate(-20.54 24.25) rotate(-9.83)"/><rect class="cls-2" x="182.5" y="120.23" width="6.76" height="3.48" transform="translate(-18.1 33.53) rotate(-9.83)"/><rect class="cls-4" x="182.54" y="120.69" width="1.38" height="3.48" transform="translate(-18.21 33.09) rotate(-9.83)"/><rect class="cls-2" x="146.23" y="123.98" width="21.75" height="5.96" rx="1.7" ry="1.7" transform="translate(-19.37 28.69) rotate(-9.83)"/><path class="cls-4" d="M147.55,125.59l.56-.1a1.71,1.71,0,0,0-1.39,2l.44,2.52a1.71,1.71,0,0,0,2,1.39l-.56.1a1.71,1.71,0,0,1-2-1.39l-.44-2.52A1.71,1.71,0,0,1,147.55,125.59Z"/><rect class="cls-10" x="138.58" y="128.58" width="0.28" height="3.12" transform="translate(-20.18 25.6) rotate(-9.83)"/><rect class="cls-10" x="174.96" y="122.28" width="0.28" height="3.12" transform="translate(-18.57 31.72) rotate(-9.83)"/><rect class="cls-10" x="137.16" y="130" width="3.12" height="0.28" transform="translate(-20.18 25.6) rotate(-9.83)"/><path class="cls-5" d="M176.1,175.85l0,.22c.66,5-1.47,12.85-5.86,21.51a80.53,80.53,0,0,1-16.88,22.76c-7.22,6.5-12.71,9-18.35,8.44s-11.29-4.26-19-12.29c-5-5.18-9.27-7.36-13.44-6.86-3.74.45-7.1,3-10.65,5.7a64.28,64.28,0,0,1-5.6,3.95,43,43,0,0,1-20.83,5.86l-2.33.4-.4-2.3,2.54-.44h.11a41.3,41.3,0,0,0,19.69-5.53,62.5,62.5,0,0,0,5.39-3.81c7.33-5.57,14.9-11.33,27.18,1.4,7.24,7.5,12.67,11.08,17.6,11.59s9.86-1.84,16.54-7.85c13.27-11.94,23.18-33.2,22-42.23l0-.11c-.74-4.27-11.14-5.93-21.2-7.54-10.28-1.65-20.91-3.35-27.12-7.89-11.67-8.54-17-15.57-15.71-20.92,1-4.27,5.82-7.09,14.74-8.64l.4,2.3c-7.68,1.33-12.13,3.71-12.87,6.87-1,4.28,4.12,10.68,14.82,18.5,5.75,4.21,16.57,5.94,26.11,7.47C164.83,168.31,175.08,170,176.1,175.85Z"/><path class="cls-5" d="M245.21,188l.34,2.31c-2,.29-10.4,2-19.31,3.74-10.23,2-21.83,4.35-26.1,5a39.78,39.78,0,0,1-4.29.34c-4.71.21-10.58.48-14.37,4.76-3.41,3.84-4.79,10.56-4.11,20q.15,2.07.27,4c6.81,7.3,13.5,22.82,15.31,31.25.73,3.4.4,5.89-1,7.59-2.36,2.84-7,2.72-11.94,2.59l-1.09,0c-9.39-.22-16.36-2.22-21.94-6.3-2.43-1.78-3.6-2.41-4.47-2.44s-1.66.52-3.48,1.75c-.92.62-2.07,1.4-3.52,2.27-2.27,1.36-5.75,3.56-9.77,6.1-8.61,5.44-19.33,12.21-25.17,15.22-8.63,4.45-19,5.19-19.4,5.22L91,289c.1,0,10.3-.75,18.49-5,5.75-3,16.42-9.7,25-15.12,4-2.55,7.52-4.75,9.82-6.13,1.4-.84,2.51-1.6,3.41-2.2,2-1.32,3.25-2.2,4.86-2.15s3.21,1,5.77,2.89c5.18,3.79,11.73,5.65,20.61,5.85l1.1,0c4.34.12,8.44.22,10.08-1.75.92-1.1,1.1-3,.53-5.61-1.59-7.43-7.11-20.39-12.81-27.86,1,20.66-1.71,22.17-7.24,23.28l-.6.12c-6.52,1.36-12.48-2.53-14.83-9.69-1.14-3.48-1-8.13.33-12.76s3.58-8.19,6.08-9.92,4.17-2.53,6.21-2c1.83.46,3.7,1.93,7.09,4.61l.26.2q-.05-.74-.11-1.51c-.74-10.21.79-17.3,4.69-21.69,4.45-5,10.86-5.31,16-5.54a38.18,38.18,0,0,0,4-.31c4.23-.68,15.8-3,26-5C235.1,189.89,243.16,188.29,245.21,188Zm-88.26,55.2a12.68,12.68,0,0,0,.44,1.79c2,6,6.83,9.24,12.13,8.13l.62-.13c4.16-.83,6.56-1.32,5.21-23.87a16.25,16.25,0,0,0-1.38-1.23l-.54-.42c-6.48-5.12-6.6-5.22-10.53-2.5S155.8,236.57,156.95,243.19Z"/><path class="cls-5" d="M272,119.7a23.72,23.72,0,0,1-2.12,15c-3.66,7.18-11.17,12.83-22.33,16.79-10,3.54-16,7.23-18.25,11.26-1.85,3.27-1,6.28-.1,9.19.12.39.23.77.33,1.15.79,2.84,1.68,6.05,3.8,8.19,2.34,2.36,6,3.08,11.07,2.2l.4,2.3c-5.92,1-10.21.09-13.13-2.85-2.54-2.57-3.57-6.25-4.39-9.2-.1-.36-.21-.73-.32-1.11-.91-3.06-2-6.87.3-11,2.58-4.55,9-8.57,19.5-12.31,24.17-8.57,24.51-23,22.56-30.92-.55-2.21-1.28-3.53-2.18-3.93-1.51-.67-4.24.8-7.7,2.67-1.13.61-2.3,1.24-3.58,1.88-8.45,4.24-12.38,2.11-16.94-.35l-.78-.42c-.77-.28-7.92-2.81-12.66-2-5.31.87-35.79,6.19-36.1,6.25l-.4-2.3c.31-.05,30.8-5.38,36.12-6.25,5.62-.92,13.59,2.05,13.93,2.18l.14.06.86.47c4.46,2.42,7.41,4,14.78.32,1.26-.63,2.41-1.25,3.52-1.85,4.18-2.25,7.2-3.87,9.75-2.74,1.64.72,2.75,2.47,3.5,5.5C271.72,118.38,271.86,119,272,119.7Z"/><path class="cls-5" d="M326.21,125.49a84.15,84.15,0,0,1,1.31,12c.29,10.65-2.34,18.91-8.54,26.79-10.38,13.2-46.4,18.9-47.93,19.14l-8.53,1.48-.4-2.3,8.55-1.48c.39-.06,36.65-5.79,46.47-18.28,8.6-10.94,9.34-22.09,6.79-36.84-1.14-6.57-2.93-13.85-5-22.15q-.88-3.59-1.81-7.42c-3.6-14.9-7.21-26.71-11.15-36.35-3.26,7.68-9.19,14-17.47,18.45a61.06,61.06,0,0,1-24.68,6.81c-8.15.54-16.05-.5-21.67-2.84-8.07-3.36-13-11.51-14.17-23.57a69.69,69.69,0,0,1,2.77-26.38c2-6,7.7-9.79,16.51-11.05,7.82-1.12,18.14-.26,29.84,2.49,5.53,1.3,10.72,4.41,15.42,9.25A68.8,68.8,0,0,1,304.19,50.4q.76,1.51,1.49,3.1.14-.64.27-1.29c4.58-24.6-4.94-39.42-29.1-45.31C265.1,4,234.73-.61,206.62,18c-19.32,12.79-19.24,28.51-19.16,42.38a97,97,0,0,1-.26,9.73c-.69,7.07-4.78,14.14-11.23,19.4-5.9,4.81-13.46,8-22.08,9.32a68.47,68.47,0,0,1-4.32,9.27c-2.33,4-6.4,7.13-12.11,9.2a57.41,57.41,0,0,1-15,2.92c-.61,0-1.32.13-2.13.23-5.55.65-14.85,1.74-24-4.49-11-7.44-18.58-23.37-22.65-47.36l2.3-.39C79.93,91.55,87.22,107,97.63,114c8.47,5.75,17.23,4.72,22.46,4.11.8-.09,1.56-.18,2.22-.24,13.16-1.05,21.65-4.74,25.24-11a62.61,62.61,0,0,0,3.69-7.75,70.69,70.69,0,0,1-15.29,0c-7.88-.84-14.55-2.79-19.84-5.82a25.93,25.93,0,0,1-10.84-11.1c-3.91-8-2.72-18.12,3.27-27.65,4.53-7.22,9.89-11.33,15.92-12.22,7.21-1.07,15.2,2.33,24.45,10.37,12.76,11.1,13.42,24.25,10.84,29.92-.88,1.94-1.79,4.6-2.84,7.69-.63,1.86-1.32,3.88-2.08,6a43,43,0,0,0,19.66-8.6c6-4.87,9.76-11.36,10.39-17.82.28-2.91.27-6.11.25-9.49-.08-13.74-.17-30.84,20.2-44.33a85.39,85.39,0,0,1,38.31-13.7A99.21,99.21,0,0,1,277.4,4.63c11.39,2.77,19.51,7.33,24.84,13.92,6.66,8.25,8.68,19.71,6,34.08a36.65,36.65,0,0,1-1.05,4.24c4.37,10.16,8.32,22.78,12.23,39q.92,3.83,1.81,7.41C323.28,111.63,325.07,118.89,326.21,125.49ZM230.79,62.06c1.23,7.1,4.43,15,12.29,18.3,10.32,4.31,29.73,4,44.35-3.87C296,71.86,301.89,65.18,304.69,57q-1.27-2.9-2.59-5.54c-7.33-14.63-15.67-22.86-25.5-25.17-24-5.63-40.25-3-43.6,7a67.12,67.12,0,0,0-2.66,25.41C230.45,59.79,230.6,60.92,230.79,62.06Zm-78.6,34.66c.93-2.47,1.76-4.91,2.51-7.12,1.07-3.15,2-5.87,2.92-7.91,2.47-5.44.92-17.47-10.25-27.2-8.7-7.57-16.08-10.78-22.57-9.82-5.33.79-10.14,4.54-14.29,11.16-5.55,8.84-6.69,18.09-3.14,25.39,4.15,8.54,14.38,14.08,28.82,15.61A67.57,67.57,0,0,0,152.19,96.72Z"/><path class="cls-2" d="M75.94,59.08l1.5,8.68a18.45,18.45,0,0,1-2.53.62l-.1,0c-.68.12-1.34.2-1.95.24l-.75,0L70.62,60Z"/><path class="cls-3" d="M73.39,59.53l1.54,8.86-.1,0c-.68.12-1.34.2-1.95.24l-1.52-8.77Z"/><path class="cls-4" d="M70.62,60l.43,2.5c.86-.08,1.77-.21,2.7-.37l.19,0c.85-.15,1.67-.32,2.44-.51l-.43-2.5Z"/><path class="cls-5" d="M74.43,41.21,77.68,60c-1.21.28-2.62.57-4.15.84l-.16,0c-1.11.19-2.18.36-3.16.48l-1.2.15L65.76,42.71Z"/><rect class="cls-11" x="67.79" y="39.02" width="4.11" height="2.96" transform="translate(-5.89 12.52) rotate(-9.83)"/><rect class="cls-9" x="67.47" y="38.31" width="4.11" height="0.75" transform="translate(-5.59 12.44) rotate(-9.83)"/><rect class="cls-11" x="67.16" y="35.38" width="4.11" height="2.96" transform="translate(-5.28 12.36) rotate(-9.83)"/><rect class="cls-9" x="66.84" y="34.67" width="4.11" height="0.75" transform="translate(-4.97 12.28) rotate(-9.83)"/><rect class="cls-11" x="66.52" y="31.74" width="4.11" height="2.96" transform="translate(-4.66 12.2) rotate(-9.83)"/><rect class="cls-9" x="66.21" y="31.03" width="4.11" height="0.75" transform="matrix(0.99, -0.17, 0.17, 0.99, -4.36, 12.12)"/><polygon class="cls-11" points="66.81 25.4 67.62 25.26 68.86 26.01 69.3 29.85 70.23 30.68 66.17 31.39 66.77 30.28 65.89 26.52 66.81 25.4"/><rect class="cls-7" x="68.6" y="39.15" width="1.26" height="2.96" transform="translate(-5.92 12.42) rotate(-9.83)"/><rect class="cls-7" x="67.97" y="35.5" width="1.26" height="2.96" transform="translate(-5.31 12.26) rotate(-9.83)"/><rect class="cls-7" x="67.34" y="31.86" width="1.26" height="2.96" transform="translate(-4.7 12.1) rotate(-9.83)"/><path class="cls-9" d="M244.17,182.32l1.54,8.91a.69.69,0,0,0,.8.56l5.2-.9-1.78-10.27-5.2.9A.69.69,0,0,0,244.17,182.32Z"/><path class="cls-9" d="M262.63,185.48,262,182a.69.69,0,0,0-.8-.56l-10.19-1,1.78,10.27,9.25-4.41A.69.69,0,0,0,262.63,185.48Z"/><rect class="cls-12" x="250.81" y="180.44" width="1.13" height="10.42" transform="translate(-28.01 45.65) rotate(-9.83)"/><path class="cls-8" d="M86.79,290.84l5.86-1v.07c.08.45.13.89.16,1.29l-5.8,1Z"/><path class="cls-8" d="M53.37,296.56l34.24-5.93,0,.12a24.23,24.23,0,0,1,.3,2.41l-34.12,5.91Z"/><path class="cls-8" d="M37.72,278.71l6.72-1.16a1.42,1.42,0,0,1,1.71,1,1.2,1.2,0,0,1-.25.94,1.62,1.62,0,0,0-1.16-.22L38,280.46a1.62,1.62,0,0,0-1,.6,1.2,1.2,0,0,1-.55-.8A1.42,1.42,0,0,1,37.72,278.71Z"/><path class="cls-8" d="M58.7,225.07l5.86-1v.07c.08.45.13.89.16,1.29l-5.8,1Z"/><path class="cls-8" d="M17.22,233.85c4.37.44,42.62-6.47,42.62-6.47a24.09,24.09,0,0,0-.3-2.41l0-.12-39.78,6.89A6.76,6.76,0,0,1,17.22,233.85Z"/><path class="cls-8" d="M75,59.25l1.54,8.86-.1,0c-.68.12-1.34.2-1.95.24L73,59.6Z"/></g></g></g></svg>