<svg xmlns="http://www.w3.org/2000/svg" viewBox="0 0 1025.94 339.32"><defs><style>.cls-1{opacity:0.1;}.cls-2{fill:#bcbcbc;}.cls-3{fill:#e5e5e5;}.cls-15,.cls-4{opacity:0.05;}.cls-5{fill:#171717;}.cls-15,.cls-6{fill:#fff;}.cls-7{fill:#f0a32b;}.cls-8{fill:#f9d181;}.cls-9{fill:#a4d6c6;}.cls-10{fill:#e9e9e9;}.cls-11{fill:#cee598;}.cls-12{fill:#fc9a72;}.cls-13{fill:#a4bcd5;}.cls-14{fill:#020204;fill-rule:evenodd;}</style></defs><title>imac</title><g id="Layer_2" data-name="Layer 2"><g id="Layer_3" data-name="Layer 3"><g id="iMac"><path class="cls-1" d="M641.61,279.13l-6.8-29L430.54,268.58,430,298.25c-2.79,48.92,42.23,40.52,42.23,40.52l135.12-12.21S653.13,326.75,641.61,279.13Z"/><path class="cls-2" d="M639.08,277l-5.48-24.74L428.4,270.82l-1,25.32c-2.79,48.92,42.23,40.52,42.23,40.52L604.8,324.45S650.59,324.64,639.08,277Z"/><path class="cls-3" d="M638.9,275l-5.48-24.74-205.2,18.54-1,25.32c-2.79,48.92,42.23,40.52,42.23,40.52l135.12-12.21S650.41,322.61,638.9,275Z"/><polygon class="cls-4" points="638.24 272.02 427.38 291.07 428.22 268.79 633.42 250.25 638.24 272.02"/><path class="cls-3" d="M1007.32.15,16,89.73C-.7,91.24-5,102.53,6.37,114.81L159.52,279.88c3.81,4.09,11.47,7,17,6.54l708.08-64c5.56-.5,12.57-4.78,15.57-9.48L1021.28,23.1C1030.29,9,1024-1.36,1007.32.15Z"/><path class="cls-5" d="M1007.87,6.22,16.54,95.8c-16.69,1.51-21,12.8-9.62,25.08L160.06,285.95C163.87,290,897.75,223.72,900.75,219L1021.82,29.17C1030.84,15,1024.56,4.71,1007.87,6.22Z"/><path class="cls-3" d="M908.4,207l-7.66,12c-3,4.71-10,9-15.57,9.48l-708.08,64c-5.56.5-13.22-2.45-17-6.54l-9.68-10.43Z"/><polygon class="cls-6" points="56.92 120.08 160.92 256.68 888.68 191.92 972.72 35.54 56.92 120.08"/><path class="cls-7" d="M945.47,86.13Q939.69,96.86,934,107.44h0Q939.7,96.88,945.47,86.13Z"/><path class="cls-7" d="M154.55,248.32l9.07,11.9-9.06-11.9Z"/><path class="cls-6" d="M887.67,95.65l.1-.07h-.11l-.06,0c-.11,0-.06,0,0-.06-.11,0-.11,0-.17,0s0-.06-.08-.08h-.11l-.12,0c-5.24-.7-10.6-1.34-15.75-2.11a22.51,22.51,0,0,0-4.8.35c-1.67.32-2,.72-1,.82,4.73.68,9.56,1.29,14.38,1.9-5.8,1.59-11.53,3.19-17.15,4.72-1.37.37-1.18.7.27.72a19,19,0,0,0,4.74-.52c6.28-1.72,12.62-3.43,18.91-5.22.06,0,.16-.05.28-.06h.11a.48.48,0,0,1,.16-.05s-.06,0,.05,0l0,0,.05,0s-.06,0,.05,0l0,0,.16-.05-.06,0Z"/><path class="cls-6" d="M173.76,163.46c-5.82-.52-11.77-1-17.53-1.54,4.55-1.47,9.11-2.95,13.79-4.44,1.06-.34.63-.64-1-.65a19.23,19.23,0,0,0-4.8.5C159.16,159,154,160.63,149,162.24a.62.62,0,0,0-.26.06h-.11s0,.06-.08.07l.07,0-.15,0c-.11,0-.08.07-.08.07s.07,0,0,.06l0,0,.07,0,.07,0s0,0,0,.06,0,0,.07,0a.32.32,0,0,0,.19,0s0,.06,0,.06.11,0,.07,0a.31.31,0,0,0,.18,0,.6.6,0,0,0,.26,0l19.45,1.71a18.46,18.46,0,0,0,4.77-.32C175.05,163.92,175.08,163.57,173.76,163.46Z"/><path class="cls-8" d="M514.5,82Q742,61.42,969.81,40.77c1.57-2.83,3.07-5.68,4.7-8.56Q744.24,53.12,513.91,73.94,283.75,94.79,53.53,115.62c1.94,2.57,3.91,5.11,5.79,7.61Q286.81,102.68,514.5,82Z"/><path class="cls-9" d="M515.75,99Q619,89.69,722.63,80.26c.94-4.11,1.82-8.26,2.76-12.4q-105.32,9.5-210.51,19.05T304.46,106c1.48,3.9,3,7.85,4.52,11.74Q412.24,108.36,515.75,99Z"/><path class="cls-8" d="M952.26,73.49Q734.49,93.28,516.76,113q-217.44,19.69-435.25,39.4,11.6,15.26,23,30.2Q311.82,163.82,519.17,145T934,107.44q5.68-10.57,11.48-21.31C947.72,81.93,950,77.72,952.26,73.49ZM173.63,164.24a18.46,18.46,0,0,1-4.77.32l-19.45-1.71a.6.6,0,0,1-.26,0,.31.31,0,0,1-.18,0s-.07,0-.07,0-.07,0,0-.06a.32.32,0,0,1-.19,0c-.11,0-.07,0-.07,0s-.07,0,0-.06l-.07,0-.07,0,0,0-.07,0,.07,0s0-.06,0-.06,0-.06.08-.07l.15,0-.07,0c.11,0,.08-.07.08-.07h.11a.62.62,0,0,1,.26-.06c5-1.62,10.12-3.25,15.17-4.91a19.23,19.23,0,0,1,4.8-.5c1.63,0,2.05.31,1,.65-4.68,1.49-9.23,3-13.79,4.44,5.76.5,11.71,1,17.53,1.54C175.08,163.57,175.05,163.92,173.63,164.24ZM887.51,95.76l0,0c-.11,0-.05,0-.05,0l-.05,0,0,0c-.11,0-.05,0-.05,0a.48.48,0,0,0-.16.05H887c-.11,0-.22.09-.28.06-6.28,1.79-12.63,3.49-18.91,5.22a19,19,0,0,1-4.74.52c-1.45,0-1.64-.35-.27-.72,5.62-1.53,11.35-3.13,17.15-4.72-4.82-.61-9.64-1.22-14.38-1.9-1.07-.1-.69-.5,1-.82a22.51,22.51,0,0,1,4.8-.35c5.15.78,10.51,1.41,15.75,2.11l.12,0h.11c.06,0,.12,0,.08.08l0,0,0,0c.06,0,.06,0,.17,0,0,0-.1.07,0,.06l.06,0h.11l-.1.07-.05,0,.06,0Z"/><path class="cls-10" d="M516.5,108.67,786.38,84.21c.49-1.73,1-3.41,1.56-5.13L516.09,103.7Q380.26,116,244.37,128.3l2.31,4.79Q381.49,120.92,516.5,108.67Z"/><path class="cls-11" d="M372.91,189.79q-4-12.08-8-24.44-51.61,4.7-103.15,9.33T158.69,184q8.08,12,16,23.71c33-3,66.09-6,99-9S339.78,192.81,372.91,189.79Z"/><path class="cls-12" d="M422.45,185.33l99-9,99.18-9c.65-8.37,1.42-16.82,2.13-25.37q-51.62,4.7-103.15,9.33l-103.09,9.35C418.53,169,420.49,177.18,422.45,185.33Z"/><path class="cls-13" d="M868.31,144.94c4.09-8.69,8.16-17.43,12.32-26.28L777.47,128l-103.09,9.35q-2.17,12.9-4.21,25.52,49.46-4.46,99.07-9C802.21,150.91,835.34,147.91,868.31,144.94Z"/><path class="cls-8" d="M524.33,214.85Q339.5,231.59,154.56,248.32l9.06,11.9q180.83-16.31,361.73-32.73T887.18,194.7c2.29-4.41,4.74-8.88,7.1-13.36Z"/><path class="cls-10" d="M375.36,197.63l-1.42-4.53L275.34,202,176.85,211c1,1.44,2,2.91,3,4.38l97.74-8.87Q326.37,202.05,375.36,197.63Z"/><path class="cls-10" d="M377.87,205.34c-.47-1.51-.93-3-1.41-4.49q-48.73,4.42-97.31,8.8l-97.24,8.82c1,1.46,2,2.89,2.93,4.35q48.18-4.4,96.46-8.73C313.43,211.17,345.72,208.22,377.87,205.34Z"/><path class="cls-10" d="M282.93,217.18l-96,8.71c1,1.45,2,2.87,2.91,4.31l95.27-8.65,95.24-8.62c-.45-1.45-1-2.92-1.4-4.45Q330.85,212.87,282.93,217.18Z"/><path class="cls-10" d="M191.9,233.25c.95,1.44,1.93,2.84,2.88,4.28l119.07-10.79c-.67-1.43-1.31-2.9-2-4.35Q251.93,227.86,191.9,233.25Z"/><path class="cls-10" d="M423.22,188.65l1.12,4.53L522,184.34l97.86-8.89c.18-1.54.25-3.07.41-4.68l-98.61,8.94Z"/><path class="cls-10" d="M425.15,196.43c.33,1.53.63,3,1,4.51l96.47-8.73,96.58-8.74c.22-1.56.29-3.08.45-4.67q-48.64,4.45-97.3,8.85Z"/><path class="cls-10" d="M427,204.13c.29,1.55.7,3,1.06,4.49q47.6-4.29,95.24-8.62c31.67-2.87,63.51-5.76,95.28-8.65.13-1.48.25-3,.41-4.6l-96,8.71Z"/><path class="cls-10" d="M428.77,211.79c.32,1.51.69,3,1.05,4.45L548.9,205.46c-.05-1.51,0-3-.16-4.52Q488.8,206.4,428.77,211.79Z"/><path class="cls-10" d="M864.43,153.31c.77-1.58,1.53-3.22,2.29-4.86l-98.61,8.94q-49.21,4.45-98.5,8.93c-.27,1.58-.54,3.17-.76,4.71,32.55-3,65.21-5.93,97.76-8.87S831.77,156.28,864.43,153.31Z"/><path class="cls-10" d="M860.53,161.59c.92-1.61,1.58-3.17,2.33-4.8q-48.66,4.37-97.32,8.8l-97.26,8.82c-.26,1.57-.48,3.11-.75,4.68q48.2-4.4,96.47-8.73Z"/><path class="cls-10" d="M856.81,169.76c.76-1.56,1.46-3.13,2.2-4.74l-96,8.71q-48,4.36-96,8.67c-.31,1.59-.52,3.12-.74,4.64,31.67-2.88,63.51-5.75,95.25-8.62Z"/><path class="cls-10" d="M785.69,179.5l-120,10.84c-.2,1.57-.52,3.09-.78,4.63q59.57-5.38,119.08-10.79C784.53,182.6,785.12,181.08,785.69,179.5Z"/><path class="cls-14" d="M543.09,252.92a33.69,33.69,0,0,1-18.8,1.7c-6-1.51-8.13-6.71,8.73-8.24S548.73,250.36,543.09,252.92Z"/><path class="cls-15" d="M409.6,60.28,16.54,95.8c-16.69,1.51-21,12.8-9.62,25.08L160.06,285.95c3.81,4.09,11.47,7,17,6.54l114.58-10.35Z"/></g></g></g></svg>