<svg xmlns="http://www.w3.org/2000/svg" viewBox="0 0 93.82 168.87"><defs><style>.cls-1{opacity:0.1;}.cls-2{fill:#5c5c5c;}.cls-3{fill:#171717;}.cls-4{fill:#2f2e30;}.cls-5{fill:#4d4d4d;}.cls-6{fill:#3c3b3d;}.cls-15,.cls-7{fill:#fff;}.cls-8{fill:#f9d181;}.cls-9{fill:#a4d6c6;}.cls-10{fill:#e9e9e9;}.cls-11{fill:#cee598;}.cls-12{fill:#fc9a72;}.cls-13{fill:#a4bcd5;}.cls-14{fill:#1c1c1c;}.cls-15{opacity:0.05;}</style></defs><title>iphone</title><g id="Layer_2" data-name="Layer 2"><g id="Layer_3" data-name="Layer 3"><g id="iPhone"><path class="cls-1" d="M93.72,149.72,80.48,23.26l0-.46-.22-2.13c-.31-2.93-1.83-5.18-3.53-7.52L71.91,7l-4.07.18a11.11,11.11,0,0,0-3.59-.22L64,7l-.05,0-.07-.06-.07-.06-.07-.06-.07-.06-.07-.06-.07-.06-.07-.06-.07-.06-.07-.06-.07-.06-.07-.06-.07-.06a.23.23,0,0,0-.2-.09L51.43,7.37a.23.23,0,0,0-.21.26l0,.45,0,.23L13.6,12.25a11.2,11.2,0,0,0-10,12.29l1,9.08-.23,0-.45,0a.23.23,0,0,0-.21.26l.69,6.55a.23.23,0,0,0,.13.18l.07.06.07.06.07.06.07.06.07.06.07.06.07.06.07.06.07.06.07.06.07.06.07.06,0,0L6.1,48l-.23,0-.45,0a.23.23,0,0,0-.21.26l.5,4.76a.23.23,0,0,0,.13.18l.07.06.07.06.07.06.07.06.07.06.07.06.07.06.07.06.07.06.07.06.07.06.07.06,0,0,.71,6.78-.23,0-.45,0a.23.23,0,0,0-.21.26l.5,4.76a.23.23,0,0,0,.13.18l.07.06.07.06.07.06.07.06.07.06.07.06.07.06.07.06.07.06.07.06.07.06.07.06,0,0,9.3,88.8-.14,1s8.66,9.73,10,10.81a8,8,0,0,0,6,1.36l48.86-5.12c6.53-.68,12.32-6.94,11.63-13.49h0l0-.46Z"/><rect class="cls-2" x="6.74" y="3.02" width="73.29" height="154.47" rx="11.18" ry="11.18" transform="translate(-8.12 4.96) rotate(-5.98)"/><rect class="cls-3" x="7.44" y="3.72" width="71.89" height="153.07" rx="10.49" ry="10.49" transform="matrix(0.99, -0.1, 0.1, 0.99, -8.12, 4.96)"/><circle class="cls-4" cx="36.17" cy="11.36" r="2.03" transform="translate(-0.99 3.83) rotate(-5.98)"/><circle class="cls-5" cx="36.17" cy="11.36" r="1.16" transform="translate(-0.99 3.83) rotate(-5.98)"/><path class="cls-4" d="M41.8,15.26,31.44,16.35a1.57,1.57,0,0,0,.33,3.13L42.13,18.4a1.57,1.57,0,0,0-.33-3.13Z"/><path class="cls-5" d="M31.7,18.81A.9.9,0,0,1,31.51,17l10.36-1.09a.9.9,0,1,1,.19,1.79Z"/><path class="cls-4" d="M26,16.92h0a1.57,1.57,0,0,0,.33,3.13h0A1.57,1.57,0,1,0,26,16.92Z"/><path class="cls-5" d="M26.25,19.38a.9.9,0,1,1-.19-1.79h0a.9.9,0,1,1,.19,1.79Z"/><path class="cls-6" d="M49.53,138.91a7,7,0,1,0,7.67,6.22A7,7,0,0,0,49.53,138.91Zm1.41,13.43a6.52,6.52,0,1,1,5.8-7.16A6.52,6.52,0,0,1,50.93,152.34Z"/><polygon class="cls-7" points="68.61 26.77 78.67 122.76 17.04 129.22 7 33.34 68.61 26.77"/><path class="cls-8" d="M37.87,30.77l30.82-3.23-.56-5.36L37.31,25.42,6.51,28.63q.27,2.69.56,5.36Z"/><path class="cls-9" d="M39.06,42.16,53.4,40.65c-.28-2.7-.56-5.43-.85-8.14L38.21,34l-14.34,1.5q.42,4.07.85,8.14Z"/><path class="cls-8" d="M40.06,51.69,9.26,54.9q1.17,11.21,2.35,22.42l30.8-3.21L73.24,70.9,71.89,58q-.5-4.77-1-9.54ZM16.38,68.24a.2.2,0,0,1-.35,0c-.51-.76-1-1.53-1.51-2.29a.09.09,0,0,1,0,0s0,0,0,0l0,0s0,0,0,0h0a.11.11,0,0,1,0,0s0,0,0,0a.07.07,0,0,0,0,0h0a.08.08,0,0,1,0,0h0a.1.1,0,0,1,0,0h0s0,0,0,0h0v0l1-2.57a.2.2,0,0,1,.34-.09.51.51,0,0,1,.09.5L15,65.64c.46.7.92,1.39,1.38,2.08A.51.51,0,0,1,16.38,68.24ZM68,60.19a.1.1,0,0,1,0,0s0,0,0,0h0v0a.1.1,0,0,0,0,0h0s0,0,0,0c-.33.86-.67,1.7-1,2.55-.06.17-.22.22-.34.1a.5.5,0,0,1-.1-.52c.3-.76.61-1.54.91-2.32-.46-.68-.92-1.38-1.38-2.08a.48.48,0,0,1,0-.52c.08-.13.25-.12.35,0,.5.76,1,1.53,1.51,2.28a.07.07,0,0,0,0,0h0a0,0,0,0,1,0,0h0a0,0,0,0,0,0,0v0s0,0,0,0h0A.07.07,0,0,0,68,60.19Z"/><path class="cls-10" d="M39.76,48.75l19-2c-.12-1.14-.24-2.26-.36-3.41l-19,2-19,2c.12,1.14.24,2.27.36,3.41Z"/><path class="cls-11" d="M32.49,91.27q-.6-5.65-1.2-11.28l-7.74.81-7.73.8q.6,5.65,1.19,11.28l7.73-.8Z"/><path class="cls-12" d="M33.93,106.31,32.73,95,25,95.83l-7.73.8q.6,5.65,1.19,11.28l7.73-.8Z"/><path class="cls-13" d="M27.84,122.12l7.74-.8L34.38,110l-7.74.8-7.73.81q.6,5.65,1.2,11.28Z"/><path class="cls-8" d="M78.64,122.45l-30.83,3.23L17,128.89l1,9.76,30.8-3.21,30.83-3.22Q79.14,127.34,78.64,122.45Z"/><path class="cls-10" d="M69.91,78.31c-.08-.87-.17-1.74-.28-2.62l-17,1.77-17,1.75.3,2.61,17-1.75Z"/><path class="cls-10" d="M70.42,82.8c-.1-.87-.18-1.73-.3-2.61l-17,1.75L36,83.7c.09.88.19,1.75.28,2.61l17-1.75Z"/><path class="cls-10" d="M60.13,88.4c-.1-.87-.19-1.74-.28-2.62L48.18,87,36.52,88.2c.1.87.19,1.74.28,2.61l11.66-1.2Z"/><path class="cls-10" d="M73.1,108.77c-.07-.81-.16-1.63-.26-2.45l-17,1.76-17,1.75.28,2.44,17-1.75Z"/><path class="cls-10" d="M73.57,113c-.09-.81-.17-1.62-.28-2.44l-17,1.75-17,1.75c.09.82.18,1.63.26,2.44l17-1.75Z"/><path class="cls-10" d="M61,118.49c-.09-.81-.17-1.62-.26-2.45l-10.53,1.09-10.52,1.09c.09.81.17,1.62.26,2.44l10.52-1.09Z"/><path class="cls-10" d="M71.54,93.84c-.07-.81-.16-1.63-.26-2.45l-17,1.76-17,1.75.28,2.44,17-1.75Z"/><path class="cls-10" d="M72,98c-.09-.81-.17-1.62-.28-2.44l-17,1.75-17,1.75c.09.82.18,1.63.26,2.44l17-1.75Z"/><path class="cls-10" d="M64.59,103c-.09-.81-.18-1.62-.26-2.45l-13.12,1.36L38.1,103.29c.09.81.18,1.62.27,2.44l13.11-1.35Z"/><rect class="cls-14" x="86.01" y="141.87" width="0.7" height="0.46" transform="translate(-14.33 9.77) rotate(-5.98)"/><rect class="cls-14" x="13.81" y="149.41" width="0.7" height="0.46" transform="matrix(0.99, -0.1, 0.1, 0.99, -15.51, 2.29)"/><rect class="cls-14" x="72.5" y="12.91" width="0.7" height="0.46" transform="translate(-0.97 7.66) rotate(-5.98)"/><path class="cls-2" d="M59.6.21A.23.23,0,0,0,59.34,0L47.85,1.2a.23.23,0,0,0-.21.26l.07.68,12-1.25Z"/><rect class="cls-1" x="47.67" y="1.28" width="12.02" height="0.23" transform="translate(0.15 5.6) rotate(-5.98)"/><path class="cls-2" d="M1.84,41.95a.23.23,0,0,0-.21.26L2.13,47a.23.23,0,0,0,.26.21l.68-.07-.55-5.23Z"/><rect class="cls-1" x="2.56" y="41.87" width="0.23" height="5.26" transform="translate(-4.62 0.52) rotate(-5.98)"/><path class="cls-2" d="M.33,27.53a.23.23,0,0,0-.21.26l.69,6.55a.23.23,0,0,0,.26.21l.68-.07-.73-7Z"/><rect class="cls-1" x="1.15" y="27.45" width="0.23" height="7.05" transform="translate(-3.22 0.3) rotate(-5.98)"/><path class="cls-2" d="M3.18,54.72A.23.23,0,0,0,3,55l.5,4.76a.23.23,0,0,0,.26.21l.68-.07-.55-5.23Z"/><rect class="cls-1" x="3.9" y="54.65" width="0.23" height="5.26" transform="translate(-5.94 0.73) rotate(-5.98)"/><path class="cls-15" d="M10.09,6.78A10.5,10.5,0,0,0,.75,18.3L14.51,149.69a10.49,10.49,0,0,0,6.67,8.68L39.55,3.7Z"/></g></g></g></svg>