<svg xmlns="http://www.w3.org/2000/svg" xmlns:xlink="http://www.w3.org/1999/xlink" viewBox="0 0 95.02 149.48"><defs><style>.cls-1{fill:none;}.cls-2{isolation:isolate;}.cls-3{opacity:0.1;}.cls-13,.cls-3{mix-blend-mode:multiply;}.cls-4{clip-path:url(#clip-path);}.cls-5{clip-path:url(#clip-path-2);}.cls-6{fill:#df8583;}.cls-7{fill:#e1a19f;}.cls-8{fill:#ffd881;}.cls-9{fill:#ffcb50;}.cls-10{fill:#e7ba52;}.cls-11{fill:#ecb795;}.cls-12{fill:#d6d6d6;}.cls-14{clip-path:url(#clip-path-3);}.cls-15{fill:#d0dadc;}.cls-16{clip-path:url(#clip-path-4);}</style><clipPath id="clip-path"><rect class="cls-1" x="76.46" y="127.84" width="10.67" height="7.05" transform="translate(-2.28 1.45) rotate(-1)"/></clipPath><clipPath id="clip-path-2"><rect class="cls-1" x="79.99" y="133.91" width="10.62" height="6.92" transform="translate(-2.38 1.51) rotate(-1)"/></clipPath><clipPath id="clip-path-3"><rect class="cls-1" x="67.46" y="123.84" width="10.67" height="7.05" transform="translate(-2.21 1.29) rotate(-1)"/></clipPath><clipPath id="clip-path-4"><rect class="cls-1" x="70.99" y="129.91" width="10.62" height="6.92" transform="translate(-2.31 1.35) rotate(-1)"/></clipPath></defs><title>lapis</title><g class="cls-2"><g id="Layer_2" data-name="Layer 2"><g id="Layer_3" data-name="Layer 3"><g class="cls-3"><path d="M95,144.23l-3-5.61-9.14,4.63S86.29,149,87,149.37s4.76-.08,6.38-2A5.37,5.37,0,0,0,95,144.23"/><path d="M87.16,147.32c-1.29-.15-.28,1.19.65,1.41s4-1.33,5.5-2.66a18.59,18.59,0,0,1-2.82.92,8.89,8.89,0,0,1-3.33.33"/><path d="M86.57,129.18,26.16,24.64a2,2,0,0,1-.82.43l-.74,1L85.43,131.11Z"/><polygon points="20.12 28.89 80.73 132.43 85.42 131.11 24.6 26.05 20.12 28.89"/><polygon points="16.59 29.08 77.14 133.15 81.46 133.07 20.12 28.89 16.59 29.08"/><path d="M9,4,26.14,24.74s.16,1.77-2.55,3.78-6.8,1-6.8,1Z"/><path d="M15.88,12.33,9,4l2.82,9.24A7.9,7.9,0,0,0,15.88,12.33Z"/><path d="M86.29,127.76l6,11.13a9.34,9.34,0,0,1-4.17,4.1,10.94,10.94,0,0,1-4.71,1.21L76.49,132.7a15.13,15.13,0,0,0,6-1.34,11,11,0,0,0,3.82-3.6"/><g class="cls-4"><path d="M82.87,133.3c.95-.57,3.1-1.55,3.92-2.74a3.82,3.82,0,0,1,.3-1.31l-.8-1.49a11,11,0,0,1-3.82,3.6,15.14,15.14,0,0,1-6,1.34L77.84,135q1.33-.25,2.65-.57a12.15,12.15,0,0,0,2.39-1.08"/></g><g class="cls-5"><path d="M84.08,137.46a31.81,31.81,0,0,1-3.91,1.07l-.16,0,1.4,2.33a12.25,12.25,0,0,0,3.52-1c2-1,4.28-2.25,5.65-4.14l-1-1.9a11.26,11.26,0,0,1-5.49,3.63"/></g></g><path class="cls-6" d="M86,140.23l-3-5.61-9.14,4.63S77.29,145,78,145.37s4.76-.08,6.38-2A5.37,5.37,0,0,0,86,140.23"/><path class="cls-7" d="M78.16,143.32c-1.29-.15-.28,1.19.65,1.41s4-1.33,5.5-2.66a18.59,18.59,0,0,1-2.82.92,8.89,8.89,0,0,1-3.33.33"/><path class="cls-8" d="M77.57,125.18,17.16,20.64a2,2,0,0,1-.82.43l-.74,1L76.43,127.11Z"/><polygon class="cls-9" points="11.12 24.89 71.73 128.43 76.42 127.11 15.6 22.05 11.12 24.89"/><polygon class="cls-10" points="7.59 25.08 68.14 129.15 72.46 129.07 11.12 24.89 7.59 25.08"/><path class="cls-11" d="M0,0,17.14,20.74s.16,1.77-2.55,3.78-6.8,1-6.8,1Z"/><path d="M6.88,8.33,0,0,2.82,9.24A7.9,7.9,0,0,0,6.88,8.33Z"/><path class="cls-12" d="M77.29,123.76l6,11.13a9.34,9.34,0,0,1-4.17,4.1,10.94,10.94,0,0,1-4.71,1.21L67.49,128.7a15.13,15.13,0,0,0,6-1.34,11,11,0,0,0,3.82-3.6"/><g class="cls-13"><g class="cls-14"><path class="cls-15" d="M73.87,129.3c.95-.57,3.1-1.55,3.92-2.74a3.82,3.82,0,0,1,.3-1.31l-.8-1.49a11,11,0,0,1-3.82,3.6,15.14,15.14,0,0,1-6,1.34L68.84,131q1.33-.25,2.65-.57a12.15,12.15,0,0,0,2.39-1.08"/></g></g><g class="cls-13"><g class="cls-16"><path class="cls-15" d="M75.08,133.46a31.81,31.81,0,0,1-3.91,1.07l-.16,0,1.4,2.33a12.25,12.25,0,0,0,3.52-1c2-1,4.28-2.25,5.65-4.14l-1-1.9a11.26,11.26,0,0,1-5.49,3.63"/></g></g></g></g></g></svg>