<svg xmlns="http://www.w3.org/2000/svg" viewBox="0 0 196.83 90.43"><defs><style>.cls-1{opacity:0.1;}.cls-2{fill:#23d975;}.cls-3{fill:#2b2b2b;}.cls-4{opacity:0.3;}.cls-5{fill:#363636;}.cls-6{fill:#333;}.cls-7{fill:#fff;opacity:0.05;}</style></defs><title>marcador</title><g id="Layer_2" data-name="Layer 2"><g id="Layer_3" data-name="Layer 3"><g id="Marker"><path class="cls-1" d="M188.54,10.23h0l-2.32-6.18a.88.88,0,0,0-1.13-.51l-2.3.81.14.38L179.8,5.84l-.14-.38-3.13,1.1.14.38L173.53,8l-.14-.38-3.14,1.11.14.38-3.13,1.1-.14-.38L164,11l.14.38L161,12.47l-.14-.38-3.13,1.1.14.38-3.14,1.1-.14-.38-3.13,1.1-3.13,1.1-7,2.45,0-.05a.81.81,0,0,0-1.05-.47l-106.16,41a.83.83,0,0,0-.48,1.06l-1.76.66.53,1.42-.8.3L28.73,63.9,14.81,80.73,10,82.56l.13.34L3.67,85.31c-.36.13-.4.44-.1.69l4.22,3.39a1.37,1.37,0,0,0,1.2.2l3.16-1.19.12.31,4.85-1.82,21.57,3.51h0l2.87-1.08.8-.3.53,1.41,1.76-.66a.83.83,0,0,0,1.06.49L152.64,51.38a.81.81,0,0,0,.48-1l0-.05L160,47.57l3.09-1.22,3.09-1.22-.14-.38,3.09-1.22.14.38,3.09-1.22-.14-.38,3.09-1.22.14.38,3.09-1.22-.14-.38,3.09-1.22.14.38,3.09-1.22-.14-.38,3.09-1.22.14.38,3.09-1.22-.14-.38,3.09-1.22.14.38,2.27-.89a.87.87,0,0,0,.52-1.13l-2.11-5.61h0l-.29-.77L188.83,11l-.29-.77Z"/><path class="cls-2" d="M147,46.85a.81.81,0,0,1-.48,1L42.34,85.73a.83.83,0,0,1-1.06-.49l-11-29.33a.83.83,0,0,1,.48-1.06L134.13,14.94a.81.81,0,0,1,1.05.47Z"/><path class="cls-3" d="M136.1,17.88l6.62-2.49a4.11,4.11,0,0,1,5.28,2.4l7,18.51a4.11,4.11,0,0,1-2.4,5.28l-6.62,2.49"/><rect class="cls-4" x="140.96" y="16.63" width="2.02" height="27.97" transform="translate(-1.7 51.88) rotate(-20.59)"/><rect class="cls-3" x="33.95" y="55.25" width="1.88" height="31.33" transform="translate(-22.71 16.8) rotate(-20.59)"/><rect class="cls-3" x="30.22" y="57.78" width="3.92" height="28.3" transform="translate(-23.24 15.91) rotate(-20.59)"/><rect class="cls-4" x="33.18" y="57.24" width="0.86" height="28.3" transform="translate(-22.96 16.38) rotate(-20.59)"/><polygon class="cls-3" points="25.37 59.37 35.32 85.87 13.75 82.36 11.44 76.21 25.37 59.37"/><rect class="cls-3" x="7.58" y="76.91" width="5.18" height="6.57" transform="translate(-27.55 8.7) rotate(-20.59)"/><path class="cls-2" d="M8.78,83.87,5.62,85.06a1.37,1.37,0,0,1-1.2-.2L.2,81.47c-.3-.24-.26-.55.1-.69l6.41-2.41"/><polygon class="cls-3" points="160.98 6.39 172.39 36.78 169.3 38 157.84 7.49 160.98 6.39"/><polygon class="cls-3" points="167.25 4.18 178.58 34.34 175.49 35.56 164.11 5.29 167.25 4.18"/><polygon class="cls-3" points="154.71 8.6 166.21 39.22 163.12 40.43 151.57 9.7 154.71 8.6"/><path class="cls-3" d="M179,.06a.88.88,0,0,1,1.13.51l10.55,28.1a.87.87,0,0,1-.52,1.13l-2.27.89L176.65.87Z"/><polygon class="cls-3" points="173.52 1.98 184.76 31.91 181.67 33.12 170.38 3.08 173.52 1.98"/><polygon class="cls-5" points="176.8 1.25 187.71 30.3 184.62 31.52 173.66 2.36 176.8 1.25"/><polygon class="cls-5" points="170.53 3.46 181.53 32.74 178.44 33.96 167.39 4.57 170.53 3.46"/><polygon class="cls-5" points="164.26 5.67 175.34 35.18 172.25 36.4 161.12 6.77 164.26 5.67"/><polygon class="cls-5" points="157.99 7.88 169.16 37.62 166.06 38.83 154.85 8.98 157.99 7.88"/><polygon class="cls-5" points="151.72 10.09 162.97 40.05 159.88 41.27 148.58 11.19 151.72 10.09"/><polygon class="cls-3" points="142.17 13.01 145.3 11.91 148.44 10.8 160.03 41.65 156.93 42.87 153.84 44.09 146.97 46.8 135.2 15.47 142.17 13.01"/><path class="cls-1" d="M143.44,22.26,182.7,7.51l5.84,15.54L149.28,37.8a1.64,1.64,0,0,1-2.11-1l-4.68-12.47A1.64,1.64,0,0,1,143.44,22.26Z"/><path class="cls-6" d="M143.54,21.35l38.87-14.6,5.84,15.54-38.87,14.6a1.64,1.64,0,0,1-2.11-1l-4.68-12.47A1.64,1.64,0,0,1,143.54,21.35Z"/><path class="cls-7" d="M142.58,23.46l.14.38a1.64,1.64,0,0,1,1-2.11l38.87-14.6-.14-.38-38.87,14.6A1.64,1.64,0,0,0,142.58,23.46Z"/></g></g></g></svg>