<svg xmlns="http://www.w3.org/2000/svg" viewBox="0 0 283.23 232.36"><defs><style>.cls-1{isolation:isolate;}.cls-2{opacity:0.1;mix-blend-mode:multiply;}.cls-3{fill:#fcfcfc;}.cls-4{fill:#5d1018;}.cls-5{fill:#8b1824;}.cls-6{fill:#ba2031;}.cls-7{fill:#c74c58;}.cls-8{fill:#d34426;}.cls-9{fill:#ef6861;}.cls-10{fill:#f18c86;}.cls-11{fill:#f7b2af;}.cls-12{fill:#f39131;}.cls-13{fill:#f6a654;}.cls-14{fill:#f7bd7c;}.cls-15{fill:#f9d2a7;}.cls-16{fill:#8cc349;}.cls-17{fill:#a3cf6a;}.cls-18{fill:#badb8f;}.cls-19{fill:#d0e6b2;}.cls-20{fill:#19a69b;}.cls-21{fill:#3cb7af;}.cls-22{fill:#6ac9c1;}.cls-23{fill:#9adad7;}.cls-24{fill:#2377b9;}.cls-25{fill:#4c90c5;}.cls-26{fill:#79acd3;}.cls-27{fill:#a3c7e2;}.cls-28{fill:#fbe6be;}</style></defs><title>pantones</title><g class="cls-1"><g id="Layer_2" data-name="Layer 2"><g id="Layer_3" data-name="Layer 3"><g class="cls-2"><rect x="154.83" y="9.29" width="57.07" height="194.47" transform="translate(-24.96 66.87) rotate(-19.38)"/><rect x="169.79" y="132.15" width="57.07" height="33.82" transform="translate(-38.22 74.24) rotate(-19.38)"/><rect x="155.76" y="92.27" width="57.07" height="33.82" transform="translate(-25.79 67.33) rotate(-19.38)"/><rect x="141.73" y="52.39" width="57.07" height="33.82" transform="matrix(0.94, -0.33, 0.33, 0.94, -13.35, 60.43)"/><rect x="127.71" y="12.51" width="57.07" height="33.82" transform="translate(-0.91 53.5) rotate(-19.38)"/><rect x="132.6" y="15.75" width="57.07" height="194.47" transform="translate(-35.66 112.4) rotate(-34.87)"/><rect x="158.38" y="133.07" width="57.07" height="33.82" transform="translate(-52.18 133.78) rotate(-34.87)"/><rect x="134.21" y="98.38" width="57.07" height="33.82" transform="translate(-36.69 113.74) rotate(-34.87)"/><rect x="110.04" y="63.69" width="57.07" height="33.82" transform="translate(-21.2 93.7) rotate(-34.87)"/><rect x="85.88" y="29.01" width="57.07" height="33.82" transform="translate(-5.71 73.65) rotate(-34.87)"/><rect x="112.91" y="27.9" width="57.07" height="194.47" transform="translate(-45.16 154.22) rotate(-50.36)"/><rect x="147.63" y="136.99" width="57.07" height="33.82" transform="translate(-54.74 191.37) rotate(-50.36)"/><rect x="115.08" y="110.02" width="57.07" height="33.82" transform="translate(-45.75 156.56) rotate(-50.36)"/><rect x="82.52" y="83.05" width="57.07" height="33.82" transform="translate(-36.77 121.71) rotate(-50.36)"/><rect x="49.97" y="56.08" width="57.07" height="33.82" transform="translate(-27.79 86.88) rotate(-50.36)"/><rect x="97.18" y="44.88" width="57.07" height="194.47" transform="translate(-55.39 198.68) rotate(-65.85)"/><rect x="138.32" y="143.65" width="57.07" height="33.82" transform="translate(-47.92 247.12) rotate(-65.85)"/><rect x="99.75" y="126.35" width="57.07" height="33.82" transform="translate(-54.92 201.71) rotate(-65.85)"/><rect x="61.17" y="109.06" width="57.07" height="33.82" transform="translate(-61.94 156.29) rotate(-65.85)"/><rect x="22.6" y="91.76" width="57.07" height="33.82" transform="translate(-68.95 110.86) rotate(-65.85)"/><rect x="86.55" y="65.43" width="57.07" height="194.47" transform="translate(-63.05 251.96) rotate(-81.34)"/><rect x="131.13" y="152.54" width="57.07" height="33.82" transform="translate(-31.9 301.79) rotate(-81.34)"/><rect x="89.34" y="146.18" width="57.07" height="33.82" transform="translate(-61.11 255.07) rotate(-81.34)"/><rect x="47.54" y="139.82" width="57.07" height="33.82" transform="translate(-90.32 208.34) rotate(-81.34)"/><rect x="5.75" y="133.45" width="57.07" height="33.82" transform="translate(-119.53 161.61) rotate(-81.34)"/><rect x="13.1" y="156.78" width="194.47" height="57.07" transform="translate(-21.27 14.45) rotate(-6.84)"/><rect x="138.2" y="151.42" width="33.82" height="57.07" transform="translate(-20.3 19.73) rotate(-6.83)"/><rect x="96.23" y="156.45" width="33.82" height="57.07" transform="translate(-21.21 14.78) rotate(-6.84)"/><polygon points="91.35 216.34 84.56 159.67 50.97 163.7 57.77 220.36 91.35 216.34"/><rect x="12.27" y="166.51" width="33.82" height="57.07" transform="translate(-22.99 4.86) rotate(-6.83)"/><path d="M197.69,189.4c13.95,19.8,34.52,34.43,58.68,38.31,8.41,1.35,29.31.5,21.28-13.37-3.51-6.06-10.63-10.54-16.38-14.18a140.83,140.83,0,0,0-18-10c-2.31-1-.61-4.53,1.69-3.52a139.25,139.25,0,0,1,20.45,11.58c6,4,13.45,9,16.55,15.88,4.06,9-2.19,16-11.18,17.61-14,2.52-29.37-2.64-41.67-9-13.92-7.18-25.65-18.35-34.63-31.09C193,189.56,196.25,187.35,197.69,189.4Z"/></g><rect class="cls-3" x="145.83" y="5.29" width="57.07" height="194.47" transform="translate(-24.14 63.66) rotate(-19.38)"/><rect class="cls-4" x="160.79" y="128.15" width="57.07" height="33.82" transform="translate(-37.41 71.03) rotate(-19.38)"/><rect class="cls-5" x="146.76" y="88.27" width="57.07" height="33.82" transform="translate(-24.97 64.12) rotate(-19.38)"/><rect class="cls-6" x="132.73" y="48.39" width="57.07" height="33.82" transform="matrix(0.94, -0.33, 0.33, 0.94, -12.53, 57.21)"/><rect class="cls-7" x="118.71" y="8.51" width="57.07" height="33.82" transform="translate(-0.09 50.29) rotate(-19.38)"/><rect class="cls-3" x="123.6" y="11.75" width="57.07" height="194.47" transform="translate(-34.99 106.53) rotate(-34.87)"/><rect class="cls-8" x="149.38" y="129.07" width="57.07" height="33.82" transform="translate(-51.51 127.92) rotate(-34.87)"/><rect class="cls-9" x="125.21" y="94.38" width="57.07" height="33.82" transform="translate(-36.02 107.88) rotate(-34.87)"/><rect class="cls-10" x="101.04" y="59.69" width="57.07" height="33.82" transform="translate(-20.53 87.83) rotate(-34.87)"/><rect class="cls-11" x="76.88" y="25.01" width="57.07" height="33.82" transform="translate(-5.04 67.78) rotate(-34.87)"/><rect class="cls-3" x="103.91" y="23.9" width="57.07" height="194.47" transform="translate(-45.33 145.84) rotate(-50.36)"/><rect class="cls-12" x="138.63" y="132.99" width="57.07" height="33.82" transform="translate(-54.92 182.99) rotate(-50.36)"/><rect class="cls-13" x="106.08" y="106.02" width="57.07" height="33.82" transform="translate(-45.93 148.18) rotate(-50.36)"/><rect class="cls-14" x="73.52" y="79.05" width="57.07" height="33.82" transform="translate(-36.95 113.33) rotate(-50.36)"/><rect class="cls-15" x="40.97" y="52.08" width="57.07" height="33.82" transform="translate(-27.97 78.5) rotate(-50.36)"/><rect class="cls-3" x="88.18" y="40.88" width="57.07" height="194.47" transform="translate(-57.06 188.11) rotate(-65.85)"/><rect class="cls-16" x="129.32" y="139.65" width="57.07" height="33.82" transform="translate(-49.58 236.54) rotate(-65.85)"/><rect class="cls-17" x="90.75" y="122.35" width="57.07" height="33.82" transform="translate(-56.59 191.13) rotate(-65.85)"/><rect class="cls-18" x="52.17" y="105.06" width="57.07" height="33.82" transform="translate(-63.6 145.71) rotate(-65.85)"/><rect class="cls-19" x="13.6" y="87.76" width="57.07" height="33.82" transform="translate(-70.62 100.29) rotate(-65.85)"/><rect class="cls-3" x="77.55" y="61.43" width="57.07" height="194.47" transform="translate(-66.74 239.66) rotate(-81.34)"/><rect class="cls-20" x="122.13" y="148.54" width="57.07" height="33.82" transform="translate(-35.59 289.5) rotate(-81.34)"/><rect class="cls-21" x="80.34" y="142.18" width="57.07" height="33.82" transform="translate(-64.8 242.78) rotate(-81.34)"/><rect class="cls-22" x="38.54" y="135.82" width="57.07" height="33.82" transform="translate(-94.01 196.04) rotate(-81.34)"/><rect class="cls-23" x="-3.25" y="129.45" width="57.07" height="33.82" transform="translate(-123.22 149.32) rotate(-81.34)"/><rect class="cls-3" x="4.1" y="152.78" width="194.47" height="57.07" transform="translate(-20.86 13.35) rotate(-6.84)"/><rect class="cls-24" x="129.2" y="147.42" width="33.82" height="57.07" transform="translate(-19.89 18.63) rotate(-6.83)"/><rect class="cls-25" x="87.23" y="152.45" width="33.82" height="57.07" transform="translate(-20.8 13.68) rotate(-6.84)"/><polygon class="cls-26" points="82.35 212.34 75.56 155.67 41.97 159.7 48.77 216.36 82.35 212.34"/><rect class="cls-27" x="3.27" y="162.51" width="33.82" height="57.07" transform="translate(-22.58 3.76) rotate(-6.83)"/><path class="cls-28" d="M188.69,185.4c13.95,19.8,34.52,34.43,58.68,38.31,8.41,1.35,29.31.5,21.28-13.37-3.51-6.06-10.63-10.54-16.38-14.18a140.83,140.83,0,0,0-18-10c-2.31-1-.61-4.53,1.69-3.52a139.25,139.25,0,0,1,20.45,11.58c6,4,13.45,9,16.55,15.88,4.06,9-2.19,16-11.18,17.61-14,2.52-29.37-2.64-41.67-9-13.92-7.18-25.65-18.35-34.63-31.09C184,185.56,187.25,183.35,188.69,185.4Z"/></g></g></g></svg>