<svg xmlns="http://www.w3.org/2000/svg" viewBox="0 0 81.99 131.69"><defs><style>.cls-1{opacity:0.1;}.cls-2{fill:#e5e5e5;}.cls-3{fill:#f6f7fb;}.cls-4{fill:#f1f1f1;}.cls-5{fill:#dddae5;}</style></defs><title>rato</title><g id="Layer_2" data-name="Layer 2"><g id="Layer_3" data-name="Layer 3"><g id="Mighty_mouse" data-name="Mighty mouse"><path class="cls-1" d="M56,130.18c-8.22,1.77-14.1,2-19.06.66-5.12-1.36-9.26-4.39-13-9.54C17.84,112.92,11.56,83.42,4,41.71,2.26,32,3,23.94,6.08,18.51,11.73,8.63,23.34,6.13,28.92,4.92l.16,0C35,3.62,45.89,1.26,55.42,7.8c5.06,3.47,9,10.5,11.51,20.33,10.33,41.11,16.77,70.58,14.66,80.74-1.3,6.24-3.82,10.7-7.92,14.05S64.26,128.41,56,130.18Z"/><path class="cls-2" d="M51,123.2c-8,1.73-13.69,2-18.4.73s-8.56-4-12.07-8.8c-6.31-8.57-13.18-43-19.67-79-1.68-9.3-1-16.88,1.91-21.93C8.12,5.06,19.32,2.65,24.7,1.49l.17,0C30.53.23,41.07-2,50,4c4.71,3.19,8.45,9.84,10.81,19.22,8.91,35.43,16.86,69.65,14.65,80.06-1.23,5.79-3.57,9.92-7.37,13S59.06,121.47,51,123.2Z"/><path class="cls-3" d="M50.81,122.13c-15.12,3.26-22.8,1.26-29.36-7.65C15.28,106.09,8.45,71.79,2,36c-1.63-9-1-16.37,1.78-21.19C8.83,6,19.7,3.68,24.93,2.56l.17,0c5.5-1.19,15.75-3.4,24.31,2.4,4.49,3,8.07,9.46,10.37,18.58,8.88,35.3,16.8,69.37,14.64,79.56C72.11,113.88,65.93,118.87,50.81,122.13Z"/><path class="cls-4" d="M59.24,23.63C57,14.77,53.54,8.38,49.1,5.37c-8.39-5.68-18.63-3.45-24-2.3S9.19,6.49,4.23,15.05C1.54,19.69.9,26.88,2.52,35.87c5.57,30.84,12.94,69.55,19.38,78.29s13.88,10.66,28.8,7.44,20.91-8,23.17-18.65S66.89,54,59.24,23.63Z"/><circle class="cls-5" cx="44.46" cy="90.59" r="5.04" transform="translate(-18.11 11.42) rotate(-12.18)"/></g></g></g></svg>