<svg xmlns="http://www.w3.org/2000/svg" viewBox="0 0 336.57 194.78"><defs><style>.cls-1,.cls-7{opacity:0.1;}.cls-2{fill:#d6d6d6;}.cls-3,.cls-7{fill:#fff;}.cls-3{opacity:0.3;}.cls-4,.cls-8{fill:#848484;}.cls-5{fill:#f1f1f3;}.cls-6{fill:#cbcbcb;}.cls-8{fill-rule:evenodd;}</style></defs><title>teclado</title><g id="Layer_2" data-name="Layer 2"><g id="Layer_3" data-name="Layer 3"><g id="Wireless_keyboard" data-name="Wireless keyboard"><path class="cls-1" d="M8.73,147.55C3.87,146.78,0,138.84.8,134L22.44,4.27a3.32,3.32,0,0,1,3.8-2.76L332.3,50.08c1.81.29,4.66,4.12,4.22,6.88l-20.68,130.3a8.93,8.93,0,0,1-10.21,7.41Z"/><path class="cls-2" d="M331.45,48.9,23.48,0A2.34,2.34,0,0,0,20.81,2L.46,130.19a8,8,0,0,0,6.59,9.08L304,186.38a8,8,0,0,0,9.08-6.59L333.39,51.57A2.34,2.34,0,0,0,331.45,48.9Z"/><rect class="cls-3" x="20.72" y="35.82" width="16.31" height="16.39" rx="1.23" ry="1.23" transform="translate(-19.12 65.64) rotate(-80.98)"/><rect class="cls-4" x="20.16" y="33.37" width="17.95" height="18.03" rx="2.05" ry="2.05" transform="translate(-17.3 64.52) rotate(-80.98)"/><rect class="cls-5" x="20.98" y="34.2" width="16.31" height="16.39" rx="1.23" ry="1.23" transform="translate(-17.3 64.52) rotate(-80.98)"/><rect class="cls-3" x="27.07" y="18.53" width="10.15" height="17.62" rx="1.23" ry="1.23" transform="translate(0.11 54.8) rotate(-80.98)"/><rect class="cls-4" x="26.5" y="16.09" width="11.8" height="19.27" rx="2.05" ry="2.05" transform="translate(1.92 53.69) rotate(-80.98)"/><rect class="cls-5" x="27.33" y="16.91" width="10.15" height="17.62" rx="1.23" ry="1.23" transform="translate(1.92 53.69) rotate(-80.98)"/><rect class="cls-3" x="48.87" y="21.99" width="10.15" height="17.62" rx="1.23" ry="1.23" transform="translate(15.08 79.25) rotate(-80.98)"/><rect class="cls-4" x="48.31" y="19.54" width="11.8" height="19.27" rx="2.05" ry="2.05" transform="translate(16.89 78.14) rotate(-80.98)"/><rect class="cls-5" x="49.13" y="20.37" width="10.15" height="17.62" rx="1.23" ry="1.23" transform="translate(16.89 78.14) rotate(-80.98)"/><rect class="cls-3" x="70.67" y="25.45" width="10.15" height="17.62" rx="1.23" ry="1.23" transform="translate(30.05 103.71) rotate(-80.98)"/><rect class="cls-4" x="70.11" y="23" width="11.8" height="19.27" rx="2.05" ry="2.05" transform="translate(31.86 102.59) rotate(-80.98)"/><rect class="cls-5" x="70.93" y="23.83" width="10.15" height="17.62" rx="1.23" ry="1.23" transform="translate(31.86 102.59) rotate(-80.98)"/><rect class="cls-3" x="92.48" y="28.91" width="10.15" height="17.62" rx="1.23" ry="1.23" transform="translate(45.01 128.16) rotate(-80.98)"/><rect class="cls-4" x="91.91" y="26.46" width="11.8" height="19.27" rx="2.05" ry="2.05" transform="matrix(0.16, -0.99, 0.99, 0.16, 46.83, 127.04)"/><rect class="cls-5" x="92.73" y="27.28" width="10.15" height="17.62" rx="1.23" ry="1.23" transform="translate(46.83 127.04) rotate(-80.98)"/><rect class="cls-3" x="114.28" y="32.37" width="10.15" height="17.62" rx="1.23" ry="1.23" transform="translate(59.98 152.61) rotate(-80.98)"/><rect class="cls-4" x="113.72" y="29.92" width="11.8" height="19.27" rx="2.05" ry="2.05" transform="translate(61.8 151.49) rotate(-80.98)"/><rect class="cls-5" x="114.54" y="30.74" width="10.15" height="17.62" rx="1.23" ry="1.23" transform="translate(61.8 151.49) rotate(-80.98)"/><rect class="cls-3" x="136.08" y="35.83" width="10.15" height="17.62" rx="1.23" ry="1.23" transform="translate(74.95 177.06) rotate(-80.98)"/><rect class="cls-4" x="135.52" y="33.38" width="11.8" height="19.27" rx="2.05" ry="2.05" transform="matrix(0.16, -0.99, 0.99, 0.16, 76.77, 175.95)"/><rect class="cls-5" x="136.34" y="34.2" width="10.15" height="17.62" rx="1.23" ry="1.23" transform="translate(76.77 175.95) rotate(-80.98)"/><rect class="cls-3" x="157.89" y="39.29" width="10.15" height="17.62" rx="1.23" ry="1.23" transform="translate(89.92 201.51) rotate(-80.98)"/><rect class="cls-4" x="157.32" y="36.84" width="11.8" height="19.27" rx="2.05" ry="2.05" transform="translate(91.74 200.4) rotate(-80.98)"/><rect class="cls-5" x="158.14" y="37.66" width="10.15" height="17.62" rx="1.23" ry="1.23" transform="translate(91.74 200.4) rotate(-80.98)"/><rect class="cls-3" x="179.69" y="42.74" width="10.15" height="17.62" rx="1.23" ry="1.23" transform="translate(104.89 225.96) rotate(-80.98)"/><rect class="cls-4" x="179.13" y="40.3" width="11.8" height="19.27" rx="2.05" ry="2.05" transform="translate(106.71 224.85) rotate(-80.98)"/><rect class="cls-5" x="179.95" y="41.12" width="10.15" height="17.62" rx="1.23" ry="1.23" transform="translate(106.71 224.85) rotate(-80.98)"/><rect class="cls-3" x="201.49" y="46.2" width="10.15" height="17.62" rx="1.23" ry="1.23" transform="translate(119.86 250.41) rotate(-80.98)"/><rect class="cls-4" x="200.93" y="43.76" width="11.8" height="19.27" rx="2.05" ry="2.05" transform="translate(121.68 249.3) rotate(-80.98)"/><rect class="cls-5" x="201.75" y="44.58" width="10.15" height="17.62" rx="1.23" ry="1.23" transform="translate(121.68 249.3) rotate(-80.98)"/><rect class="cls-3" x="223.3" y="49.66" width="10.15" height="17.62" rx="1.23" ry="1.23" transform="translate(134.83 274.86) rotate(-80.98)"/><rect class="cls-4" x="222.73" y="47.22" width="11.8" height="19.27" rx="2.05" ry="2.05" transform="translate(136.65 273.75) rotate(-80.98)"/><rect class="cls-5" x="223.55" y="48.04" width="10.15" height="17.62" rx="1.23" ry="1.23" transform="matrix(0.16, -0.99, 0.99, 0.16, 136.65, 273.75)"/><rect class="cls-3" x="245.1" y="53.12" width="10.15" height="17.62" rx="1.23" ry="1.23" transform="translate(149.8 299.31) rotate(-80.98)"/><rect class="cls-4" x="244.54" y="50.68" width="11.8" height="19.27" rx="2.05" ry="2.05" transform="translate(151.62 298.2) rotate(-80.98)"/><rect class="cls-5" x="245.36" y="51.5" width="10.15" height="17.62" rx="1.23" ry="1.23" transform="matrix(0.16, -0.99, 0.99, 0.16, 151.62, 298.2)"/><rect class="cls-3" x="266.9" y="56.58" width="10.15" height="17.62" rx="1.23" ry="1.23" transform="translate(164.77 323.77) rotate(-80.98)"/><rect class="cls-4" x="266.34" y="54.14" width="11.8" height="19.27" rx="2.05" ry="2.05" transform="translate(166.59 322.65) rotate(-80.98)"/><rect class="cls-5" x="267.16" y="54.96" width="10.15" height="17.62" rx="1.23" ry="1.23" transform="translate(166.59 322.65) rotate(-80.98)"/><rect class="cls-3" x="252.92" y="162.89" width="8.77" height="16.37" rx="1.23" ry="1.23" transform="translate(48.02 398.39) rotate(-80.98)"/><rect class="cls-4" x="252.35" y="160.45" width="10.41" height="18.01" rx="2.05" ry="2.05" transform="translate(49.84 397.28) rotate(-80.98)"/><rect class="cls-5" x="253.18" y="161.27" width="8.77" height="16.37" rx="1.23" ry="1.23" transform="matrix(0.16, -0.99, 0.99, 0.16, 49.84, 397.28)"/><rect class="cls-3" x="295.04" y="169.58" width="8.77" height="16.37" rx="1.23" ry="1.23" transform="translate(76.94 445.63) rotate(-80.98)"/><rect class="cls-4" x="294.48" y="167.14" width="10.41" height="18.01" rx="2.05" ry="2.05" transform="translate(78.76 444.52) rotate(-80.98)"/><rect class="cls-5" x="295.3" y="167.96" width="8.77" height="16.37" rx="1.23" ry="1.23" transform="translate(78.76 444.52) rotate(-80.98)"/><rect class="cls-3" x="288.71" y="60.04" width="10.15" height="17.62" rx="1.23" ry="1.23" transform="translate(179.74 348.22) rotate(-80.98)"/><rect class="cls-4" x="288.14" y="57.6" width="11.8" height="19.27" rx="2.05" ry="2.05" transform="translate(181.56 347.1) rotate(-80.98)"/><rect class="cls-5" x="288.96" y="58.42" width="10.15" height="17.62" rx="1.23" ry="1.23" transform="translate(181.56 347.1) rotate(-80.98)"/><rect class="cls-3" x="310.51" y="63.5" width="10.15" height="17.62" rx="1.23" ry="1.23" transform="translate(194.71 372.67) rotate(-80.98)"/><rect class="cls-4" x="309.94" y="61.06" width="11.8" height="19.27" rx="2.05" ry="2.05" transform="translate(196.53 371.55) rotate(-80.98)"/><rect class="cls-5" x="310.77" y="61.88" width="10.15" height="17.62" rx="1.23" ry="1.23" transform="translate(196.53 371.55) rotate(-80.98)"/><rect class="cls-3" x="41.77" y="39.16" width="16.31" height="16.39" rx="1.23" ry="1.23" transform="translate(-4.66 89.25) rotate(-80.98)"/><rect class="cls-4" x="41.21" y="36.72" width="17.95" height="18.03" rx="2.05" ry="2.05" transform="translate(-2.84 88.13) rotate(-80.98)"/><rect class="cls-5" x="42.03" y="37.54" width="16.31" height="16.39" rx="1.23" ry="1.23" transform="translate(-2.84 88.13) rotate(-80.98)"/><rect class="cls-3" x="62.83" y="42.5" width="16.31" height="16.39" rx="1.23" ry="1.23" transform="translate(9.79 112.86) rotate(-80.98)"/><rect class="cls-4" x="62.27" y="40.06" width="17.95" height="18.03" rx="2.05" ry="2.05" transform="translate(11.61 111.75) rotate(-80.98)"/><rect class="cls-5" x="63.09" y="40.88" width="16.31" height="16.39" rx="1.23" ry="1.23" transform="translate(11.61 111.75) rotate(-80.98)"/><rect class="cls-3" x="83.88" y="45.84" width="16.31" height="16.39" rx="1.23" ry="1.23" transform="translate(24.25 136.47) rotate(-80.98)"/><rect class="cls-4" x="83.32" y="43.4" width="17.95" height="18.03" rx="2.05" ry="2.05" transform="translate(26.07 135.36) rotate(-80.98)"/><rect class="cls-5" x="84.14" y="44.22" width="16.31" height="16.39" rx="1.23" ry="1.23" transform="translate(26.07 135.36) rotate(-80.98)"/><rect class="cls-3" x="104.94" y="49.18" width="16.31" height="16.39" rx="1.23" ry="1.23" transform="translate(38.7 160.08) rotate(-80.98)"/><rect class="cls-4" x="104.38" y="46.74" width="17.95" height="18.03" rx="2.05" ry="2.05" transform="translate(40.52 158.97) rotate(-80.98)"/><rect class="cls-5" x="105.2" y="47.56" width="16.31" height="16.39" rx="1.23" ry="1.23" transform="matrix(0.16, -0.99, 0.99, 0.16, 40.52, 158.97)"/><rect class="cls-3" x="125.99" y="52.52" width="16.31" height="16.39" rx="1.23" ry="1.23" transform="translate(53.16 183.69) rotate(-80.98)"/><rect class="cls-4" x="125.43" y="50.08" width="17.95" height="18.03" rx="2.05" ry="2.05" transform="translate(54.98 182.58) rotate(-80.98)"/><rect class="cls-5" x="126.25" y="50.9" width="16.31" height="16.39" rx="1.23" ry="1.23" transform="matrix(0.16, -0.99, 0.99, 0.16, 54.98, 182.58)"/><rect class="cls-3" x="147.05" y="55.86" width="16.31" height="16.39" rx="1.23" ry="1.23" transform="translate(67.61 207.31) rotate(-80.98)"/><rect class="cls-4" x="146.48" y="53.42" width="17.95" height="18.03" rx="2.05" ry="2.05" transform="translate(69.43 206.19) rotate(-80.98)"/><rect class="cls-5" x="147.31" y="54.24" width="16.31" height="16.39" rx="1.23" ry="1.23" transform="translate(69.43 206.19) rotate(-80.98)"/><rect class="cls-3" x="168.1" y="59.2" width="16.31" height="16.39" rx="1.23" ry="1.23" transform="matrix(0.16, -0.99, 0.99, 0.16, 82.07, 230.92)"/><rect class="cls-4" x="167.54" y="56.76" width="17.95" height="18.03" rx="2.05" ry="2.05" transform="translate(83.89 229.8) rotate(-80.98)"/><rect class="cls-5" x="168.36" y="57.58" width="16.31" height="16.39" rx="1.23" ry="1.23" transform="translate(83.89 229.8) rotate(-80.98)"/><rect class="cls-3" x="189.16" y="62.54" width="16.31" height="16.39" rx="1.23" ry="1.23" transform="translate(96.53 254.53) rotate(-80.98)"/><rect class="cls-4" x="188.59" y="60.1" width="17.95" height="18.03" rx="2.05" ry="2.05" transform="translate(98.34 253.42) rotate(-80.98)"/><rect class="cls-5" x="189.41" y="60.92" width="16.31" height="16.39" rx="1.23" ry="1.23" transform="translate(98.34 253.42) rotate(-80.98)"/><rect class="cls-3" x="210.21" y="65.88" width="16.31" height="16.39" rx="1.23" ry="1.23" transform="translate(110.98 278.14) rotate(-80.98)"/><rect class="cls-4" x="209.65" y="63.44" width="17.95" height="18.03" rx="2.05" ry="2.05" transform="translate(112.8 277.03) rotate(-80.98)"/><rect class="cls-5" x="210.47" y="64.26" width="16.31" height="16.39" rx="1.23" ry="1.23" transform="translate(112.8 277.03) rotate(-80.98)"/><rect class="cls-3" x="231.27" y="69.23" width="16.31" height="16.39" rx="1.23" ry="1.23" transform="translate(125.44 301.75) rotate(-80.98)"/><rect class="cls-4" x="230.7" y="66.78" width="17.95" height="18.03" rx="2.05" ry="2.05" transform="translate(127.26 300.64) rotate(-80.98)"/><rect class="cls-5" x="231.52" y="67.6" width="16.31" height="16.39" rx="1.23" ry="1.23" transform="translate(127.26 300.64) rotate(-80.98)"/><rect class="cls-3" x="252.32" y="72.57" width="16.31" height="16.39" rx="1.23" ry="1.23" transform="translate(139.89 325.36) rotate(-80.98)"/><rect class="cls-4" x="251.76" y="70.12" width="17.95" height="18.03" rx="2.05" ry="2.05" transform="translate(141.71 324.25) rotate(-80.98)"/><rect class="cls-5" x="252.58" y="70.94" width="16.31" height="16.39" rx="1.23" ry="1.23" transform="translate(141.71 324.25) rotate(-80.98)"/><rect class="cls-3" x="273.38" y="75.91" width="16.31" height="16.39" rx="1.23" ry="1.23" transform="translate(154.35 348.98) rotate(-80.98)"/><rect class="cls-4" x="272.81" y="73.46" width="17.95" height="18.03" rx="2.05" ry="2.05" transform="translate(156.17 347.86) rotate(-80.98)"/><rect class="cls-5" x="273.63" y="74.29" width="16.31" height="16.39" rx="1.23" ry="1.23" transform="translate(156.17 347.86) rotate(-80.98)"/><rect class="cls-3" x="49" y="61.5" width="16.31" height="16.39" rx="1.23" ry="1.23" transform="translate(-20.63 115.23) rotate(-80.98)"/><rect class="cls-4" x="48.44" y="59.06" width="17.95" height="18.03" rx="2.05" ry="2.05" transform="translate(-18.82 114.12) rotate(-80.98)"/><rect class="cls-5" x="49.26" y="59.88" width="16.31" height="16.39" rx="1.23" ry="1.23" transform="translate(-18.82 114.12) rotate(-80.98)"/><rect class="cls-3" x="70.06" y="64.84" width="16.31" height="16.39" rx="1.23" ry="1.23" transform="translate(-6.18 138.84) rotate(-80.98)"/><rect class="cls-4" x="69.49" y="62.4" width="17.95" height="18.03" rx="2.05" ry="2.05" transform="matrix(0.16, -0.99, 0.99, 0.16, -4.36, 137.73)"/><rect class="cls-5" x="70.32" y="63.22" width="16.31" height="16.39" rx="1.23" ry="1.23" transform="translate(-4.36 137.73) rotate(-80.98)"/><rect class="cls-3" x="91.11" y="68.18" width="16.31" height="16.39" rx="1.23" ry="1.23" transform="translate(8.28 162.45) rotate(-80.98)"/><rect class="cls-4" x="90.55" y="65.74" width="17.95" height="18.03" rx="2.05" ry="2.05" transform="translate(10.1 161.34) rotate(-80.98)"/><rect class="cls-5" x="91.37" y="66.56" width="16.31" height="16.39" rx="1.23" ry="1.23" transform="translate(10.1 161.34) rotate(-80.98)"/><rect class="cls-3" x="112.17" y="71.52" width="16.31" height="16.39" rx="1.23" ry="1.23" transform="translate(22.73 186.06) rotate(-80.98)"/><rect class="cls-4" x="111.6" y="69.08" width="17.95" height="18.03" rx="2.05" ry="2.05" transform="translate(24.55 184.95) rotate(-80.98)"/><rect class="cls-5" x="112.42" y="69.9" width="16.31" height="16.39" rx="1.23" ry="1.23" transform="translate(24.55 184.95) rotate(-80.98)"/><rect class="cls-3" x="133.22" y="74.86" width="16.31" height="16.39" rx="1.23" ry="1.23" transform="translate(37.19 209.68) rotate(-80.98)"/><rect class="cls-4" x="132.66" y="72.42" width="17.95" height="18.03" rx="2.05" ry="2.05" transform="translate(39.01 208.56) rotate(-80.98)"/><rect class="cls-5" x="133.48" y="73.24" width="16.31" height="16.39" rx="1.23" ry="1.23" transform="translate(39.01 208.56) rotate(-80.98)"/><rect class="cls-3" x="154.28" y="78.21" width="16.31" height="16.39" rx="1.23" ry="1.23" transform="translate(51.64 233.29) rotate(-80.98)"/><rect class="cls-4" x="153.71" y="75.76" width="17.95" height="18.03" rx="2.05" ry="2.05" transform="translate(53.46 232.17) rotate(-80.98)"/><rect class="cls-5" x="154.53" y="76.58" width="16.31" height="16.39" rx="1.23" ry="1.23" transform="translate(53.46 232.17) rotate(-80.98)"/><rect class="cls-3" x="175.33" y="81.55" width="16.31" height="16.39" rx="1.23" ry="1.23" transform="translate(66.1 256.9) rotate(-80.98)"/><rect class="cls-4" x="174.77" y="79.1" width="17.95" height="18.03" rx="2.05" ry="2.05" transform="translate(67.92 255.79) rotate(-80.98)"/><rect class="cls-5" x="175.59" y="79.93" width="16.31" height="16.39" rx="1.23" ry="1.23" transform="translate(67.92 255.79) rotate(-80.98)"/><rect class="cls-3" x="196.39" y="84.89" width="16.31" height="16.39" rx="1.23" ry="1.23" transform="translate(80.55 280.51) rotate(-80.98)"/><rect class="cls-4" x="195.82" y="82.44" width="17.95" height="18.03" rx="2.05" ry="2.05" transform="translate(82.37 279.4) rotate(-80.98)"/><rect class="cls-5" x="196.64" y="83.27" width="16.31" height="16.39" rx="1.23" ry="1.23" transform="translate(82.37 279.4) rotate(-80.98)"/><rect class="cls-3" x="217.44" y="88.23" width="16.31" height="16.39" rx="1.23" ry="1.23" transform="translate(95.01 304.12) rotate(-80.98)"/><rect class="cls-4" x="216.88" y="85.79" width="17.95" height="18.03" rx="2.05" ry="2.05" transform="translate(96.83 303.01) rotate(-80.98)"/><rect class="cls-5" x="217.7" y="86.61" width="16.31" height="16.39" rx="1.23" ry="1.23" transform="translate(96.83 303.01) rotate(-80.98)"/><rect class="cls-3" x="238.5" y="91.57" width="16.31" height="16.39" rx="1.23" ry="1.23" transform="translate(109.47 327.73) rotate(-80.98)"/><rect class="cls-4" x="237.93" y="89.13" width="17.95" height="18.03" rx="2.05" ry="2.05" transform="translate(111.28 326.62) rotate(-80.98)"/><rect class="cls-5" x="238.75" y="89.95" width="16.31" height="16.39" rx="1.23" ry="1.23" transform="translate(111.28 326.62) rotate(-80.98)"/><rect class="cls-3" x="259.55" y="94.91" width="16.31" height="16.39" rx="1.23" ry="1.23" transform="translate(123.92 351.35) rotate(-80.98)"/><rect class="cls-4" x="258.99" y="92.47" width="17.95" height="18.03" rx="2.05" ry="2.05" transform="translate(125.74 350.23) rotate(-80.98)"/><rect class="cls-5" x="259.81" y="93.29" width="16.31" height="16.39" rx="1.23" ry="1.23" transform="translate(125.74 350.23) rotate(-80.98)"/><rect class="cls-3" x="280.6" y="98.25" width="16.31" height="16.39" rx="1.23" ry="1.23" transform="translate(138.38 374.96) rotate(-80.98)"/><rect class="cls-4" x="280.04" y="95.81" width="17.95" height="18.03" rx="2.05" ry="2.05" transform="translate(140.2 373.84) rotate(-80.98)"/><rect class="cls-5" x="280.86" y="96.63" width="16.31" height="16.39" rx="1.23" ry="1.23" transform="translate(140.2 373.84) rotate(-80.98)"/><rect class="cls-3" x="299.9" y="74.57" width="16.31" height="27.48" rx="1.23" ry="1.23" transform="translate(172.56 378.73) rotate(-80.98)"/><rect class="cls-4" x="299.34" y="72.13" width="17.95" height="29.12" rx="2.05" ry="2.05" transform="translate(174.38 377.61) rotate(-80.98)"/><rect class="cls-5" x="300.16" y="72.95" width="16.31" height="27.48" rx="1.23" ry="1.23" transform="translate(174.38 377.61) rotate(-80.98)"/><rect class="cls-3" x="22.85" y="52.23" width="16.31" height="27.48" rx="1.23" ry="1.23" transform="translate(-39 86.25) rotate(-80.98)"/><rect class="cls-4" x="22.28" y="49.78" width="17.95" height="29.12" rx="2.05" ry="2.05" transform="translate(-37.18 85.13) rotate(-80.98)"/><rect class="cls-5" x="23.11" y="50.6" width="16.31" height="27.48" rx="1.23" ry="1.23" transform="translate(-37.18 85.13) rotate(-80.98)"/><rect class="cls-3" x="37.35" y="101.86" width="16.31" height="16.39" rx="1.23" ry="1.23" transform="translate(-70.32 137.75) rotate(-80.98)"/><rect class="cls-4" x="36.79" y="99.42" width="17.95" height="18.03" rx="2.05" ry="2.05" transform="translate(-68.5 136.64) rotate(-80.98)"/><rect class="cls-5" x="37.61" y="100.24" width="16.31" height="16.39" rx="1.23" ry="1.23" transform="translate(-68.5 136.64) rotate(-80.98)"/><rect class="cls-3" x="6.04" y="119.26" width="19.19" height="16.39" rx="1.23" ry="1.23" transform="translate(-112.7 122.93) rotate(-80.98)"/><rect class="cls-4" x="5.48" y="116.82" width="20.83" height="18.03" rx="2.05" ry="2.05" transform="translate(-110.88 121.81) rotate(-80.98)"/><rect class="cls-5" x="6.3" y="117.64" width="19.19" height="16.39" rx="1.23" ry="1.23" transform="translate(-110.88 121.81) rotate(-80.98)"/><rect class="cls-3" x="27.1" y="122.6" width="19.19" height="16.39" rx="1.23" ry="1.23" transform="translate(-98.24 146.54) rotate(-80.98)"/><rect class="cls-4" x="26.53" y="120.16" width="20.83" height="18.03" rx="2.05" ry="2.05" transform="translate(-96.43 145.43) rotate(-80.98)"/><rect class="cls-5" x="27.35" y="120.98" width="19.19" height="16.39" rx="1.23" ry="1.23" transform="translate(-96.43 145.43) rotate(-80.98)"/><rect class="cls-3" x="48.58" y="126.01" width="19.19" height="16.39" rx="1.23" ry="1.23" transform="translate(-83.49 170.64) rotate(-80.98)"/><rect class="cls-4" x="48.02" y="123.57" width="20.83" height="18.03" rx="2.05" ry="2.05" transform="translate(-81.67 169.52) rotate(-80.98)"/><rect class="cls-5" x="48.84" y="124.39" width="19.19" height="16.39" rx="1.23" ry="1.23" transform="translate(-81.67 169.52) rotate(-80.98)"/><rect class="cls-3" x="226.96" y="153.45" width="19.19" height="18.12" rx="1.23" ry="1.23" transform="translate(38.97 370.67) rotate(-80.98)"/><rect class="cls-4" x="226.39" y="151.01" width="20.83" height="19.76" rx="2.05" ry="2.05" transform="translate(40.79 369.56) rotate(-80.98)"/><rect class="cls-5" x="227.21" y="151.83" width="19.19" height="18.12" rx="1.23" ry="1.23" transform="translate(40.79 369.56) rotate(-80.98)"/><rect class="cls-3" x="269.63" y="161.11" width="19.19" height="16.35" rx="1.23" ry="1.23" transform="translate(68.27 418.53) rotate(-80.98)"/><path class="cls-4" d="M288.31,169.44A.41.41,0,0,0,288,169h0l-17-2.69a.4.4,0,0,0-.47.34l-1.25,7.86a2.06,2.06,0,0,0,1.71,2.35L284.71,179a2.06,2.06,0,0,0,2.35-1.71l1.24-7.81a.14.14,0,0,0,0,0A.14.14,0,0,0,288.31,169.44Z"/><path class="cls-4" d="M288,158.47l-13.72-2.18a2.06,2.06,0,0,0-2.35,1.71l-1.25,7.86a.4.4,0,0,0,.34.46L288,169h0a.41.41,0,0,0,.47-.34l1.25-7.85A2.06,2.06,0,0,0,288,158.47Z"/><path class="cls-5" d="M288.87,160.69l-1.23,7.78-16.15-2.56,1.23-7.78a1.23,1.23,0,0,1,1.41-1l13.72,2.18A1.23,1.23,0,0,1,288.87,160.69Z"/><path class="cls-5" d="M271.28,167.19l16.15,2.56-1.18,7.45a1.23,1.23,0,0,1-1.41,1L271.12,176a1.23,1.23,0,0,1-1-1.41Z"/><rect class="cls-3" x="72.48" y="127.02" width="19.19" height="21.96" rx="1.23" ry="1.23" transform="translate(-67.08 197.43) rotate(-80.98)"/><rect class="cls-4" x="71.92" y="124.58" width="20.83" height="23.6" rx="2.05" ry="2.05" transform="translate(-65.27 196.32) rotate(-80.98)"/><rect class="cls-5" x="72.74" y="125.4" width="19.19" height="21.96" rx="1.23" ry="1.23" transform="translate(-65.27 196.32) rotate(-80.98)"/><rect class="cls-3" x="202.68" y="147.68" width="19.19" height="21.96" rx="1.23" ry="1.23" transform="translate(22.31 343.45) rotate(-80.98)"/><rect class="cls-4" x="202.12" y="145.24" width="20.83" height="23.6" rx="2.05" ry="2.05" transform="translate(24.13 342.34) rotate(-80.98)"/><rect class="cls-5" x="202.94" y="146.06" width="19.19" height="21.96" rx="1.23" ry="1.23" transform="matrix(0.16, -0.99, 0.99, 0.16, 24.13, 342.34)"/><rect class="cls-3" x="137.76" y="97.53" width="19.19" height="101.66" rx="1.23" ry="1.23" transform="translate(-22.27 270.64) rotate(-80.98)"/><rect class="cls-4" x="137.2" y="95.09" width="20.83" height="103.31" rx="2.05" ry="2.05" transform="translate(-20.45 269.53) rotate(-80.98)"/><rect class="cls-5" x="138.02" y="95.91" width="19.19" height="101.66" rx="1.23" ry="1.23" transform="translate(-20.45 269.53) rotate(-80.98)"/><rect class="cls-3" x="58.41" y="105.2" width="16.31" height="16.39" rx="1.23" ry="1.23" transform="translate(-55.86 161.36) rotate(-80.98)"/><rect class="cls-4" x="57.84" y="102.76" width="17.95" height="18.03" rx="2.05" ry="2.05" transform="matrix(0.16, -0.99, 0.99, 0.16, -54.05, 160.25)"/><rect class="cls-5" x="58.66" y="103.58" width="16.31" height="16.39" rx="1.23" ry="1.23" transform="translate(-54.05 160.25) rotate(-80.98)"/><rect class="cls-3" x="79.46" y="108.54" width="16.31" height="16.39" rx="1.23" ry="1.23" transform="translate(-41.41 184.98) rotate(-80.98)"/><rect class="cls-4" x="78.9" y="106.1" width="17.95" height="18.03" rx="2.05" ry="2.05" transform="translate(-39.59 183.86) rotate(-80.98)"/><rect class="cls-5" x="79.72" y="106.92" width="16.31" height="16.39" rx="1.23" ry="1.23" transform="translate(-39.59 183.86) rotate(-80.98)"/><rect class="cls-3" x="100.51" y="111.88" width="16.31" height="16.39" rx="1.23" ry="1.23" transform="translate(-26.95 208.59) rotate(-80.98)"/><rect class="cls-4" x="99.95" y="109.44" width="17.95" height="18.03" rx="2.05" ry="2.05" transform="translate(-25.13 207.48) rotate(-80.98)"/><rect class="cls-5" x="100.77" y="110.26" width="16.31" height="16.39" rx="1.23" ry="1.23" transform="translate(-25.14 207.47) rotate(-80.98)"/><rect class="cls-3" x="121.57" y="115.22" width="16.31" height="16.39" rx="1.23" ry="1.23" transform="translate(-12.5 232.2) rotate(-80.98)"/><rect class="cls-4" x="121.01" y="112.78" width="17.95" height="18.03" rx="2.05" ry="2.05" transform="translate(-10.68 231.09) rotate(-80.98)"/><rect class="cls-5" x="121.83" y="113.6" width="16.31" height="16.39" rx="1.23" ry="1.23" transform="translate(-10.68 231.09) rotate(-80.98)"/><rect class="cls-3" x="142.62" y="118.56" width="16.31" height="16.39" rx="1.23" ry="1.23" transform="translate(1.96 255.81) rotate(-80.98)"/><rect class="cls-4" x="142.06" y="116.12" width="17.95" height="18.03" rx="2.05" ry="2.05" transform="translate(3.78 254.7) rotate(-80.98)"/><rect class="cls-5" x="142.88" y="116.94" width="16.31" height="16.39" rx="1.23" ry="1.23" transform="matrix(0.16, -0.99, 0.99, 0.16, 3.78, 254.7)"/><rect class="cls-3" x="163.68" y="121.9" width="16.31" height="16.39" rx="1.23" ry="1.23" transform="translate(16.41 279.42) rotate(-80.98)"/><rect class="cls-4" x="163.11" y="119.46" width="17.95" height="18.03" rx="2.05" ry="2.05" transform="translate(18.23 278.31) rotate(-80.98)"/><rect class="cls-5" x="163.94" y="120.28" width="16.31" height="16.39" rx="1.23" ry="1.23" transform="translate(18.23 278.31) rotate(-80.98)"/><rect class="cls-3" x="184.73" y="125.25" width="16.31" height="16.39" rx="1.23" ry="1.23" transform="translate(30.87 303.04) rotate(-80.98)"/><rect class="cls-4" x="184.17" y="122.8" width="17.95" height="18.03" rx="2.05" ry="2.05" transform="translate(32.69 301.92) rotate(-80.98)"/><rect class="cls-5" x="184.99" y="123.62" width="16.31" height="16.39" rx="1.23" ry="1.23" transform="translate(32.69 301.92) rotate(-80.98)"/><rect class="cls-3" x="205.79" y="128.59" width="16.31" height="16.39" rx="1.23" ry="1.23" transform="translate(45.32 326.65) rotate(-80.98)"/><rect class="cls-4" x="205.22" y="126.14" width="17.95" height="18.03" rx="2.05" ry="2.05" transform="translate(47.14 325.53) rotate(-80.98)"/><rect class="cls-5" x="206.05" y="126.96" width="16.31" height="16.39" rx="1.23" ry="1.23" transform="matrix(0.16, -0.99, 0.99, 0.16, 47.14, 325.53)"/><rect class="cls-3" x="226.84" y="131.93" width="16.31" height="16.39" rx="1.23" ry="1.23" transform="translate(59.78 350.26) rotate(-80.98)"/><rect class="cls-4" x="226.28" y="129.48" width="17.95" height="18.03" rx="2.05" ry="2.05" transform="translate(61.6 349.15) rotate(-80.98)"/><rect class="cls-5" x="227.1" y="130.31" width="16.31" height="16.39" rx="1.23" ry="1.23" transform="translate(61.6 349.15) rotate(-80.98)"/><rect class="cls-3" x="247.9" y="135.27" width="16.31" height="16.39" rx="1.23" ry="1.23" transform="translate(74.24 373.87) rotate(-80.98)"/><rect class="cls-4" x="247.33" y="132.82" width="17.95" height="18.03" rx="2.05" ry="2.05" transform="translate(76.05 372.76) rotate(-80.98)"/><rect class="cls-5" x="248.15" y="133.65" width="16.31" height="16.39" rx="1.23" ry="1.23" transform="translate(76.05 372.76) rotate(-80.98)"/><rect class="cls-3" x="13.48" y="95.82" width="16.31" height="21.73" rx="1.23" ry="1.23" transform="translate(-87.12 111.33) rotate(-80.98)"/><rect class="cls-4" x="12.91" y="93.38" width="17.95" height="23.37" rx="2.05" ry="2.05" transform="matrix(0.16, -0.99, 0.99, 0.16, -85.3, 110.22)"/><rect class="cls-5" x="13.74" y="94.2" width="16.31" height="21.73" rx="1.23" ry="1.23" transform="translate(-85.3 110.22) rotate(-80.98)"/><rect class="cls-3" x="50.67" y="82.82" width="16.31" height="16.39" rx="1.23" ry="1.23" transform="translate(-40.28 134.85) rotate(-80.98)"/><rect class="cls-4" x="50.1" y="80.37" width="17.95" height="18.03" rx="2.05" ry="2.05" transform="translate(-38.46 133.73) rotate(-80.98)"/><rect class="cls-5" x="50.92" y="81.19" width="16.31" height="16.39" rx="1.23" ry="1.23" transform="translate(-38.46 133.73) rotate(-80.98)"/><rect class="cls-3" x="71.72" y="86.16" width="16.31" height="16.39" rx="1.23" ry="1.23" transform="translate(-25.83 158.46) rotate(-80.98)"/><rect class="cls-4" x="71.16" y="83.71" width="17.95" height="18.03" rx="2.05" ry="2.05" transform="matrix(0.16, -0.99, 0.99, 0.16, -24.01, 157.34)"/><rect class="cls-5" x="71.98" y="84.54" width="16.31" height="16.39" rx="1.23" ry="1.23" transform="translate(-24.01 157.34) rotate(-80.98)"/><rect class="cls-3" x="92.78" y="89.5" width="16.31" height="16.39" rx="1.23" ry="1.23" transform="translate(-11.37 182.07) rotate(-80.98)"/><rect class="cls-4" x="92.21" y="87.05" width="17.95" height="18.03" rx="2.05" ry="2.05" transform="translate(-9.55 180.96) rotate(-80.98)"/><rect class="cls-5" x="93.03" y="87.88" width="16.31" height="16.39" rx="1.23" ry="1.23" transform="translate(-9.55 180.96) rotate(-80.98)"/><rect class="cls-3" x="113.83" y="92.84" width="16.31" height="16.39" rx="1.23" ry="1.23" transform="translate(3.08 205.68) rotate(-80.98)"/><rect class="cls-4" x="113.27" y="90.4" width="17.95" height="18.03" rx="2.05" ry="2.05" transform="translate(4.9 204.57) rotate(-80.98)"/><rect class="cls-5" x="114.09" y="91.22" width="16.31" height="16.39" rx="1.23" ry="1.23" transform="translate(4.9 204.57) rotate(-80.98)"/><rect class="cls-3" x="134.89" y="96.18" width="16.31" height="16.39" rx="1.23" ry="1.23" transform="matrix(0.16, -0.99, 0.99, 0.16, 17.54, 229.29)"/><rect class="cls-4" x="134.32" y="93.74" width="17.95" height="18.03" rx="2.05" ry="2.05" transform="translate(19.36 228.18) rotate(-80.98)"/><rect class="cls-5" x="135.14" y="94.56" width="16.31" height="16.39" rx="1.23" ry="1.23" transform="translate(19.36 228.18) rotate(-80.98)"/><rect class="cls-3" x="155.94" y="99.52" width="16.31" height="16.39" rx="1.23" ry="1.23" transform="translate(31.99 252.9) rotate(-80.98)"/><rect class="cls-4" x="155.38" y="97.08" width="17.95" height="18.03" rx="2.05" ry="2.05" transform="translate(33.81 251.79) rotate(-80.98)"/><rect class="cls-5" x="156.2" y="97.9" width="16.31" height="16.39" rx="1.23" ry="1.23" transform="translate(33.81 251.79) rotate(-80.98)"/><rect class="cls-3" x="176.99" y="102.86" width="16.31" height="16.39" rx="1.23" ry="1.23" transform="matrix(0.16, -0.99, 0.99, 0.16, 46.45, 276.52)"/><rect class="cls-4" x="176.43" y="100.42" width="17.95" height="18.03" rx="2.05" ry="2.05" transform="translate(48.27 275.4) rotate(-80.98)"/><rect class="cls-5" x="177.25" y="101.24" width="16.31" height="16.39" rx="1.23" ry="1.23" transform="translate(48.27 275.4) rotate(-80.98)"/><rect class="cls-3" x="198.05" y="106.2" width="16.31" height="16.39" rx="1.23" ry="1.23" transform="matrix(0.16, -0.99, 0.99, 0.16, 60.91, 300.13)"/><rect class="cls-4" x="197.49" y="103.76" width="17.95" height="18.03" rx="2.05" ry="2.05" transform="translate(62.72 299.01) rotate(-80.98)"/><rect class="cls-5" x="198.31" y="104.58" width="16.31" height="16.39" rx="1.23" ry="1.23" transform="translate(62.72 299.01) rotate(-80.98)"/><rect class="cls-3" x="219.1" y="109.54" width="16.31" height="16.39" rx="1.23" ry="1.23" transform="translate(75.36 323.74) rotate(-80.98)"/><rect class="cls-4" x="218.54" y="107.1" width="17.95" height="18.03" rx="2.05" ry="2.05" transform="translate(77.18 322.63) rotate(-80.98)"/><rect class="cls-5" x="219.36" y="107.92" width="16.31" height="16.39" rx="1.23" ry="1.23" transform="translate(77.18 322.63) rotate(-80.98)"/><rect class="cls-3" x="240.16" y="112.88" width="16.31" height="16.39" rx="1.23" ry="1.23" transform="translate(89.82 347.35) rotate(-80.98)"/><rect class="cls-4" x="239.59" y="110.44" width="17.95" height="18.03" rx="2.05" ry="2.05" transform="translate(91.64 346.24) rotate(-80.98)"/><rect class="cls-5" x="240.42" y="111.26" width="16.31" height="16.39" rx="1.23" ry="1.23" transform="translate(91.64 346.24) rotate(-80.98)"/><rect class="cls-3" x="261.21" y="116.22" width="16.31" height="16.39" rx="1.23" ry="1.23" transform="translate(104.27 370.96) rotate(-80.98)"/><rect class="cls-4" x="260.65" y="113.78" width="17.95" height="18.03" rx="2.05" ry="2.05" transform="translate(106.09 369.85) rotate(-80.98)"/><rect class="cls-5" x="261.47" y="114.6" width="16.31" height="16.39" rx="1.23" ry="1.23" transform="translate(106.09 369.85) rotate(-80.98)"/><rect class="cls-3" x="282.27" y="119.57" width="16.31" height="16.39" rx="1.23" ry="1.23" transform="translate(118.73 394.57) rotate(-80.98)"/><rect class="cls-4" x="281.7" y="117.12" width="17.95" height="18.03" rx="2.05" ry="2.05" transform="translate(120.55 393.46) rotate(-80.98)"/><rect class="cls-5" x="282.53" y="117.94" width="16.31" height="16.39" rx="1.23" ry="1.23" transform="translate(120.55 393.46) rotate(-80.98)"/><path class="cls-3" d="M318.35,102.88l-8.81-1.4-4.94-.78a1.23,1.23,0,0,0-1.41,1L301,115.4a1.23,1.23,0,0,0,1,1.41l3.73.59-3.07,19.32a1.23,1.23,0,0,0,1,1.41l8.81,1.4a1.23,1.23,0,0,0,1.41-1L317.2,118l2.17-13.68A1.23,1.23,0,0,0,318.35,102.88Z"/><path class="cls-4" d="M318.74,100.45l-8.81-1.4L305,98.27a2.06,2.06,0,0,0-2.35,1.71l-2.17,13.68a2.06,2.06,0,0,0,1.71,2.35l2.92.46L302.15,135a2.06,2.06,0,0,0,1.71,2.35l8.81,1.4A2.06,2.06,0,0,0,315,137l3.26-20.53,2.17-13.68A2.06,2.06,0,0,0,318.74,100.45Z"/><path class="cls-5" d="M318.61,101.26l-8.81-1.4-4.94-.78a1.23,1.23,0,0,0-1.41,1l-2.17,13.68a1.23,1.23,0,0,0,1,1.41l3.73.59L303,135.1a1.23,1.23,0,0,0,1,1.41l8.81,1.4a1.23,1.23,0,0,0,1.41-1l3.26-20.53,2.17-13.68A1.23,1.23,0,0,0,318.61,101.26Z"/><rect class="cls-3" x="22.01" y="70.7" width="16.31" height="32.37" rx="1.23" ry="1.23" transform="translate(-60.37 103.06) rotate(-80.98)"/><rect class="cls-4" x="21.44" y="68.25" width="17.95" height="34.01" rx="2.05" ry="2.05" transform="matrix(0.16, -0.99, 0.99, 0.16, -58.55, 101.94)"/><rect class="cls-5" x="22.26" y="69.07" width="16.31" height="32.37" rx="1.23" ry="1.23" transform="translate(-58.55 101.94) rotate(-80.98)"/><rect class="cls-3" x="282.33" y="127.4" width="16.31" height="43.06" rx="1.23" ry="1.23" transform="translate(97.88 412.49) rotate(-80.98)"/><rect class="cls-4" x="281.77" y="124.95" width="17.95" height="44.7" rx="2.05" ry="2.05" transform="translate(99.7 411.38) rotate(-80.98)"/><rect class="cls-5" x="282.59" y="125.78" width="16.31" height="43.06" rx="1.23" ry="1.23" transform="translate(99.7 411.38) rotate(-80.98)"/><path class="cls-6" d="M313,179.78l-.37,2.3a8,8,0,0,1-9.08,6.59L6.69,141.57A8,8,0,0,1,.1,132.49l.37-2.3a8,8,0,0,0,6.59,9.08L304,186.38A8,8,0,0,0,313,179.78Z"/><path class="cls-7" d="M331.45,48.9,23.48,0A2.34,2.34,0,0,0,20.81,2L.46,130.19a8,8,0,0,0,6.59,9.08L304,186.38a8,8,0,0,0,9.08-6.59L333.39,51.57A2.34,2.34,0,0,0,331.45,48.9ZM312.12,179.64a7,7,0,0,1-8,5.82L7.2,138.34a7,7,0,0,1-5.82-8L21.73,2.11A1.4,1.4,0,0,1,23.33,1l308,48.87a1.4,1.4,0,0,1,1.16,1.6Z"/><path class="cls-4" d="M59.19,71.14a16.22,16.22,0,0,1-1.5-.78,1,1,0,0,0-.26-.1A1.91,1.91,0,0,1,56,67.91a2,2,0,0,1,2.28-1.83,2.14,2.14,0,0,1,.2,4.06v0c.33.15.71.3,1,.42Zm-1.53-1.45c.71.11,1.23-.49,1.36-1.34s-.14-1.56-.88-1.67-1.25.53-1.38,1.35.17,1.55.89,1.67Z"/><path class="cls-4" d="M50,48.58h0l-.78.25,0-.58,1-.32.62.1-.62,3.92-.72-.11Z"/><path class="cls-4" d="M69.34,55l.07-.45.53-.35c1.06-.71,1.57-1.11,1.66-1.63a.63.63,0,0,0-.6-.77,1.44,1.44,0,0,0-.89.19L70,51.4a2,2,0,0,1,1.27-.21,1.18,1.18,0,0,1,1.1,1.39c-.11.69-.69,1.16-1.47,1.69l-.39.24h0l1.61.26-.1.62Z"/><path class="cls-4" d="M90.59,57.56a2,2,0,0,0,.85.38c.57.09.85-.19.89-.5.07-.47-.33-.73-.78-.8l-.34-.05.09-.54.33.05c.34.05.8,0,.87-.43s-.12-.52-.55-.59a1.6,1.6,0,0,0-.84.12L91,54.63a2.14,2.14,0,0,1,1.18-.12c.81.13,1.15.64,1.07,1.15a1,1,0,0,1-.87.8h0a1,1,0,0,1,.71,1.11c-.11.66-.74,1.1-1.71.95a2.18,2.18,0,0,1-1.06-.45Z"/><path class="cls-4" d="M113.33,62l.16-1-1.77-.28.08-.48,2-2.19.88.14-.38,2.37.51.08-.09.56-.51-.08-.16,1Zm.25-1.56.17-1.07c0-.22.08-.45.13-.68h0c-.16.23-.29.41-.45.61l-.89,1h0Z"/><path class="cls-4" d="M135.42,62.07l-1.51-.24-.24.77.29,0a1.78,1.78,0,0,1,.91.4,1.14,1.14,0,0,1,.36,1.08,1.45,1.45,0,0,1-1.8,1.11,2.28,2.28,0,0,1-1-.39l.24-.54a2,2,0,0,0,.83.34.77.77,0,0,0,1-.58c.07-.45-.21-.79-1-.92a3.3,3.3,0,0,0-.54,0l.57-1.94,2,.32Z"/><path class="cls-4" d="M156.3,65.29a3,3,0,0,0-.38,0,1.41,1.41,0,0,0-1.5.94h0a1.15,1.15,0,0,1,.94-.24,1.2,1.2,0,0,1,1,1.47,1.38,1.38,0,0,1-1.6,1.18,1.51,1.51,0,0,1-1.21-1.92,2.44,2.44,0,0,1,1-1.65,2.3,2.3,0,0,1,1.49-.36,2.2,2.2,0,0,1,.38,0ZM154.86,68c.38.06.68-.23.75-.7a.69.69,0,0,0-.56-.89.73.73,0,0,0-.7.3.52.52,0,0,0-.09.23c-.07.52.11,1,.59,1.06Z"/><path class="cls-4" d="M177.66,68.14l-.08.48-2.21,3.18-.78-.12,2.18-3h0l-1.85-.29.1-.62Z"/><path class="cls-4" d="M196.47,73a1,1,0,0,1-.46-1,1.18,1.18,0,0,1,1.48-.87c.84.13,1.15.7,1.07,1.18a1,1,0,0,1-.74.79v0a1.07,1.07,0,0,1,.59,1.11,1.27,1.27,0,0,1-1.62.94c-.92-.15-1.31-.75-1.22-1.3a1.1,1.1,0,0,1,.9-.9Zm1.17,1.21c.06-.4-.2-.66-.61-.85a.73.73,0,0,0-.69.6.63.63,0,0,0,.56.74A.6.6,0,0,0,197.64,74.26Zm-.92-2.09c-.05.32.18.55.54.72a.64.64,0,0,0,.58-.51.53.53,0,0,0-.47-.64A.53.53,0,0,0,196.72,72.17Z"/><path class="cls-4" d="M217,77.85a2,2,0,0,0,.41.05,1.5,1.5,0,0,0,.84-.17,1.48,1.48,0,0,0,.64-.79h0a1.1,1.1,0,0,1-.91.21,1.17,1.17,0,0,1-1-1.41,1.41,1.41,0,0,1,1.64-1.17c.91.14,1.29.94,1.13,1.89a2.45,2.45,0,0,1-1,1.71,2.18,2.18,0,0,1-1.42.32,3,3,0,0,1-.45-.06Zm1.49-2.74c-.37-.06-.69.23-.77.71a.66.66,0,0,0,.53.82.72.72,0,0,0,.68-.23.44.44,0,0,0,.08-.2c.09-.53,0-1-.52-1.1Z"/><path class="cls-4" d="M240.63,80.12c-.2,1.26-.82,2-1.76,1.83s-1.26-1-1.07-2.24.84-2,1.76-1.81S240.82,79,240.63,80.12Zm-2.08-.29c-.16,1,0,1.49.44,1.55s.75-.43.9-1.37,0-1.48-.43-1.55S238.7,78.84,238.55,79.83Z"/><path class="cls-4" d="M59.08,90.15l-.53,1.1-.77-.12,1.95-3.86.95.15.68,4.28-.8-.13-.18-1.21Zm1.25-.38-.16-1.05c0-.26-.06-.55-.08-.79h0c-.1.23-.2.5-.31.73l-.47,1Z"/><path class="cls-4" d="M65.2,112.77l2.56-2.69v0l-1.89-.3.1-.62,2.86.45-.07.44-2.53,2.67v0l2.08.33-.1.62-3.08-.49Z"/><path class="cls-4" d="M88.54,116.89l-.31-.88c-.12-.34-.21-.58-.28-.83h0c-.13.22-.28.42-.49.71l-.53.74-.85-.13,1.53-1.87-.84-2.19.85.14.31.91c.09.28.16.49.23.74h0c.15-.24.26-.4.43-.63l.57-.77L90,113l-1.5,1.8L89.4,117Z"/><path class="cls-4" d="M110.29,120.22a2.58,2.58,0,0,1-1.08,0,2,2,0,0,1-1.75-2.38,2.07,2.07,0,0,1,2.51-1.8,2.37,2.37,0,0,1,1,.34l-.26.57a2,2,0,0,0-.77-.28,1.37,1.37,0,0,0-1.66,1.27,1.35,1.35,0,0,0,1.19,1.69,2.1,2.1,0,0,0,.83,0Z"/><path class="cls-4" d="M129.08,123.32l-.67-4.28.81.13.26,1.93c.07.54.13,1,.16,1.55h0c.19-.46.41-.94.65-1.41l.89-1.77.79.13-2.05,3.84Z"/><path class="cls-4" d="M150,122.52a6.28,6.28,0,0,1,1.09.09,1.94,1.94,0,0,1,1.12.44.87.87,0,0,1,.3.83,1,1,0,0,1-.82.77h0a1,1,0,0,1,.66,1.14,1.07,1.07,0,0,1-.53.78,2.29,2.29,0,0,1-1.57.14,7.4,7.4,0,0,1-.9-.2Zm.48,1.72.38.06c.51.08.84-.11.9-.46s-.2-.6-.67-.68a2.1,2.1,0,0,0-.43,0Zm-.3,1.87a2.71,2.71,0,0,0,.39.08c.48.08.93,0,1-.54s-.3-.73-.82-.81l-.37-.06Z"/><path class="cls-4" d="M170,129.82l.65-4.07.84.13.77,1.91a11.2,11.2,0,0,1,.48,1.47h0c0-.55.1-1.08.2-1.7l.22-1.42.69.11-.65,4.07-.77-.12-.78-2a13.37,13.37,0,0,1-.51-1.52h0c-.05.53-.13,1.07-.24,1.74l-.23,1.45Z"/><path class="cls-4" d="M194.22,132c.06-.53.13-1.17.22-1.72h0c-.21.48-.47,1-.73,1.49l-.87,1.67-.57-.09-.27-1.82c-.08-.54-.13-1.12-.16-1.65h0c-.1.53-.23,1.18-.35,1.73l-.35,1.62-.69-.11.92-4,1,.16.27,1.72c.07.5.12,1,.15,1.47h0c.18-.42.4-.9.63-1.35l.82-1.54,1,.15-.41,4.1-.72-.11Z"/><path class="cls-4" d="M79.52,93.74a2.08,2.08,0,0,0,.94.41c.48.08.78-.11.83-.44s-.13-.52-.62-.79-1-.77-.91-1.36a1.28,1.28,0,0,1,1.62-.94,2.18,2.18,0,0,1,.94.36l-.28.57a1.75,1.75,0,0,0-.78-.32c-.47-.07-.72.15-.75.38s.16.5.67.79c.66.38,1,.79.86,1.37s-.69,1.15-1.74,1a2.44,2.44,0,0,1-1.06-.43Z"/><path class="cls-4" d="M102,98.81a16.48,16.48,0,0,1-1.5-.78,1.07,1.07,0,0,0-.26-.1,1.91,1.91,0,0,1-1.45-2.35,2,2,0,0,1,2.28-1.83,2.14,2.14,0,0,1,.2,4.06v0c.33.15.71.3,1,.42Zm-1.53-1.45c.71.11,1.23-.49,1.36-1.34s-.14-1.56-.88-1.67-1.25.53-1.38,1.35.17,1.56.89,1.67Z"/><path class="cls-4" d="M121.89,97.13l2.35.37-.1.61-1.61-.25L122.36,99l1.5.24-.1.61-1.5-.24-.27,1.73-.74-.12Z"/><path class="cls-4" d="M145.18,104.8a4.06,4.06,0,0,1-1.34,0,2.22,2.22,0,0,1-1.51-.8,2,2,0,0,1-.33-1.59,2.09,2.09,0,0,1,2.6-1.75,2.71,2.71,0,0,1,1,.36l-.26.57a2.21,2.21,0,0,0-.9-.32,1.38,1.38,0,0,0-1.71,1.23,1.36,1.36,0,0,0,1.18,1.7,1.46,1.46,0,0,0,.57,0l.16-1-.72-.11.09-.58,1.44.23Z"/><path class="cls-4" d="M164.44,103.88l-.26,1.63,1.72.27.26-1.63.74.12-.65,4.07-.74-.12.28-1.79-1.72-.27-.28,1.79-.74-.12.65-4.07Z"/><path class="cls-4" d="M186.11,107.32l.74.12-.42,2.64c-.18,1.12-.78,1.41-1.59,1.28a2,2,0,0,1-.61-.19l.19-.58a1.63,1.63,0,0,0,.45.15c.42.07.71-.09.82-.79Z"/><path class="cls-4" d="M206,110.47l.74.12-.3,1.87h0c.12-.14.25-.27.37-.39l1.29-1.26.92.15-1.67,1.51,1.12,2.57-.87-.14-.86-2-.43.38-.23,1.43-.74-.12Z"/><path class="cls-4" d="M227.08,113.82l.74.12-.55,3.45,1.67.27-.1.62-2.41-.38Z"/><path class="cls-4" d="M249.59,115.57a.45.45,0,0,1-.38-.54.46.46,0,1,1,.92.15.45.45,0,0,1-.53.4Zm-.32,2a.48.48,0,1,1,.54-.4.45.45,0,0,1-.54.4Z"/><path class="cls-4" d="M247.27,125.58a8.73,8.73,0,0,0,.66-1.53l.79.06a8.06,8.06,0,0,1-.93,1.5Zm1.18-2.58a.44.44,0,0,1-.37-.54.46.46,0,1,1,.38.54Z"/><path class="cls-4" d="M213,131l3.08-.93-.09.54-2.43.7h0l2.1,1.42-.09.54-2.64-1.84Z"/><path class="cls-4" d="M212.19,141.07a10,10,0,0,0,.66-1.53l.79.06a7.69,7.69,0,0,1-.93,1.5Z"/><path class="cls-4" d="M44.86,105.68c.1-.72.5-1,1-.91a1.76,1.76,0,0,1,.8.42,1.62,1.62,0,0,0,.62.35c.17,0,.3-.11.36-.45l.48.08c-.09.78-.5,1-.92.92a1.89,1.89,0,0,1-.81-.42,1.63,1.63,0,0,0-.6-.36c-.17,0-.32.08-.39.46Z"/><path class="cls-4" d="M45.58,110.33l.38,1-.52-.08-.59-1Z"/><path class="cls-4" d="M236.92,135.21l-3.08.92.09-.54,2.47-.7h0l-2.14-1.43.09-.54,2.64,1.83Z"/><path class="cls-4" d="M234.13,143.87a.48.48,0,1,1,.54-.4.45.45,0,0,1-.54.4Z"/><path class="cls-4" d="M256.14,138.39v-.15a1.34,1.34,0,0,1,.52-.93,1.25,1.25,0,0,0,.49-.66c0-.25-.09-.45-.43-.51a1.08,1.08,0,0,0-.63.08l-.1-.56a1.86,1.86,0,0,1,1-.1c.75.12,1,.61.95,1.09a1.6,1.6,0,0,1-.69.95,1.14,1.14,0,0,0-.45.76v.13Zm.09,1.36a.48.48,0,1,1,.54-.4.45.45,0,0,1-.54.4Z"/><path class="cls-4" d="M254.2,147.23l2.17-4.14.52.08-2.17,4.14Z"/><path class="cls-4" d="M282.77,78l-.22,1.36,1.31.21-.07.47-1.31-.21-.22,1.37-.49-.08.22-1.37-1.31-.21.07-.47,1.31.21.22-1.36Z"/><path class="cls-4" d="M279.6,86.38l.08-.48,3.11.49-.08.48Zm-.19,1.22.07-.47,3.11.49-.07.47Z"/><path class="cls-4" d="M262.54,78.17l-.06.4-3-.48.06-.4Z"/><path class="cls-4" d="M239.17,75.47a8.07,8.07,0,0,0,1-6.42l.54.09a6.58,6.58,0,0,1,.23,3.33,6.67,6.67,0,0,1-1.25,3.09Z"/><path class="cls-4" d="M220.69,66a8,8,0,0,0-1,6.42l-.54-.09a6.67,6.67,0,0,1-.22-3.31,6.83,6.83,0,0,1,1.24-3.11Z"/><path class="cls-4" d="M199.58,63l-.77.9v0l1-.06-.11.68-.92-.34v0l.47,1.06-.52.27-.17-1.23h0L198,65.47l-.38-.43.76-.88v0l-1,.05.11-.68.88.35v0l-.45-1.08.51-.28.17,1.22h0l.53-1.11Z"/><path class="cls-4" d="M177.9,64.79c-.08-.15-.16-.3-.25-.49a1.51,1.51,0,0,1-1.23.35,1.39,1.39,0,0,1-1.11-1.72,1.82,1.82,0,0,1,1-1.42v0a2.06,2.06,0,0,1-.16-1.12,1.26,1.26,0,0,1,1.36-1.19,1.08,1.08,0,0,1,.82,1.36,1.6,1.6,0,0,1-1.06,1.26v0c.22.47.45,1,.63,1.35a4.74,4.74,0,0,0,.59-1.36l.66.11a4.77,4.77,0,0,1-1,1.9c.17.36.34.72.54,1.11ZM176.65,64a.86.86,0,0,0,.73-.26c-.19-.38-.49-1-.78-1.64a1.18,1.18,0,0,0-.56.83c-.08.53.14,1,.6,1.07Zm.76-4.16c-.28,0-.48.25-.53.58a1.49,1.49,0,0,0,.16.9,1.16,1.16,0,0,0,.69-.82c0-.28,0-.62-.31-.66Z"/><path class="cls-4" d="M157,55.81l.4,1.26L156.9,57l-.21-.77h0l-.44.67-.51-.08.77-1.08Z"/><path class="cls-4" d="M134.41,52.53c.62.1.89.77.74,1.68-.17,1.08-.74,1.56-1.28,1.48S133,55,133.12,54s.68-1.55,1.29-1.45Zm-.11.54c-.3,0-.52.39-.61,1s0,1.05.29,1.1.51-.34.6-1,0-1-.28-1.1Zm-.76,4.78,3.13-5,.42.07-3.13,5Zm3.24-2.76c.61.1.89.77.74,1.69-.17,1.08-.74,1.56-1.28,1.47s-.91-.71-.75-1.71.68-1.55,1.28-1.45Zm-.11.55c-.29,0-.52.39-.61,1s0,1.05.29,1.1.51-.34.61-1,0-1-.28-1.1Z"/><path class="cls-4" d="M113.82,55.32l.12-.77A1.69,1.69,0,0,1,113,54l.28-.72a1.6,1.6,0,0,0,.89.5.61.61,0,0,0,.74-.53c.06-.36-.12-.62-.53-.9a1.51,1.51,0,0,1-.82-1.58,1.3,1.3,0,0,1,1.19-1.19l.12-.78.49.08-.12.74a1.6,1.6,0,0,1,.79.39l-.28.7a1.51,1.51,0,0,0-.78-.4.53.53,0,0,0-.66.46c-.05.32.14.54.61.89a1.5,1.5,0,0,1,.75,1.62,1.36,1.36,0,0,1-1.24,1.25l-.13.82Z"/><path class="cls-4" d="M91.79,51.13l.39-1.45-.49-.08.1-.62.57.09.27-1L92.1,48l.1-.61.59.09.39-1.42.45.07-.38,1.42.58.09.39-1.42.45.07-.38,1.42.49.08-.1.61-.56-.09-.26,1,.51.08-.1.61-.59-.09-.39,1.46-.46-.07.39-1.46-.58-.09-.39,1.46Zm1.61-1.89.26-1-.59-.09-.26,1Z"/><path class="cls-4" d="M73.13,48.71a3.69,3.69,0,0,1-1.61.05,2.54,2.54,0,0,1-2.27-2.92,3.08,3.08,0,0,1,3.68-2.52A2.37,2.37,0,0,1,75.13,46a1.7,1.7,0,0,1-1.89,1.63.64.64,0,0,1-.6-.76h0a1.34,1.34,0,0,1-1.26.47,1,1,0,0,1-.8-1.17,2,2,0,0,1,2.34-1.54,2.63,2.63,0,0,1,1,.34l-.51,1.41c-.19.51-.15.77.11.81s1-.33,1.1-1.24a1.88,1.88,0,0,0-1.78-2.23,2.49,2.49,0,0,0-2.94,2.14,2.06,2.06,0,0,0,1.88,2.46A3.11,3.11,0,0,0,73,48.28ZM73,45.27a1.2,1.2,0,0,0-1.72,1,.48.48,0,0,0,.4.62c.41.06.87-.35,1-.8Z"/><path class="cls-4" d="M50.85,44.72a.63.63,0,0,1,.2-1.23.63.63,0,0,1-.2,1.24Zm-.08-1.79.45-3.71,1,.16L51.49,43Z"/><path class="cls-4" d="M261.1,82.47,261,83l-1.54-.24.08-.51Z"/><path class="cls-4" d="M268,97.07c.42.06.51-.16.54-.35a4.46,4.46,0,0,0,0-.49,3.65,3.65,0,0,1,0-.5c.09-.56.49-.74,1-.66l.18,0-.07.43-.11,0c-.32,0-.45.11-.5.4a2.25,2.25,0,0,0,0,.39c0,.13,0,.28,0,.44-.06.42-.27.58-.59.6h0a.6.6,0,0,1,.38.76c0,.16-.07.3-.11.43a2.18,2.18,0,0,0-.1.37c0,.3,0,.49.35.54l.11,0-.07.43-.18,0c-.52-.08-.86-.36-.77-1a3.66,3.66,0,0,1,.12-.48,4.17,4.17,0,0,0,.11-.47c0-.17,0-.43-.4-.5Z"/><path class="cls-4" d="M266.67,107.15l.76-4.81,1.18.19-.07.43-.63-.1-.63,4,.63.1-.07.43Z"/><path class="cls-4" d="M290.58,101.05c-.42-.06-.51.18-.54.35a4.15,4.15,0,0,0,0,.48c0,.17,0,.34,0,.49-.1.61-.51.77-1,.68l-.18,0,.07-.43.11,0c.3,0,.44-.11.49-.41a3,3,0,0,0,0-.39,3.29,3.29,0,0,1,0-.45c.06-.42.27-.58.58-.61h0a.59.59,0,0,1-.37-.75,3.18,3.18,0,0,1,.11-.43,3.13,3.13,0,0,0,.1-.38c0-.29,0-.48-.34-.54l-.11,0,.07-.43.18,0c.54.09.86.38.77.94,0,.16-.08.32-.12.48a4.46,4.46,0,0,0-.12.48c0,.19,0,.43.4.5Z"/><path class="cls-4" d="M289.54,105.84l-.76,4.81-1.17-.19.07-.43.62.1.63-4-.62-.1.07-.43Z"/><path class="cls-4" d="M269.56,118.1a7.33,7.33,0,0,1,.9-1.44l.46,0a9.66,9.66,0,0,0-.64,1.46Zm1,.17a7.31,7.31,0,0,1,.9-1.44l.46,0a8.52,8.52,0,0,0-.63,1.46Z"/><path class="cls-4" d="M268.9,125.61a8,8,0,0,1,.9-1.44l.47,0a9.72,9.72,0,0,0-.63,1.46Z"/><path class="cls-4" d="M77.14,73.32l-.35-4.22.79.13.09,1.91c0,.51,0,1,0,1.46h0c.13-.42.33-.88.52-1.38L79,69.44l.78.12.11,1.93c0,.5,0,1,0,1.42h0c.14-.44.31-.88.5-1.36l.71-1.77.75.12L80.14,73.8l-.8-.13-.12-2a11.63,11.63,0,0,1,0-1.33h0c-.14.42-.28.8-.48,1.25l-.77,1.84Z"/><path class="cls-4" d="M101.09,75.27,99.56,75l-.19,1.19,1.71.27-.1.61-2.46-.39.65-4.07,2.36.38-.1.61-1.62-.26-.17,1,1.53.24Z"/><path class="cls-4" d="M119.83,76a7.08,7.08,0,0,1,1.14.09,1.91,1.91,0,0,1,1.2.52,1,1,0,0,1,.22.87,1.1,1.1,0,0,1-.9.9v0a1,1,0,0,1,.44.87,8.12,8.12,0,0,0,.14,1.18l-.77-.12a5.79,5.79,0,0,1-.12-1c0-.55-.2-.75-.62-.83l-.38-.06-.27,1.67-.74-.12Zm.45,1.91.44.07c.5.08.86-.14.92-.54s-.21-.7-.69-.78a2.19,2.19,0,0,0-.46,0Z"/><path class="cls-4" d="M141.77,80l-1.16-.18.1-.62,3.07.49-.1.62-1.17-.19L142,83.61l-.74-.12Z"/><path class="cls-4" d="M162.19,86.81l.27-1.69-.91-2.58.84.13.32,1.12c.09.32.16.57.22.86h0c.14-.24.3-.48.48-.75l.65-1,.84.13-1.73,2.14-.27,1.71Z"/><path class="cls-4" d="M183.34,86,183,88.37c-.13.8.15,1.22.65,1.3s.92-.23,1-1l.38-2.37.74.12-.37,2.32c-.2,1.25-.93,1.71-1.91,1.55s-1.47-.77-1.27-2.05l.37-2.33Z"/><path class="cls-4" d="M205.53,89.52l-.65,4.07-.74-.12.65-4.07Z"/><path class="cls-4" d="M227.87,95.11a2,2,0,0,1-2.29,1.83A1.9,1.9,0,0,1,224,94.58a2,2,0,0,1,2.27-1.82A1.9,1.9,0,0,1,227.87,95.11Zm-3-.42c-.13.83.18,1.56.89,1.67s1.23-.49,1.36-1.34-.14-1.56-.89-1.67S225,93.85,224.83,94.69Z"/><path class="cls-4" d="M246.12,96a6.48,6.48,0,0,1,1.15.1,1.86,1.86,0,0,1,1.15.52,1.16,1.16,0,0,1,.26,1,1.24,1.24,0,0,1-.5.87,1.81,1.81,0,0,1-1.35.23,2.17,2.17,0,0,1-.36-.08l-.24,1.53-.74-.12Zm.44,2a1.55,1.55,0,0,0,.36.09c.55.09.94-.13,1-.61s-.2-.74-.72-.82a2.08,2.08,0,0,0-.43,0Z"/><path class="cls-4" d="M58.28,31l1.09.17,0,.28-.75-.12-.08.52.69.11,0,.28-.69-.11-.13.8L58,32.9Z"/><path class="cls-4" d="M60.11,31.69h0l-.36.12,0-.27.48-.15.29,0-.29,1.82-.33-.05Z"/><path class="cls-4" d="M79.28,34.34l1.09.17,0,.28-.75-.12-.08.52.69.11,0,.28-.69-.11-.13.8L79,36.23Z"/><path class="cls-4" d="M80.33,36.44l0-.21.25-.16c.49-.33.73-.52.77-.76A.29.29,0,0,0,81.1,35a.68.68,0,0,0-.41.09l-.06-.26a.92.92,0,0,1,.59-.1.55.55,0,0,1,.51.65c-.05.32-.32.54-.68.78l-.18.11h0l.75.12,0,.29Z"/><path class="cls-4" d="M101.79,37.91l1.09.17,0,.28-.75-.12-.08.52.7.11,0,.28-.7-.11-.13.8-.34-.05Z"/><path class="cls-4" d="M103,39.67a.91.91,0,0,0,.4.18c.26,0,.39-.09.41-.23s-.15-.34-.36-.37l-.16,0,0-.25.15,0c.16,0,.37,0,.4-.2s-.06-.24-.26-.27a.75.75,0,0,0-.39.06l0-.26a1,1,0,0,1,.55-.06c.38.06.54.3.5.54a.45.45,0,0,1-.4.37h0a.46.46,0,0,1,.33.52c0,.31-.35.51-.8.44a1,1,0,0,1-.49-.21Z"/><path class="cls-4" d="M122.9,41.26l1.09.17,0,.28-.74-.12-.08.52.69.11,0,.28-.69-.11-.13.8-.34-.05Z"/><path class="cls-4" d="M124.71,43.48l.07-.46-.82-.13,0-.22.92-1,.41.06-.17,1.1.24,0,0,.26-.24,0-.07.46Zm.11-.72.08-.5c0-.1,0-.21.06-.31h0l-.21.28-.41.45h0Z"/><path class="cls-4" d="M145,44.76l1.09.17,0,.28-.74-.12-.08.52.69.11,0,.28-.69-.11-.13.8-.35-.05Z"/><path class="cls-4" d="M147.4,45.51l-.7-.11-.11.36h.13a.82.82,0,0,1,.42.19.53.53,0,0,1,.16.5.67.67,0,0,1-.84.51,1.06,1.06,0,0,1-.46-.18l.11-.25a.93.93,0,0,0,.39.16.36.36,0,0,0,.45-.27c0-.21-.1-.37-.46-.43l-.25,0,.27-.9.94.15Z"/><path class="cls-4" d="M167,48.26l1.09.17,0,.28-.75-.12-.08.52.69.11,0,.28-.69-.11-.13.8-.34-.05Z"/><path class="cls-4" d="M169.41,49l-.18,0a.65.65,0,0,0-.7.44h0a.53.53,0,0,1,.44-.11.55.55,0,0,1,.46.68.64.64,0,0,1-.74.55.7.7,0,0,1-.56-.89,1.13,1.13,0,0,1,.45-.77,1.08,1.08,0,0,1,.69-.17l.17,0Zm-.67,1.28c.18,0,.32-.11.35-.33a.32.32,0,0,0-.26-.41.34.34,0,0,0-.33.14.23.23,0,0,0,0,.11c0,.24.05.46.27.49Z"/><path class="cls-4" d="M188.12,51.61l1.09.17,0,.28-.74-.12-.08.52.7.11,0,.28-.7-.11-.13.8-.34-.05Z"/><path class="cls-4" d="M190.71,52.09l0,.22-1,1.48-.36-.06,1-1.41h0l-.86-.14,0-.29Z"/><path class="cls-4" d="M210.53,55.17l1.09.17,0,.28-.75-.12-.08.52.69.11,0,.28-.69-.11-.13.8-.34-.05Z"/><path class="cls-4" d="M212,56.37a.45.45,0,0,1-.21-.45.55.55,0,0,1,.69-.4c.39.06.53.33.5.55a.46.46,0,0,1-.35.37h0a.5.5,0,0,1,.28.51.59.59,0,0,1-.75.44c-.43-.07-.61-.35-.57-.6a.51.51,0,0,1,.42-.42Zm.55.56c0-.18-.09-.31-.29-.4a.34.34,0,0,0-.32.28.29.29,0,0,0,.26.34A.28.28,0,0,0,212.59,56.93Zm-.43-1c0,.15.08.26.25.33a.3.3,0,0,0,.27-.24.25.25,0,0,0-.22-.3A.24.24,0,0,0,212.16,56Z"/><path class="cls-4" d="M232.79,58.7l1.09.17,0,.28-.74-.12-.08.52.69.11,0,.28-.69-.11-.13.8-.34-.05Z"/><path class="cls-4" d="M234,60.58l.19,0a.65.65,0,0,0,.69-.45h0a.51.51,0,0,1-.42.1.54.54,0,0,1-.46-.65.65.65,0,0,1,.76-.55c.42.07.6.44.53.88a1.14,1.14,0,0,1-.45.8,1,1,0,0,1-.66.15l-.21,0Zm.69-1.28c-.17,0-.32.11-.36.33a.31.31,0,0,0,.25.38.34.34,0,0,0,.32-.1.21.21,0,0,0,0-.1c0-.25,0-.47-.24-.51Z"/><path class="cls-4" d="M252.41,61.81l1.09.17,0,.28-.75-.12-.08.52.7.11,0,.28-.7-.11-.13.8-.34-.05Z"/><path class="cls-4" d="M254.24,62.49h0l-.36.12,0-.27.48-.15.29,0-.29,1.82L254,64Z"/><path class="cls-4" d="M256.39,63.43c-.09.58-.38.92-.81.85s-.58-.48-.5-1,.39-.91.82-.84S256.47,62.9,256.39,63.43Zm-1-.14c-.07.44,0,.69.2.72s.35-.2.42-.63,0-.69-.2-.72S255.49,62.84,255.42,63.3Z"/><path class="cls-4" d="M274.67,65.34l1.09.17,0,.28-.75-.12-.08.52.7.11,0,.28-.7-.11-.13.8-.34-.05Z"/><path class="cls-4" d="M276.5,66h0l-.36.12,0-.27.48-.15.29,0-.29,1.82-.33-.05Z"/><path class="cls-4" d="M278,66.26h0l-.36.12,0-.27.48-.15.29,0-.29,1.82-.33-.05Z"/><path class="cls-4" d="M296.33,68.78l1.09.17,0,.28-.74-.12-.08.52.69.11,0,.28-.69-.11-.13.8-.34-.05Z"/><path class="cls-4" d="M298.15,69.46h0l-.36.12,0-.27.48-.15.29,0L298.25,71l-.33-.05Z"/><path class="cls-4" d="M298.88,71.12l0-.21.25-.16c.49-.33.73-.52.77-.76a.29.29,0,0,0-.28-.36.68.68,0,0,0-.41.09l-.06-.26a.91.91,0,0,1,.59-.1.55.55,0,0,1,.51.65c-.05.32-.32.54-.68.78l-.18.11h0l.75.12,0,.29Z"/><path class="cls-4" d="M29.36,26a.66.66,0,0,0,.64.74,1.82,1.82,0,0,0,.69,0l0,.44a2.3,2.3,0,0,1-.87,0,1.16,1.16,0,0,1-1-1.42,1.21,1.21,0,0,1,1.39-1.11A1.06,1.06,0,0,1,31,26a1.46,1.46,0,0,1-.06.25Zm1.13-.26a.52.52,0,0,0-.41-.67.6.6,0,0,0-.65.5Z"/><path class="cls-4" d="M31.38,26.78A1.38,1.38,0,0,0,32,27c.27,0,.4,0,.43-.21s-.06-.26-.34-.42c-.44-.24-.6-.53-.55-.81a.82.82,0,0,1,1-.61,1.44,1.44,0,0,1,.62.25l-.19.41a1.1,1.1,0,0,0-.49-.22c-.22,0-.35.05-.38.2s.08.25.37.4.58.48.53.84-.46.7-1.1.6a1.58,1.58,0,0,1-.71-.29Z"/><path class="cls-4" d="M35.17,27.88a1.79,1.79,0,0,1-.7,0,1.18,1.18,0,0,1-1-1.43A1.26,1.26,0,0,1,35,25.39a1.54,1.54,0,0,1,.57.21l-.18.44a1.11,1.11,0,0,0-.45-.17.79.79,0,0,0-.25,1.56,1.21,1.21,0,0,0,.5,0Z"/><path class="cls-4" d="M10,132.81l.31-2L10,130.8l.07-.46.33.05,0-.1a1.14,1.14,0,0,1,.42-.78.93.93,0,0,1,.67-.13,1.17,1.17,0,0,1,.38.12l-.12.46a.71.71,0,0,0-.25-.09c-.3,0-.45.19-.49.48l0,.12.53.08-.07.46L11,131l-.31,2Z"/><path class="cls-4" d="M11.82,131.36c0-.28.08-.51.09-.72l.54.08,0,.37h0a.88.88,0,0,1,.83-.29c.42.07.81.41.69,1.17l-.23,1.43-.61-.1.22-1.36c.06-.35,0-.63-.36-.68a.52.52,0,0,0-.53.28.61.61,0,0,0-.06.19l-.22,1.42-.61-.1Z"/><path class="cls-4" d="M32.45,136.29a1.78,1.78,0,0,1-.7,0,1.18,1.18,0,0,1-1-1.43,1.26,1.26,0,0,1,1.55-1.08,1.53,1.53,0,0,1,.57.21l-.18.44a1.11,1.11,0,0,0-.45-.17.79.79,0,0,0-.25,1.56,1.19,1.19,0,0,0,.5,0Z"/><path class="cls-4" d="M34.14,133.53l-.1.62.58.09-.07.46L34,134.6l-.17,1.06c0,.29,0,.46.24.5a.75.75,0,0,0,.24,0l-.06.47a1.3,1.3,0,0,1-.45,0,.72.72,0,0,1-.49-.29,1,1,0,0,1-.08-.7l.18-1.13-.35-.06.07-.46.35.06.07-.45Z"/><path class="cls-4" d="M35,135.09c.05-.33.08-.56.1-.78l.53.08-.05.46h0a.73.73,0,0,1,.74-.41l.14,0-.09.57-.18,0a.54.54,0,0,0-.62.37,1,1,0,0,0,0,.19l-.2,1.25-.61-.1Z"/><path class="cls-4" d="M37,133.49l.61.1-.56,3.52-.61-.1Z"/><polygon class="cls-4" points="256.33 169.44 257.5 171.05 257.94 168.27 256.33 169.44"/><polygon class="cls-4" points="299.88 176.35 298.71 174.74 298.27 177.52 299.88 176.35"/><polygon class="cls-4" points="280 161.62 278.39 162.79 281.18 163.23 280 161.62"/><polygon class="cls-4" points="278.1 173.61 279.71 172.44 276.93 171.99 278.1 173.61"/><path class="cls-8" d="M56,28.47a.19.19,0,0,0,0-.14.19.19,0,0,0-.12-.07.21.21,0,0,0-.14,0l-.15.11a.2.2,0,0,0-.08.12.18.18,0,0,0,0,.14.19.19,0,0,0,.12.08.19.19,0,0,0,.14,0L56,28.6a.21.21,0,0,0,.08-.13m-1.24-.54,0-.2a.18.18,0,0,0-.15-.21.19.19,0,0,0-.21.15l0,.2a.18.18,0,0,0,.15.21A.18.18,0,0,0,54.81,27.94Zm1.55,1.9a.18.18,0,0,0-.15-.21l-.19,0a.18.18,0,0,0-.21.15A.19.19,0,0,0,56,30l.19,0A.18.18,0,0,0,56.37,29.84Zm-2.78-1.61a.19.19,0,0,0,0-.14l-.1-.15a.22.22,0,0,0-.13-.07.19.19,0,0,0-.13,0,.18.18,0,0,0-.07.12.2.2,0,0,0,0,.15l.11.15a.19.19,0,0,0,.12.08.19.19,0,0,0,.13,0A.17.17,0,0,0,53.59,28.22Zm1.72,1.45a.94.94,0,1,0-1.08.79A.94.94,0,0,0,55.31,29.67ZM55.64,31a.2.2,0,0,0,0-.14l-.11-.15a.19.19,0,0,0-.12-.08.19.19,0,0,0-.14,0,.17.17,0,0,0-.08.11.17.17,0,0,0,0,.13l.1.17a.22.22,0,0,0,.13.07.19.19,0,0,0,.14,0A.22.22,0,0,0,55.64,31Zm-2.71-1.75a.18.18,0,0,0-.15-.21l-.19,0a.18.18,0,0,0-.21.15.19.19,0,0,0,.15.22l.19,0A.19.19,0,0,0,52.94,29.29Zm1.33,2.08,0-.2a.18.18,0,0,0-.15-.2.18.18,0,0,0-.21.14l0,.2a.19.19,0,0,0,.15.21A.18.18,0,0,0,54.27,31.38Zm-1-.85a.16.16,0,0,0,0-.13.18.18,0,0,0-.12-.08.19.19,0,0,0-.14,0l-.15.1a.19.19,0,0,0-.07.12.21.21,0,0,0,0,.15.19.19,0,0,0,.12.07.22.22,0,0,0,.15,0l.15-.13A.16.16,0,0,0,53.23,30.53Zm1.77-.9a.63.63,0,1,1-1.24-.2.63.63,0,0,1,1.24.2Z"/><path class="cls-8" d="M77.52,31.94a.16.16,0,0,0,0-.12.14.14,0,0,0-.1-.06.13.13,0,0,0-.11,0l-.36.27a.15.15,0,0,0-.06.1.15.15,0,0,0,0,.11.16.16,0,0,0,.1.06.16.16,0,0,0,.11,0l.37-.26a.14.14,0,0,0,.06-.1m-1.24-.28.07-.44a.16.16,0,0,0-.31,0l-.07.44a.16.16,0,0,0,.31,0Zm1.57,1.62a.15.15,0,0,0-.13-.17L77.28,33a.15.15,0,0,0-.18.12.16.16,0,0,0,.13.18l.44.07A.16.16,0,0,0,77.85,33.28ZM75.28,31.9a.16.16,0,0,0,0-.11L75,31.42a.13.13,0,0,0-.1-.06.14.14,0,0,0-.12,0,.16.16,0,0,0-.06.1.14.14,0,0,0,0,.11L75,32a.15.15,0,0,0,.21,0A.16.16,0,0,0,75.28,31.9Zm1.54,1.21a.91.91,0,1,0-1,.76A.9.9,0,0,0,76.81,33.11Zm.31,1.34a.14.14,0,0,0,0-.11L76.83,34a.14.14,0,0,0-.1-.06.15.15,0,0,0-.11,0,.15.15,0,0,0-.06.1.14.14,0,0,0,0,.11l.26.36a.14.14,0,0,0,.1.06.16.16,0,0,0,.12,0A.15.15,0,0,0,77.12,34.46Zm-2.39-1.67a.15.15,0,0,0-.13-.17l-.44-.07a.15.15,0,0,0-.17.12.16.16,0,0,0,.13.18l.44.07A.16.16,0,0,0,74.73,32.78Zm1.06,2,.07-.44a.16.16,0,0,0-.31,0l-.07.44a.16.16,0,0,0,.31,0Zm-.81-1a.17.17,0,0,0,0-.11.15.15,0,0,0-.1-.06.15.15,0,0,0-.12,0l-.36.26a.15.15,0,0,0-.06.1.15.15,0,0,0,0,.11.16.16,0,0,0,.1.06.15.15,0,0,0,.11,0l.36-.27A.15.15,0,0,0,75,33.79Zm1.58-.72a.64.64,0,1,1-.54-.74A.65.65,0,0,1,76.55,33.07Z"/><path class="cls-8" d="M99.91,37l.21-1.32a.23.23,0,0,0-.2-.27l-1-.16a.23.23,0,0,0-.27.19l-.21,1.32a.24.24,0,0,0,.2.28l1,.16a.25.25,0,0,0,.27-.2m-2.06-1.27.1-.61a.24.24,0,0,0-.2-.27l-1.46-.23a.24.24,0,0,0-.27.2l-.1.61a.23.23,0,0,0,.2.27l1.46.23A.24.24,0,0,0,97.84,35.75Zm.22,1.58.12-.75a.24.24,0,0,0-.2-.27l-1.32-.21a.24.24,0,0,0-.27.2l-.12.75a.24.24,0,0,0,.2.28l1.32.21A.24.24,0,0,0,98.06,37.34ZM99.75,37a.08.08,0,0,1-.09.07l-1-.16a.08.08,0,0,1-.07-.09l.21-1.32a.08.08,0,0,1,.1-.07l1,.16a.08.08,0,0,1,.07.1Zm-2.06-1.27a.09.09,0,0,1-.1.07l-1.46-.23a.09.09,0,0,1-.07-.1l.1-.61a.08.08,0,0,1,.1-.07l1.46.23a.09.09,0,0,1,.07.1Zm.22,1.58a.08.08,0,0,1-.1.06l-1.32-.21a.08.08,0,0,1-.07-.09l.12-.75a.08.08,0,0,1,.1-.07l1.32.21a.08.08,0,0,1,.07.1Zm2.29,1,.53-3.37a.11.11,0,0,0-.09-.13L95.73,34a.11.11,0,0,0-.13.09l-.53,3.37a.11.11,0,0,0,.09.13l4.92.78A.11.11,0,0,0,100.21,38.32Zm-.17-.1-4.78-.76.51-3.23,4.78.76Z"/><path class="cls-8" d="M120.86,39.76A1.61,1.61,0,1,0,119,41.1a1.61,1.61,0,0,0,1.84-1.35m-.16,0a1.45,1.45,0,1,1-1.2-1.65A1.45,1.45,0,0,1,120.7,39.73Zm-1.23-1.09,0-.29a.07.07,0,0,0-.05-.08.07.07,0,0,0-.08.06l0,.29a.07.07,0,0,0,.06.07A.06.06,0,0,0,119.47,38.64Zm.3.17v0l.12-.27a.07.07,0,0,1,.07,0h0a.07.07,0,0,1,0,.07h0l-.12.27a.07.07,0,0,1-.08,0h0A.07.07,0,0,1,119.77,38.81Zm.28.36a0,0,0,0,1,0,0l.19-.23a.06.06,0,0,1,.06,0l0,0a.07.07,0,0,1,0,.06.06.06,0,0,1,0,0l-.19.22a.07.07,0,0,1-.06,0h0A.08.08,0,0,1,120.05,39.17Zm-.65,1.24a.26.26,0,0,0-.15-.28l.15-.92a.08.08,0,0,0-.16,0l-.15.92a.26.26,0,0,0-.23.22.27.27,0,1,0,.54.09Zm-.4-1.73v0l0-.3a.06.06,0,0,0,0-.06h0a.07.07,0,0,0-.06.06h0l0,.3a.06.06,0,0,0,.06.06h0A.07.07,0,0,0,119,38.69Zm-.38.26a.06.06,0,0,0,0,0l-.11-.28a.07.07,0,0,0-.05,0h0a.07.07,0,0,0,0,.05.07.07,0,0,0,0,0l.11.27a.07.07,0,0,0,.05,0h0A.08.08,0,0,0,118.63,38.95Z"/><path class="cls-8" d="M185,48.53l-.36,2.25s0,0-.06,0h0l-2-1.46a.05.05,0,0,1,0,0,0,0,0,0,1,0,0l2.33-.79h0a.06.06,0,0,1,.05.06m2.31.37L187,51.14s0,0-.06,0h0l-2-1.46a.05.05,0,0,1,0,0s0,0,0,0l2.34-.79h0A.06.06,0,0,1,187.36,48.89Z"/><path class="cls-8" d="M228.7,57.75l.36-2.25s0,0,.06,0h0l2,1.46a.05.05,0,0,1,0,0,0,0,0,0,1,0,0l-2.34.79h0a.06.06,0,0,1-.05-.06m-2.31-.37.36-2.25s0,0,.06,0h0l2,1.46a.05.05,0,0,1,0,0s0,0,0,0l-2.34.79h0A.06.06,0,0,1,226.39,57.38Z"/><path class="cls-8" d="M208.54,54.65l.38-2.42a0,0,0,0,0,0-.05l-.51-.08a.05.05,0,0,0-.06,0l-.38,2.42s0,0,0,0l.51.08s.05,0,.05,0m-1.21-.19.38-2.42a.05.05,0,0,0,0-.05l-.53-.08a.05.05,0,0,0-.05,0l-.38,2.42a0,0,0,0,0,0,0l.53.08A0,0,0,0,0,207.33,54.45Zm-2.86-2.86-.36,2.28s0,0,0,.05h0l2.16-.82a0,0,0,0,0,0,0s0,0,0,0l-1.79-1.46h0A.06.06,0,0,0,204.47,51.6Z"/><path class="cls-4" d="M249.79,59.69l-.58-.09a.05.05,0,0,0-.06,0l-.16,1a.06.06,0,0,0,0,.06l.58.09.78,1a.05.05,0,0,0,0,0,0,0,0,0,0,.05,0l.45-2.85a0,0,0,0,0,0-.05.05.05,0,0,0,0,0l-1.07.74"/><path class="cls-8" d="M273.61,64a1.74,1.74,0,0,0-.34-1.34.18.18,0,0,0-.11-.06.15.15,0,0,0-.17.13.24.24,0,0,0,0,.12,1.41,1.41,0,0,1,.3,1.1,1.45,1.45,0,0,1-.63,1,.24.24,0,0,0-.06.11.15.15,0,0,0,.13.17.17.17,0,0,0,.12,0,1.74,1.74,0,0,0,.73-1.17m-2.36-.93-.56-.09s-.05,0-.05,0l-.16,1a0,0,0,0,0,0,.06l.56.09.78,1,0,0a0,0,0,0,0,0,0l.44-2.8a0,0,0,0,0,0,0l0,0Z"/><path class="cls-8" d="M295.3,67.46A2,2,0,0,0,295,66a.07.07,0,0,0-.06,0,.1.1,0,0,0-.11.08.1.1,0,0,0,0,.07,1.91,1.91,0,0,1-.4,2.55.11.11,0,0,0,0,.06.09.09,0,0,0,.08.1.08.08,0,0,0,.06,0,2.08,2.08,0,0,0,.77-1.31m-.51-.08a1.59,1.59,0,0,0-.26-1.14l-.06,0a.1.1,0,0,0-.11.08.1.1,0,0,0,0,.07,1.38,1.38,0,0,1-.3,1.89.08.08,0,0,0,0,.05.1.1,0,0,0,.08.12l.06,0A1.6,1.6,0,0,0,294.79,67.38Zm-.51-.08a1,1,0,0,0-.2-.8.09.09,0,0,0-.06,0,.09.09,0,0,0-.1.08.16.16,0,0,0,0,.08.84.84,0,0,1,.16.66.87.87,0,0,1-.36.58.16.16,0,0,0,0,.06.09.09,0,0,0,.08.1.08.08,0,0,0,.07,0A1,1,0,0,0,294.28,67.3Zm-1.4-.55-.34-.05s0,0,0,0l-.09.59a0,0,0,0,0,0,0l.34.05.46.61,0,0a0,0,0,0,0,0,0l.27-1.67a0,0,0,0,0,0,0h0Z"/><path class="cls-8" d="M317.35,70.9a.05.05,0,0,0,0,0l-1.15-1.6,0,0h0l-1.6,1.16a.05.05,0,0,0,0,0,0,0,0,0,0,0,0l2.76.44a0,0,0,0,0,0,0M317.22,72l.06-.37a0,0,0,0,0,0-.05l-2.83-.45a0,0,0,0,0,0,0l-.06.37a0,0,0,0,0,0,0l2.83.45A0,0,0,0,0,317.22,72Z"/><path class="cls-4" d="M291.94,120l-1,6.11-.54-.09,1-6.11Z"/><path class="cls-4" d="M290.15,132.39l-.73-4.65.52.08.73,4.65Z"/><path class="cls-4" d="M315.11,113.73l-6.35-1a.23.23,0,0,1,.07-.46l6.35,1a.29.29,0,0,0,.34-.24l.32-2a.29.29,0,0,0-.24-.34l-1.21-.19a.23.23,0,0,1,.07-.46l1.21.19a.76.76,0,0,1,.63.87l-.32,2A.76.76,0,0,1,315.11,113.73Z"/><path class="cls-4" d="M310.48,114.48a.23.23,0,0,1-.12-.06l-1.88-1.79a.23.23,0,0,1,.06-.38l2.35-1.18a.23.23,0,1,1,.21.42l-2.06,1,1.64,1.56a.23.23,0,0,1-.2.4Z"/><path class="cls-4" d="M311.59,136.14a.23.23,0,0,1-.15-.09l-.58-.8-.8.58a.23.23,0,1,1-.27-.38l1-.72a.23.23,0,0,1,.33.05l.72,1a.23.23,0,0,1-.23.37Z"/><path class="cls-4" d="M311.84,134.89,310,134.6a.23.23,0,0,1,.07-.46l1.79.28a.23.23,0,1,1-.07.46Z"/><path class="cls-4" d="M318.86,93.45l-6.18-1a.23.23,0,1,1,.07-.46l6.18,1a.23.23,0,0,1-.07.46Z"/><path class="cls-4" d="M314.39,94.23a.23.23,0,0,1-.12-.06l-1.88-1.79a.23.23,0,0,1,.06-.38l2.35-1.18a.23.23,0,1,1,.21.42l-2.06,1,1.64,1.56a.23.23,0,0,1-.2.4Z"/><path class="cls-4" d="M306.77,155.94l-1.22-.19a.76.76,0,0,1-.63-.87l.15-1-.82-.13a.23.23,0,0,1-.09-.43l2.49-1.6a.23.23,0,0,1,.31,0l1.87,2.29a.23.23,0,0,1-.22.38l-.82-.13-.15,1A.76.76,0,0,1,306.77,155.94Zm-1.84-2.53.45.07a.23.23,0,0,1,.19.27l-.19,1.21a.29.29,0,0,0,.24.34l1.22.19a.29.29,0,0,0,.34-.24l.19-1.21a.23.23,0,0,1,.27-.19l.45.07-1.35-1.65Z"/><path class="cls-4" d="M241.5,169.63l-2.43-.39a.23.23,0,0,1-.18-.16l-.62-1.84-.86-.14a.23.23,0,0,1,.07-.46l1,.16a.23.23,0,0,1,.18.16l.62,1.84,2.29.36a.23.23,0,0,1-.07.46Z"/><path class="cls-4" d="M241.79,167.8l-2.17-.34a.23.23,0,0,1,.07-.46l2.17.34a.23.23,0,1,1-.07.46Z"/><path class="cls-4" d="M56.57,140.28l-2.43-.39a.23.23,0,0,1-.18-.16l-.62-1.84-.86-.14a.23.23,0,1,1,.07-.46l1,.16a.23.23,0,0,1,.18.16l.62,1.84,2.29.36a.23.23,0,1,1-.07.46Z"/><path class="cls-4" d="M56.86,138.46l-2.17-.34a.23.23,0,1,1,.07-.46l2.17.34a.23.23,0,0,1-.07.46Z"/><path class="cls-4" d="M204,163.93a.87.87,0,0,1,.27-1.72l.4.06.15-.94-.4-.06a.87.87,0,1,1,1-.72l-.06.4.88.14.06-.4a.87.87,0,1,1,.72,1l-.4-.06-.15.94.4.06a.87.87,0,1,1-1,.72l.06-.4-.88-.14-.06.4A.87.87,0,0,1,204,163.93Zm.2-1.26a.41.41,0,1,0,.34.46l.06-.4Zm2.2.35-.06.4a.41.41,0,1,0,.46-.34Zm-1.27-.67.88.14.15-.94-.88-.14Zm1.56-1.19.4.06a.41.41,0,1,0-.34-.46ZM204.6,160a.4.4,0,1,0-.13.8l.4.06.06-.4A.41.41,0,0,0,204.6,160Z"/><path class="cls-4" d="M85.84,145.18a.87.87,0,0,1,.27-1.72l.4.06.15-.94-.4-.06a.87.87,0,1,1,1-.72l-.06.4.88.14.06-.4a.87.87,0,1,1,.72,1l-.4-.06-.15.94.4.06a.87.87,0,1,1-1,.72l.06-.4-.88-.14-.06.4A.87.87,0,0,1,85.84,145.18Zm.2-1.26a.41.41,0,1,0,.34.46l.06-.4Zm2.2.35-.06.4a.41.41,0,1,0,.46-.34ZM87,143.6l.88.14.15-.94-.88-.14Zm1.56-1.19.4.06a.41.41,0,1,0-.34-.46Zm-2.07-1.15a.4.4,0,1,0-.13.8l.4.06.06-.4A.41.41,0,0,0,86.46,141.26Z"/><path class="cls-4" d="M18.81,87.54l-1.22-.19a.76.76,0,0,1-.63-.87l.2-1.23-.82-.13a.23.23,0,0,1-.09-.43l2.49-1.6a.23.23,0,0,1,.31,0l1.87,2.29a.23.23,0,0,1-.22.38l-.82-.13-.2,1.23A.76.76,0,0,1,18.81,87.54ZM17,84.74l.45.07a.23.23,0,0,1,.19.27l-.23,1.47a.29.29,0,0,0,.24.34l1.22.19a.29.29,0,0,0,.34-.24l.23-1.47a.23.23,0,0,1,.27-.19l.45.07-1.35-1.65Z"/><path class="cls-4" d="M15.28,109.76l-1.22-.19a.76.76,0,0,1-.63-.87l.2-1.23-.82-.13a.23.23,0,0,1-.09-.43l2.49-1.6a.23.23,0,0,1,.31,0l1.87,2.29a.23.23,0,0,1-.22.38l-.82-.13-.2,1.23A.76.76,0,0,1,15.28,109.76ZM13.48,107l.45.07a.23.23,0,0,1,.19.27l-.23,1.47a.29.29,0,0,0,.24.34l1.22.19a.29.29,0,0,0,.34-.24l.23-1.47a.23.23,0,0,1,.27-.19l.45.07-1.35-1.65Z"/><path class="cls-4" d="M18.77,89.46,17,89.19a.5.5,0,0,1-.41-.57l.08-.53a.5.5,0,0,1,.57-.41l1.74.28a.5.5,0,0,1,.41.57l-.08.53A.5.5,0,0,1,18.77,89.46ZM17.2,88.13a0,0,0,0,0,0,0l-.08.53a0,0,0,0,0,0,0l1.74.28a0,0,0,0,0,0,0l.08-.53a0,0,0,0,0,0,0Z"/><circle class="cls-4" cx="18" cy="78.55" r="0.62" transform="translate(-62.4 84.02) rotate(-80.98)"/><path class="cls-4" d="M17.87,79.39a.86.86,0,1,1,1-.71A.86.86,0,0,1,17.87,79.39Zm.2-1.23a.39.39,0,1,0,.32.45A.39.39,0,0,0,18.06,78.16Z"/><path class="cls-4" d="M25.14,67.35l-5.92-.94a.23.23,0,0,1,.07-.46l5.92.94a.23.23,0,1,1-.07.46Z"/><path class="cls-4" d="M23,68.52a.23.23,0,0,1-.07-.44l2.06-1L23.3,65.49a.23.23,0,0,1,.32-.34l1.88,1.79a.23.23,0,0,1-.06.38L23.09,68.5A.23.23,0,0,1,23,68.52Z"/><path class="cls-4" d="M25.38,69.87a.23.23,0,0,1-.19-.27L26,64.75a.23.23,0,0,1,.46.07l-.77,4.85A.23.23,0,0,1,25.38,69.87Z"/><path class="cls-4" d="M55.88,126.93a3.07,3.07,0,0,0,0,.46l-.43-.07v-.21h0a.71.71,0,0,1-.6.16.57.57,0,0,1-.5-.66c.08-.48.54-.65,1.23-.54v0c0-.12,0-.34-.33-.39a1,1,0,0,0-.53.06l0-.33a1.38,1.38,0,0,1,.71-.06.72.72,0,0,1,.65.92Zm-.39-.54c-.34-.06-.67,0-.72.25a.25.25,0,0,0,.23.31.39.39,0,0,0,.41-.2.34.34,0,0,0,0-.1Z"/><path class="cls-4" d="M56.74,124.71l.48.08-.44,2.75-.48-.08Z"/><path class="cls-4" d="M58.23,125.33l-.08.48.45.07-.06.36-.45-.07L58,127c0,.23,0,.36.19.39a.6.6,0,0,0,.19,0l0,.37a1.05,1.05,0,0,1-.35,0,.56.56,0,0,1-.39-.22.77.77,0,0,1-.06-.55l.14-.89-.27,0,.06-.36.27,0,.06-.35Z"/><path class="cls-4" d="M74.38,142.92a1.76,1.76,0,0,1-.69,0,1.16,1.16,0,0,1-1-1.41,1.24,1.24,0,0,1,1.52-1.06,1.51,1.51,0,0,1,.56.2l-.18.43a1.09,1.09,0,0,0-.44-.16.78.78,0,0,0-.24,1.54,1.18,1.18,0,0,0,.49,0Z"/><path class="cls-4" d="M75,141.41c0-.27.08-.5.09-.71l.52.08,0,.35h0a.83.83,0,0,1,.8-.29.69.69,0,0,1,.59.54h0a.9.9,0,0,1,.34-.25.8.8,0,0,1,.5-.07c.4.06.75.39.63,1.15l-.22,1.4-.59-.09.21-1.31c.06-.39,0-.65-.32-.7a.46.46,0,0,0-.47.25.92.92,0,0,0-.06.2l-.23,1.42-.59-.09.22-1.37c.05-.33,0-.59-.32-.63a.47.47,0,0,0-.48.27.52.52,0,0,0-.06.19l-.22,1.4-.59-.09Z"/><path class="cls-4" d="M81.42,140.54,81,143.33c0,.24-.07.51-.09.67l-.54-.09,0-.38h0a.87.87,0,0,1-.84.31,1.1,1.1,0,0,1-.82-1.37,1.14,1.14,0,0,1,1.26-1.1.77.77,0,0,1,.62.42h0l.21-1.35Zm-.93,2a.82.82,0,0,0,0-.16.53.53,0,0,0-.45-.51c-.39-.06-.65.25-.72.69s.09.79.48.85a.54.54,0,0,0,.58-.34.63.63,0,0,0,0-.17Z"/><path class="cls-4" d="M241.28,156.35a3.07,3.07,0,0,0,0,.46l-.43-.07v-.21h0a.71.71,0,0,1-.6.16.57.57,0,0,1-.5-.66c.08-.48.54-.65,1.23-.54v0c0-.12,0-.34-.33-.39a1,1,0,0,0-.53.06l0-.33a1.38,1.38,0,0,1,.71-.06.72.72,0,0,1,.65.92Zm-.39-.54c-.34-.06-.67,0-.72.25a.25.25,0,0,0,.23.31.39.39,0,0,0,.41-.2.34.34,0,0,0,0-.1Z"/><path class="cls-4" d="M242.15,154.13l.48.08-.44,2.75-.48-.08Z"/><path class="cls-4" d="M243.63,154.75l-.08.48.45.07-.06.36-.45-.07-.13.83c0,.23,0,.36.19.39a.6.6,0,0,0,.19,0l0,.37a1.05,1.05,0,0,1-.35,0A.56.56,0,0,1,243,157a.77.77,0,0,1-.06-.55l.14-.89-.27,0,.06-.36.27,0,.06-.35Z"/><path class="cls-4" d="M213.33,165a1.76,1.76,0,0,1-.69,0,1.16,1.16,0,0,1-1-1.41,1.24,1.24,0,0,1,1.52-1.06,1.51,1.51,0,0,1,.56.2l-.18.43a1.09,1.09,0,0,0-.44-.16.78.78,0,0,0-.24,1.54,1.18,1.18,0,0,0,.49,0Z"/><path class="cls-4" d="M213.94,163.46c0-.27.08-.5.09-.71l.52.08,0,.35h0a.83.83,0,0,1,.8-.29.69.69,0,0,1,.59.54h0a.9.9,0,0,1,.34-.25.8.8,0,0,1,.5-.07c.4.06.75.39.63,1.15l-.22,1.4-.59-.09.21-1.31c.06-.39,0-.65-.32-.7a.46.46,0,0,0-.47.25.92.92,0,0,0-.06.2l-.23,1.42-.59-.09.22-1.37c.05-.33,0-.59-.32-.63a.47.47,0,0,0-.48.27.52.52,0,0,0-.06.19l-.22,1.4-.59-.09Z"/><path class="cls-4" d="M220.36,162.59l-.44,2.79c0,.24-.07.51-.09.67l-.54-.09,0-.38h0a.87.87,0,0,1-.84.31,1.1,1.1,0,0,1-.82-1.37,1.14,1.14,0,0,1,1.26-1.1.77.77,0,0,1,.62.42h0l.21-1.35Zm-.93,2a.81.81,0,0,0,0-.16.53.53,0,0,0-.45-.51c-.39-.06-.65.25-.72.69s.09.79.48.85a.54.54,0,0,0,.58-.34.63.63,0,0,0,0-.17Z"/><path class="cls-4" d="M30.15,37.61,30,38.74l1.31.21-.07.47-1.31-.21-.18,1.14-.49-.08.18-1.14-1.31-.21.07-.47,1.31.21.18-1.13Z"/><path class="cls-4" d="M30.92,40.86l-.06.4-3-.48.06-.4Z"/><path class="cls-4" d="M29.54,44.62a1.22,1.22,0,0,0-.62-.28c-.32-.05-.59.07-.63.31s.21.43.6.63.83.51.75,1a.81.81,0,0,1-.45.61.71.71,0,0,1,.13.52c-.09.57-.65.74-1.17.66a1.52,1.52,0,0,1-.82-.37l.18-.29a1.33,1.33,0,0,0,.69.33c.34.05.63-.06.68-.35s-.1-.42-.58-.68-.89-.54-.82-1a.81.81,0,0,1,.51-.58.59.59,0,0,1-.13-.49c.08-.48.57-.71,1.13-.62a1.59,1.59,0,0,1,.73.3Zm-1.17,1.7a3.41,3.41,0,0,1,.58.36.53.53,0,0,0,.27-.39c0-.21-.07-.4-.41-.59a4.74,4.74,0,0,1-.63-.39.51.51,0,0,0-.31.39C27.85,45.91,28,46.1,28.38,46.33Z"/></g></g></g></svg>