<svg xmlns="http://www.w3.org/2000/svg" viewBox="0 0 349.92 311.83"><defs><style>.cls-1{opacity:0.1;}.cls-2{fill:#1c1c1c;}.cls-3{opacity:0.2;}.cls-4{fill:#e5e5e5;}.cls-5{fill:#fff;}.cls-6{fill:#f1f1f1;}.cls-7,.cls-8{fill:#b2b2b2;}.cls-8{fill-rule:evenodd;}.cls-9{fill:#f2605c;}</style></defs><title>user flows</title><g id="Layer_2" data-name="Layer 2"><g id="Layer_3" data-name="Layer 3"><g id="Notebook"><path class="cls-1" d="M253.16,2,12,114.78a10.07,10.07,0,0,0-5,13.31l79.26,177.8c2.3,5,10.4,7.35,15.42,5.06L344.06,200.09a10.07,10.07,0,0,0,5-13.31L267.65,8.88C265.35,3.86,258.18-.3,253.16,2Z"/><rect class="cls-2" x="28.6" y="46.56" width="286.6" height="215.71" rx="10.04" ry="10.04" transform="translate(-48.65 85.5) rotate(-24.58)"/><path class="cls-3" d="M242.18,14.72l-111,50.75-111,50.75a11.7,11.7,0,0,0-5.76,15.46L88.7,293.87a11.7,11.7,0,0,0,15.46,5.76l111-50.75,111-50.75a11.7,11.7,0,0,0,5.76-15.46L257.64,20.48A11.7,11.7,0,0,0,242.18,14.72Z"/><path class="cls-4" d="M130,62.71l83.89,183.4-111,50.75a11.7,11.7,0,0,1-15.46-5.76L13.25,128.92A11.7,11.7,0,0,1,19,113.46Z"/><path class="cls-4" d="M256.38,17.72,330.56,179.9a11.7,11.7,0,0,1-5.76,15.46l-111,50.75L130,62.71,240.91,12A11.7,11.7,0,0,1,256.38,17.72Z"/><path class="cls-5" d="M253.83,18.88,328,181.07a11.7,11.7,0,0,1-5.76,15.46L213.85,246.12,130,62.71,238.37,13.13A11.7,11.7,0,0,1,253.83,18.88Z"/><path class="cls-6" d="M90,289.95,15.8,127.76a11.7,11.7,0,0,1,5.76-15.46L130,62.71l83.89,183.4L105.44,295.7A11.7,11.7,0,0,1,90,289.95Z"/></g><path class="cls-7" d="M103.47,124.49,74.59,137.7l-9.63-21,28.88-13.21Zm-28.3,11.64,26.73-12.23L93.26,105,66.53,117.24Z"/><path class="cls-7" d="M237.32,64.92,208.44,78.12l-9.63-21,28.88-13.21ZM209,76.56l26.73-12.23-8.64-18.9L200.38,57.66Z"/><path class="cls-7" d="M302.3,178.86l-28.88,13.21-9.63-21,28.88-13.21ZM274,190.5l26.73-12.23-8.64-18.9L265.36,171.6Z"/><path class="cls-7" d="M134.75,143.28l-28.88,13.21-9.63-21,28.88-13.21Zm-28.3,11.64,26.73-12.23-8.64-18.9L97.81,136Z"/><path class="cls-7" d="M189.76,149.82,160.88,163l-9.63-21,28.88-13.21Zm-28.3,11.64,26.73-12.23-8.64-18.9-26.73,12.23Z"/><path class="cls-7" d="M178,99.92l-28.88,13.21-9.63-21,28.88-13.21Zm-28.3,11.64,26.73-12.23-8.64-18.9L141.11,92.67Z"/><path class="cls-7" d="M118.8,184.59,89.93,197.8l-9.63-21,28.88-13.21Zm-28.3,11.64L117.24,184l-8.64-18.9L81.87,177.34Z"/><path class="cls-7" d="M234,110.32l-28.88,13.21-9.63-21,28.88-13.21ZM205.67,122l26.73-12.23-8.64-18.9L197,103.07Z"/><path class="cls-7" d="M283.88,122.17,255,135.38l-9.63-21,28.88-13.21Zm-28.3,11.64,26.73-12.23-8.64-18.9-26.73,12.23Z"/><path class="cls-7" d="M216.16,204.7l-28.88,13.21-9.63-21,28.88-13.21Zm-28.3,11.64,26.73-12.23L206,185.22l-26.73,12.23Z"/><path class="cls-7" d="M253.27,155.69,224.39,168.9l-9.63-21,28.88-13.21ZM225,167.33,251.7,155.1l-8.64-18.9-26.73,12.23Z"/><path class="cls-7" d="M123.23,227.2,94.35,240.41l-9.63-21,28.88-13.21Zm-28.3,11.64,26.73-12.23L113,207.72,86.29,219.95Z"/><path class="cls-7" d="M156.77,250.46l-28.88,13.21-9.63-21,28.88-13.21Zm-28.3,11.64,26.73-12.23L146.56,231l-26.73,12.23Z"/><path class="cls-7" d="M171.05,195.93l-28.88,13.21-9.63-21,28.88-13.21Zm-28.3,11.64,26.73-12.23-8.64-18.9-26.73,12.23Z"/><polygon class="cls-7" points="137.58 103.4 120.08 111.41 117.11 104.92 100.06 112.71 99.57 111.64 117.69 103.35 120.66 109.84 137.09 102.33 137.58 103.4"/><path class="cls-8" d="M135,101.61a.17.17,0,0,0-.17.26l1.64,3.58a.17.17,0,0,0,.3,0l2.81-3.48c.1-.13.05-.23-.11-.24Z"/><polygon class="cls-7" points="275.57 159.6 274.5 160.09 266.49 142.57 252.15 149.13 251.65 148.06 267.07 141.01 275.57 159.6"/><path class="cls-8" d="M276.29,157.46a.17.17,0,0,0-.25-.17l-3.58,1.64a.17.17,0,0,0,0,.3L275.9,162c.13.1.23.05.24-.11Z"/><polygon class="cls-7" points="176.36 180.85 168.25 184.56 167.76 183.49 174.8 180.27 168.02 165.46 169.1 164.97 176.36 180.85"/><path class="cls-8" d="M167.31,167.6a.17.17,0,0,0,.25.17l3.58-1.64a.17.17,0,0,0,0-.3L167.7,163c-.13-.1-.23-.05-.24.11Z"/><rect class="cls-7" x="183.61" y="160.13" width="1.18" height="28.48" transform="translate(-55.84 92.42) rotate(-24.58)"/><path class="cls-8" d="M177,163.81a.17.17,0,0,0,.25.17l3.58-1.64a.17.17,0,0,0,0-.3l-3.48-2.81c-.13-.1-.23-.05-.24.11Z"/><polygon class="cls-7" points="84.67 167.76 83.59 168.25 78.06 156.14 58.85 164.93 44.87 134.37 64.62 125.34 65.11 126.41 46.44 134.95 59.43 163.36 78.64 154.58 84.67 167.76"/><path class="cls-8" d="M85.38,165.62a.17.17,0,0,0-.25-.17l-3.58,1.64a.17.17,0,0,0,0,.3L85,170.19c.13.1.23.05.24-.11Z"/><rect class="cls-7" x="87.9" y="139.13" width="1.18" height="28.18" transform="translate(-55.71 50.69) rotate(-24.58)"/><path class="cls-8" d="M81.38,142.79a.17.17,0,0,0,.25.17l3.58-1.64a.17.17,0,0,0,0-.3l-3.48-2.81c-.13-.1-.23-.05-.24.11Z"/><polygon class="cls-7" points="96.38 147.76 93.75 148.97 87.56 135.44 88.64 134.95 94.33 147.4 95.89 146.69 96.38 147.76"/><path class="cls-8" d="M93.74,146a.17.17,0,0,0-.17.26l1.64,3.58a.17.17,0,0,0,.3,0l2.81-3.48c.1-.13.05-.23-.11-.24Z"/><polygon class="cls-7" points="152.83 132.98 151.76 133.47 147.83 124.88 131.59 132.31 131.1 131.24 148.41 123.32 152.83 132.98"/><path class="cls-8" d="M153.55,130.84a.17.17,0,0,0-.25-.17l-3.58,1.64a.17.17,0,0,0,0,.3l3.48,2.81c.13.1.23.05.24-.11Z"/><polygon class="cls-7" points="199.42 70.53 183.54 77.8 174.88 58.86 77.75 103.29 79.36 106.81 78.29 107.3 76.19 102.71 175.46 57.3 184.12 76.23 198.93 69.46 199.42 70.53"/><path class="cls-8" d="M196.79,68.75a.17.17,0,0,0-.17.25l1.64,3.58a.17.17,0,0,0,.3,0l2.81-3.48c.1-.13.05-.23-.11-.24Z"/><polygon class="cls-7" points="191.04 108.71 167.59 119.44 163.01 109.44 164.08 108.95 168.17 117.88 190.55 107.64 191.04 108.71"/><path class="cls-8" d="M188.41,106.93a.17.17,0,0,0-.17.26l1.64,3.58a.17.17,0,0,0,.3,0l2.81-3.48c.1-.13.05-.23-.11-.24Z"/><polygon class="cls-7" points="166.87 132.21 165.8 132.7 163.32 127.29 193.01 113.72 193.5 114.79 164.89 127.87 166.87 132.21"/><path class="cls-8" d="M190.86,113a.17.17,0,0,0-.17.26l1.64,3.58a.17.17,0,0,0,.3,0l2.81-3.48c.1-.13.05-.23-.11-.24Z"/><rect class="cls-7" x="221.32" y="119.65" width="1.18" height="16.88" transform="translate(-33.17 103.91) rotate(-24.58)"/><path class="cls-8" d="M226.67,133.37a.17.17,0,0,0-.25-.17l-3.58,1.64a.17.17,0,0,0,0,.3l3.48,2.81c.13.1.23.05.24-.11Z"/><polygon class="cls-7" points="241.77 123.78 230.76 128.82 225.56 117.47 226.64 116.97 231.34 127.26 241.28 122.71 241.77 123.78"/><path class="cls-8" d="M239.14,122a.17.17,0,0,0-.17.26l1.64,3.58a.17.17,0,0,0,.3,0l2.81-3.48c.1-.13.05-.23-.11-.24Z"/><polygon class="cls-7" points="258.59 105.3 257.51 105.79 251.33 92.26 235.7 99.41 235.21 98.34 251.91 90.7 258.59 105.3"/><path class="cls-8" d="M237.85,100.12a.17.17,0,0,0,.17-.25l-1.64-3.58a.17.17,0,0,0-.3,0l-2.81,3.48c-.1.13-.05.23.11.24Z"/><polygon class="cls-7" points="263.59 98.35 262.51 98.84 248.93 69.15 226.21 79.55 223.37 73.33 224.44 72.84 226.79 77.98 249.51 67.59 263.59 98.35"/><path class="cls-8" d="M264.3,96.21A.17.17,0,0,0,264,96l-3.58,1.64a.17.17,0,0,0,0,.3l3.48,2.81c.13.1.23.05.24-.11Z"/><polygon class="cls-7" points="247.22 210.6 171.75 245.12 167.05 234.84 157.1 239.38 156.61 238.31 167.63 233.27 172.33 243.55 245.65 210.02 238.1 193.51 264.07 181.64 264.56 182.71 239.67 194.1 247.22 210.6"/><path class="cls-8" d="M159.25,240.1a.17.17,0,0,0,.17-.25l-1.64-3.58a.17.17,0,0,0-.3,0l-2.81,3.48c-.1.13-.05.23.11.24Z"/><polygon class="cls-7" points="90.88 211.37 89.8 211.86 87.98 207.88 97.45 203.55 94.73 197.59 95.8 197.1 99.02 204.13 89.55 208.46 90.88 211.37"/><path class="cls-8" d="M91.59,209.23a.17.17,0,0,0-.25-.17l-3.58,1.64a.17.17,0,0,0,0,.3l3.48,2.81c.13.1.23.05.24-.11Z"/><polygon class="cls-7" points="133.46 203.09 128.67 205.29 122.61 192.03 111.51 197.1 108.92 191.43 109.99 190.94 112.1 195.54 123.19 190.47 129.25 203.72 132.97 202.02 133.46 203.09"/><path class="cls-8" d="M130.83,201.31a.17.17,0,0,0-.17.25l1.64,3.58a.17.17,0,0,0,.3,0l2.81-3.48c.1-.13.05-.23-.11-.24Z"/><polygon class="cls-7" points="142.59 174.96 141.52 175.45 136.1 163.61 127.45 167.57 120.15 151.62 121.22 151.12 128.03 166.01 136.69 162.05 142.59 174.96"/><path class="cls-8" d="M143.31,172.81a.17.17,0,0,0-.25-.17l-3.58,1.64a.17.17,0,0,0,0,.3l3.48,2.81c.13.1.23.05.24-.11Z"/><polygon class="cls-7" points="117.59 257.79 97.38 267.03 81.54 232.41 86.14 230.31 86.63 231.38 83.11 233 97.96 265.47 117.1 256.71 117.59 257.79"/><path class="cls-8" d="M115,256a.17.17,0,0,0-.17.26l1.64,3.58a.17.17,0,0,0,.3,0l2.81-3.48c.1-.13.05-.23-.11-.24Z"/><polygon class="cls-7" points="135.84 232.43 134.77 232.92 130.81 224.27 158.67 211.53 157.22 208.35 158.29 207.86 160.24 212.11 132.37 224.85 135.84 232.43"/><path class="cls-8" d="M156.51,210.49a.17.17,0,0,0,.25.17l3.58-1.64a.17.17,0,0,0,0-.3l-3.48-2.81c-.13-.1-.23-.05-.24.11Z"/><polygon class="cls-7" points="173.31 222.81 153.03 232.09 152.54 231.02 171.75 222.23 167.42 212.76 176.27 208.71 176.76 209.79 168.98 213.34 173.31 222.81"/><path class="cls-8" d="M174.13,208a.17.17,0,0,0-.17.26l1.64,3.58a.17.17,0,0,0,.3,0l2.81-3.48c.1-.13.05-.23-.11-.24Z"/><polygon class="cls-7" points="230.37 208.82 206.03 219.95 203.19 213.73 204.26 213.24 206.62 218.38 228.81 208.23 209.75 166.57 214.54 164.38 215.04 165.45 211.32 167.16 230.37 208.82"/><path class="cls-8" d="M212.4,163.67a.17.17,0,0,0-.17.26l1.64,3.58a.17.17,0,0,0,.3,0l2.81-3.48c.1-.13.05-.23-.11-.24Z"/><polygon class="cls-7" points="217.54 145.01 216.47 145.5 210.9 133.33 194.47 140.84 193.97 139.77 211.48 131.76 217.54 145.01"/><path class="cls-8" d="M196.61,141.56a.17.17,0,0,0,.17-.25l-1.64-3.58a.17.17,0,0,0-.3,0L192,141.17c-.1.13-.05.23.11.24Z"/><polygon class="cls-7" points="283.22 154.14 282.14 154.63 275.99 141.18 280.86 138.96 276.16 128.67 277.23 128.18 282.43 139.54 277.56 141.76 283.22 154.14"/><path class="cls-8" d="M283.93,152a.17.17,0,0,0-.25-.17l-3.58,1.64a.17.17,0,0,0,0,.3l3.48,2.81c.13.1.23.05.24-.11Z"/><path class="cls-7" d="M96.21,117.19,74,127.33l-1.89-4.14,22.18-10.14Zm-21.59,8.58,20-9.16-.91-2-20,9.16Z"/><path class="cls-7" d="M126.16,132.61,104,142.75l-1.89-4.13,22.17-10.14Zm-21.59,8.58,20-9.16-.91-2-20,9.16Z"/><path class="cls-7" d="M128.62,138.68l-22.18,10.14-1.89-4.13,22.18-10.14ZM107,147.26l20-9.16-.91-2-20,9.16Z"/><path class="cls-7" d="M165.24,91.51l-14,6.41-1.89-4.14,14-6.41ZM151.8,96.36l11.88-5.43-.91-2-11.88,5.43Z"/><path class="cls-7" d="M171.77,95.72,149.6,105.86l-1.89-4.14,22.18-10.14Zm-21.59,8.58,20-9.16-.91-2-20,9.16Z"/><path class="cls-7" d="M110.26,172.92,88.08,183.06l-1.89-4.14,22.17-10.14ZM88.66,181.5l20-9.16-.91-2-20,9.16Z"/><path class="cls-7" d="M112.71,179,90.53,189.14,88.64,185l22.18-10.14Zm-21.59,8.58,20-9.16-.91-2-20,9.16Z"/><path class="cls-7" d="M115.45,220,93.27,230.17,91.38,226l22.17-10.14Zm-21.59,8.58,20-9.16-.91-2-20,9.16Z"/><path class="cls-7" d="M150,242.72l-22.18,10.14L126,248.73l22.18-10.14Zm-21.59,8.58,20-9.16-.91-2-20,9.16Z"/><path class="cls-7" d="M161.39,189.77l-16.63,7.61-1.89-4.14,16.63-7.61Zm-16,6,14.48-6.62-.91-2-14.48,6.62Z"/><path class="cls-7" d="M178.56,144.62l-14.81,6.77-1.89-4.13,14.81-6.77Zm-14.23,5.21L177,144l-.91-2-12.66,5.79Z"/><path class="cls-7" d="M207,194.11l-22.18,10.14-1.89-4.14L205.07,190Zm-21.59,8.58,20-9.16-.91-2-20,9.16Z"/><path class="cls-7" d="M209.41,200.19l-22.17,10.14-1.89-4.14,22.17-10.14Zm-21.59,8.58,20-9.16-.91-2-20,9.16Z"/><path class="cls-7" d="M244,145.75l-22.17,10.14L220,151.75l22.17-10.14Zm-21.59,8.58,20-9.16-.91-2-20,9.16Z"/><path class="cls-7" d="M241.85,153.95,229,159.84l-1.89-4.14L240,149.81Zm-12.3,4.33,10.73-4.91-.91-2-10.73,4.91Z"/><path class="cls-7" d="M292.16,167.25,270,177.39l-1.89-4.14,22.17-10.14Zm-21.59,8.58,20-9.16-.91-2-20,9.16Z"/><path class="cls-7" d="M292.75,177.25l-14.32,6.55-1.89-4.14,14.32-6.55Zm-13.74,5,12.17-5.57-.91-2-12.17,5.57Z"/><path class="cls-7" d="M222.38,104.62l-14.2,6.5L206.29,107l14.2-6.5Zm-13.62,4.93L220.82,104l-.91-2-12.05,5.51Z"/><path class="cls-7" d="M276,114.77l-22.18,10.14-1.89-4.14,22.18-10.14Zm-21.59,8.58,20-9.16-.91-2-20,9.16Z"/><path class="cls-7" d="M228,58.24l-17.42,8-1.89-4.14,17.42-8Zm-16.84,6.4,15.27-7-.91-2-15.27,7Z"/><rect class="cls-1" x="187.24" y="47.45" width="6.85" height="229.28" transform="translate(-50.15 93.99) rotate(-24.58)"/><rect class="cls-9" x="185" y="46.62" width="6.85" height="229.28" transform="translate(-50 92.99) rotate(-24.58)"/></g></g></svg>