<svg xmlns="http://www.w3.org/2000/svg" viewBox="0 0 272.72 381.54"><defs><style>.cls-1,.cls-4{fill-rule:evenodd;}.cls-1{opacity:0.15;}.cls-2{fill:#b2b2b2;}.cls-3{fill:#fff;}.cls-4{fill:#8b8d8e;}</style></defs><title>wireframe</title><g id="Layer_2" data-name="Layer 2"><g id="Layer_3" data-name="Layer 3"><path class="cls-1" d="M177,59l4.48-30.36a11.88,11.88,0,0,0-10-13.44h0a11.72,11.72,0,0,0-4,.1A11.88,11.88,0,0,0,158,25.18l-4.48,30.37L57.79,41.43,12.32,349.85l214.93,31.69L272.72,73.12ZM164.35,26.12a5.45,5.45,0,0,1,4.33-4.55,5.35,5.35,0,0,1,1.85,0,5.44,5.44,0,1,1-6.18,4.59Z"/><rect class="cls-2" x="-25.68" y="87.79" width="311.76" height="217.25" transform="translate(-83.11 296.58) rotate(-81.61)"/><rect class="cls-3" x="-13.72" y="100.3" width="286.34" height="202.46" transform="translate(-88.81 300.2) rotate(-81.61)"/><path class="cls-4" d="M185.61,50.93l-21.08-3.11,4.68,23.65L189,74.39l2.33-15.78a6.79,6.79,0,0,0-5.71-7.68Zm-21.34-4.41,4.86-33a11.87,11.87,0,0,0-10-13.44h0a11.71,11.71,0,0,0-4,.1l1.24,6.27a5.35,5.35,0,0,1,1.85,0,5.44,5.44,0,0,1,.26,10.72Zm.26,1.3-.44-.07.18-1.23-5.8-29.34A5.44,5.44,0,0,1,156.36,6.5L155.12.23a11.88,11.88,0,0,0-9.42,9.88l-5,34.19-21.52-3.17a6.79,6.79,0,0,0-7.68,5.71l-2.33,15.78,60.07,8.86Z"/><path class="cls-2" d="M188.32,313.14a.58.58,0,0,1-.2,0L113.78,302,39.48,290.79a.59.59,0,0,1-.5-.67l29.62-197a.59.59,0,0,1,.67-.5l74.31,11.17L217.92,115a.59.59,0,0,1,.5.67l-29.62,197A.59.59,0,0,1,188.32,313.14ZM40.24,289.7,114,300.79l73.75,11.09,29.45-195.81L143.41,105,69.69,93.9Z"/><path class="cls-2" d="M216.51,125.73a.59.59,0,0,1-.2,0L67.66,103.38a.59.59,0,0,1-.5-.67l1.44-9.57a.59.59,0,0,1,.67-.5l74.31,11.17L217.92,115a.59.59,0,0,1,.5.67L217,125.24a.59.59,0,0,1-.47.49ZM68.42,102.3,215.9,124.48l1.26-8.41L143.41,105,69.69,93.9Z"/><path class="cls-2" d="M173.71,140.15a.6.6,0,0,1-.2,0l-69.19-10.41a.59.59,0,0,1-.5-.67L106,114.49a.59.59,0,0,1,.67-.5l69.19,10.41a.59.59,0,0,1,.5.67l-2.19,14.58a.59.59,0,0,1-.47.49Zm-68.64-11.48,68,10.23,2-13.41-68-10.23Z"/><path class="cls-2" d="M204.84,203.34a.59.59,0,0,1-.2,0L130.3,192.17,56,181a.59.59,0,0,1-.5-.67l6-40.16a.59.59,0,0,1,.67-.5L210.85,162a.59.59,0,0,1,.5.67l-6,40.16a.59.59,0,0,1-.47.49ZM56.75,179.91,130.47,191l73.75,11.09,5.86-39L62.61,140.92Z"/><path class="cls-2" d="M183.11,153.62a.58.58,0,0,1-.2,0l-45.78-6.88-45.77-6.88a.59.59,0,0,1-.5-.67l.92-6.11a.59.59,0,0,1,.67-.5l45.77,6.88L184,146.36a.59.59,0,0,1,.5.67l-.92,6.1A.59.59,0,0,1,183.11,153.62Zm-91-14.84,45.18,6.8,45.2,6.8.74-4.93-45.2-6.8-45.18-6.79Z"/><path class="cls-2" d="M96.42,228.47a.58.58,0,0,1-.2,0l-37.32-5.61a.59.59,0,0,1-.5-.67l4.88-32.47a.59.59,0,0,1,.67-.5l17.12,2.58,20.2,3a.59.59,0,0,1,.5.67L96.89,228A.59.59,0,0,1,96.42,228.47Zm-36.77-6.69,36.16,5.44,4.71-31.29L80.9,193l-16.54-2.49Z"/><path class="cls-2" d="M143.07,235.49a.58.58,0,0,1-.2,0l-37.32-5.61a.59.59,0,0,1-.5-.67l4.88-32.46a.59.59,0,0,1,.67-.5l18.65,2.81,18.67,2.81a.59.59,0,0,1,.5.67L143.54,235A.59.59,0,0,1,143.07,235.49Zm-36.77-6.69,36.15,5.43,4.71-31.29-18.09-2.72L111,197.51Z"/><path class="cls-2" d="M189.73,242.51a.58.58,0,0,1-.2,0l-18.67-2.81-18.65-2.81a.59.59,0,0,1-.5-.67l4.88-32.46a.59.59,0,0,1,.67-.5l37.32,5.62a.59.59,0,0,1,.5.67L190.2,242A.59.59,0,0,1,189.73,242.51ZM153,235.81,171,238.53l18.09,2.72L193.83,210l-36.15-5.44Z"/><path class="cls-2" d="M188.32,313.14a.59.59,0,0,1-.2,0L113.78,302,39.48,290.79a.59.59,0,0,1-.5-.67q1.32-8.74,2.63-17.49a.59.59,0,0,1,.67-.5l148.64,22.36a.59.59,0,0,1,.5.67l-2.63,17.49a.59.59,0,0,1-.47.49ZM40.24,289.7,114,300.79l73.75,11.09,2.45-16.32L42.69,273.38Q41.47,281.54,40.24,289.7Z"/><path class="cls-2" d="M94.83,239a.58.58,0,0,1-.2,0L76,236.23l-18.65-2.8a.59.59,0,0,1-.5-.67l.92-6.11a.59.59,0,0,1,.67-.5L77.05,229l18.67,2.81a.59.59,0,0,1,.5.67l-.92,6.1A.59.59,0,0,1,94.83,239Zm-36.77-6.69,18.07,2.72,18.08,2.72.75-4.94-18.09-2.72L58.8,227.4Z"/><path class="cls-2" d="M93.25,249.53a.58.58,0,0,1-.2,0l-37.33-5.62a.59.59,0,0,1-.5-.67l.92-6.1a.59.59,0,0,1,.67-.5l18.66,2.81,18.67,2.8a.59.59,0,0,1,.5.67L93.72,249A.59.59,0,0,1,93.25,249.53Zm-36.77-6.69,36.16,5.44.74-4.94L75.3,240.62,57.23,237.9Z"/><path class="cls-2" d="M91.67,260a.58.58,0,0,1-.2,0L54.15,254.4a.59.59,0,0,1-.5-.67l.92-6.11a.59.59,0,0,1,.67-.5l37.32,5.62a.59.59,0,0,1,.5.67l-.92,6.1A.59.59,0,0,1,91.67,260Zm-36.77-6.69,36.15,5.44.74-4.93-36.15-5.44Z"/><path class="cls-2" d="M76.41,268.45a.6.6,0,0,1-.2,0l-23.64-3.56a.59.59,0,0,1-.5-.67l.92-6.1a.59.59,0,0,1,.67-.5l23.63,3.55a.59.59,0,0,1,.5.67L76.87,268a.58.58,0,0,1-.23.39A.57.57,0,0,1,76.41,268.45Zm-23.08-4.63,22.47,3.38.74-4.94-22.46-3.38Z"/><path class="cls-2" d="M141.49,246a.58.58,0,0,1-.2,0l-18.67-2.81L104,240.44a.59.59,0,0,1-.5-.67l.92-6.11a.59.59,0,0,1,.67-.5L123.71,236l18.67,2.81a.59.59,0,0,1,.5.67l-.92,6.11A.59.59,0,0,1,141.49,246Zm-36.77-6.69,18.07,2.72,18.08,2.72.74-4.94-18.08-2.72-18.07-2.72Z"/><path class="cls-2" d="M139.91,256.55a.59.59,0,0,1-.2,0l-37.33-5.62a.59.59,0,0,1-.5-.67l.92-6.1a.59.59,0,0,1,.67-.5l18.65,2.81,18.67,2.81a.59.59,0,0,1,.5.67l-.92,6.11a.59.59,0,0,1-.23.39A.58.58,0,0,1,139.91,256.55Zm-36.77-6.69,36.16,5.44.74-4.94L122,247.64l-18.07-2.72Z"/><path class="cls-2" d="M138.33,267a.58.58,0,0,1-.2,0l-18.67-2.8-18.31-2.75-.34-.05a.59.59,0,0,1-.5-.67l.92-6.11a.59.59,0,0,1,.67-.5l19.84,3,17.48,2.63a.59.59,0,0,1,.5.67l-.92,6.1A.59.59,0,0,1,138.33,267Zm-36.76-6.69,18.07,2.72,18.08,2.72.74-4.94-16.9-2.54-19.25-2.9Z"/><path class="cls-2" d="M123.06,275.47a.59.59,0,0,1-.2,0l-23.63-3.56a.59.59,0,0,1-.5-.67l.92-6.1a.59.59,0,0,1,.67-.5L124,268.19a.59.59,0,0,1,.5.67l-.92,6.11A.59.59,0,0,1,123.06,275.47ZM100,270.83l22.47,3.38.74-4.94-22.47-3.38Z"/><path class="cls-2" d="M188.14,253.06a.59.59,0,0,1-.2,0l-37.32-5.62a.59.59,0,0,1-.5-.67l.17-1.12q.37-2.48.75-5a.59.59,0,0,1,.67-.5L189,245.79a.59.59,0,0,1,.5.67l-.92,6.11A.59.59,0,0,1,188.14,253.06Zm-36.77-6.69,36.15,5.44.74-4.94-36.16-5.44q-.34,2.21-.66,4.4Z"/><path class="cls-2" d="M186.57,263.56a.6.6,0,0,1-.2,0l-20.2-3L149,258a.59.59,0,0,1-.5-.67l.92-6.11a.59.59,0,0,1,.67-.5l37.32,5.62a.59.59,0,0,1,.5.67l-.92,6.11a.59.59,0,0,1-.47.49Zm-36.77-6.69,16.54,2.49,19.62,3,.74-4.94-36.16-5.44Z"/><path class="cls-2" d="M185,274a.58.58,0,0,1-.2,0l-18.67-2.81-18.65-2.81a.59.59,0,0,1-.5-.67c.31-2,.61-4.05.92-6.1a.59.59,0,0,1,.67-.5L167.21,264l18.67,2.8a.59.59,0,0,1,.5.67l-.92,6.11A.59.59,0,0,1,185,274Zm-36.77-6.69,18.07,2.72,18.09,2.72.74-4.94L167,265.13,149,262.42C148.72,264.07,148.47,265.71,148.22,267.35Z"/><path class="cls-2" d="M169.72,282.48a.59.59,0,0,1-.2,0l-23.64-3.56a.59.59,0,0,1-.5-.67q.36-2.34.71-4.7l.21-1.41a.59.59,0,0,1,.67-.5l23.64,3.56a.59.59,0,0,1,.5.67l-.92,6.11a.59.59,0,0,1-.47.49Zm-23.08-4.63,22.47,3.38.74-4.94-22.47-3.38-.12.82Q147,275.8,146.64,277.85Z"/><path class="cls-2" d="M194,186.27l-.23,0a1.16,1.16,0,0,1-.87-.41,1.29,1.29,0,0,1,.06-1.73l.37-.39,2.69-2.83c-.66-1.32-1.33-2.66-2-4a1.28,1.28,0,0,1,.48-1.68,1.13,1.13,0,0,1,.93-.12,1.16,1.16,0,0,1,.72.63q1.17,2.39,2.37,4.77l0,.1a.61.61,0,0,1,.06.2.53.53,0,0,1,0,.11.6.6,0,0,1,0,.19.53.53,0,0,1,0,.16v0a.85.85,0,0,1,0,.16l0,.08,0,.06a.41.41,0,0,1-.1.2.62.62,0,0,1-.1.13l-.08.09-3.41,3.59-.26.27A1.13,1.13,0,0,1,194,186.27Zm1.1-10a.18.18,0,0,0,0,.14h0c.71,1.45,1.43,2.91,2.15,4.35a.59.59,0,0,1-.1.67l-3,3.13-.37.39a.12.12,0,0,0,0,.14l.25-.28,3.42-3.6h0l0,0s0,0,0-.05h0l0-.08C196.64,179.45,195.85,177.87,195.07,176.27Z"/><path class="cls-2" d="M72,167.91a1.17,1.17,0,0,1-.56,0,1.16,1.16,0,0,1-.72-.62L70.07,166q-.88-1.77-1.76-3.55l0,0a.69.69,0,0,1-.06-.15.59.59,0,0,1,0-.2.66.66,0,0,1,0-.19.59.59,0,0,1,0-.17.71.71,0,0,1,0-.11.5.5,0,0,1,.1-.27l0,0v0a.68.68,0,0,1,.15-.22l.08-.09.41-.43q1.63-1.7,3.26-3.43a1.15,1.15,0,0,1,.86-.38,1.17,1.17,0,0,1,.87.4,1.29,1.29,0,0,1-.05,1.74l-3.06,3.23c.65,1.33,1.31,2.67,2,4a1.28,1.28,0,0,1-.48,1.69A1.09,1.09,0,0,1,72,167.91Zm-2.59-6,0,.06,1.74,3.5.62,1.25a.16.16,0,0,0,0-.14c-.72-1.44-1.45-2.9-2.16-4.36a.59.59,0,0,1,.1-.67L73,158.06a.14.14,0,0,0,0-.13q-1.63,1.73-3.26,3.43l-.42.44h0l0,0h0v.1Z"/></g></g></svg>