<svg xmlns="http://www.w3.org/2000/svg" viewBox="0 0 133.53 135.53"><defs><style>.cls-1{opacity:0.1;}.cls-2{fill:#757575;}.cls-3{fill:#bfbfbf;}.cls-4{opacity:0.06;}.cls-5{fill:#d1d1d1;}.cls-6{fill:#fff;opacity:0.2;}.cls-7{fill:#f2605c;}.cls-8{fill:#ff7366;}.cls-9{fill:#171717;}</style></defs><title>xizato</title><g id="Layer_2" data-name="Layer 2"><g id="Layer_3" data-name="Layer 3"><g id="Cutter"><path class="cls-1" d="M129.88,10.47c-1.4-2.19-4.64-6.05-11.22-8.89A22,22,0,0,0,114,.29a19.08,19.08,0,0,0-5.44-.17l-.21,0-.19,0-.2,0-.19,0-.21,0-.19,0-.2,0-.2,0-.19,0-.21,0-.19,0-.2,0-.2,0-.2,0-.21,0-.19,0-.2,0-.2,0-.21,0-.19,0-.2,0-.2,0-.2,0-.21,0-.19,0-.2,0-.2,0-.2,0-.21,0-.19,0-.2,0-.2,0-.21,0-.19,0-.2,0-.2,0-.19,0-.21,0-.19,0-.2,0-.19,0-.2,0-.21,0-.19,0-.2,0-.19,0-.21,0L99,.91a19.44,19.44,0,0,0-2.71.47,20.14,20.14,0,0,0-5.82,2.34h0L90.07,4,90,4.06l-.19.13-.14.09-.11.08-.14.1-.08.06-.09.07-.09.06h0L89,4.79l-.18,0a.92.92,0,0,0-.35.05A21.27,21.27,0,0,0,86,6.66c-.39.47-.68.66-.16,1.52a8,8,0,0,1,.41.74h-.19l-.2,0-.2,0-.2,0-.19,0-.2,0-.2,0-.2,0-.19,0-.21,0a1.32,1.32,0,0,0-.89.3L82,11a.9.9,0,0,0,.21,1.13,4.22,4.22,0,0,1,.51.61l-.19,0-.2,0-.2,0-.2,0-.19,0-.2,0-.2,0-.2,0-.19,0-.2,0c-.38,0-.82.18-1.39.85-.74.88-1.18,1.49-.81,1.91.2.22.51.51.75.77h0l-.2,0-.2,0-.2,0-.2,0-.2,0-.2,0-.2,0-.2,0-.2,0-.2,0a.55.55,0,0,0-.28,0c-.35.23-2,1.71-2.12,2.2s.69,1.11,1,1.6h0l-.2,0-.19,0-.2,0-.2,0-.2,0-.2,0-.19,0-.2,0-.2,0-.2,0-.19,0-.2,0c-.15,0-.26,0-.3.06-.24.28-1.44,1.69-1.51,1.79a.59.59,0,0,0,.11.81,11.12,11.12,0,0,1,.82,1h0l-.2,0-.2,0-.19,0-.2,0-.2,0-.2,0-.2,0-.19,0-.2,0-.2,0-.2,0-.19,0-.2,0c-.15,0-.26,0-.3.06l-1.34,1.58c-.23.27-.27.82.32,1.32a2.71,2.71,0,0,1,.57.61h-.14l-.2,0-.19,0-.2,0-.2,0-.2,0-.2,0-.19,0-.2,0-.2,0-.2,0-.19,0-.2,0a.63.63,0,0,0-.38.09L64.8,30.2a1.39,1.39,0,0,0,.14,1.12,5.36,5.36,0,0,1,1,.71h0l-.2,0-.19,0-.2,0-.2,0-.2,0-.2,0-.2,0-.2,0h-.2l-.2,0-.19,0-.2,0a.54.54,0,0,0-.41.11c-.46.49-2.09,2.15-1.61,2.56s1.33.72,1.38,1.17h-.11l-.2,0-.2,0-.2,0-.19,0-.2,0-.2,0-.2,0-.2,0-.19,0-.2,0-.2,0-.2,0-.19,0-.2,0a.67.67,0,0,0-.51.16c-.45.53-1.84,1.93-1.38,2.32s1.42.64,1.46,1.21h-.09l-.2,0-.2,0-.19,0-.2,0-.2,0-.2,0-.2,0-.19,0-.2,0-.2,0-.2,0-.2,0-.2,0a.85.85,0,0,0-.69.28c-.77.91-2,2-1.47,2.49s1.55.56,1.63,1h0l-.2,0-.2,0-.2,0-.19,0-.2,0-.2,0-.2,0-.2,0-.19,0-.2,0-.2,0-.2,0-.19,0-.2,0a.67.67,0,0,0-.52.17c-.5.59-2,2.16-1.46,2.6s1.51.37,1.53,1H53l-.2,0-.2,0-.19,0-.2,0-.2,0-.2,0-.2,0h-.19l-.2,0-.2,0-.2,0-.19,0-.2,0a.84.84,0,0,0-.68.27c-.76.9-2,2.07-1.52,2.44s1.93.77,1.63,1.33H49.8l-.2,0-.2,0-.2,0-.2,0-.2,0-.2,0-.2,0-.2,0-.2,0-.2,0-.2,0-.2,0-.2,0-.2,0-.2,0a.55.55,0,0,0-.44.14s-24.32,33-24.83,34.13A7,7,0,0,0,21.3,90c0,.28.67.64,1.06.82l-10.1,11.93h0a2.56,2.56,0,0,0-.37,2.42l.5,1.19-5.25,6.2-.55.65L0,121l4.62,14.52,10.12-.84,6.6-7.79.55-.65,6.29-7.43.55-.65,5.13-6.05.14,0,.19,0,.2,0,.2,0,.2,0,.19,0,.2,0a2.61,2.61,0,0,0,1.8-.81L49.2,96.76h.14l.2,0,.2,0,.2,0,.2,0,.2,0,.2,0,.2,0,.2,0,.2,0,.2,0,.2,0,.2,0,.2,0,.2,0,.2,0,.2,0,.19,0,.2,0a4,4,0,0,0,.86-.17,3.54,3.54,0,0,0,1.9-1.07L88,60.56s.21-.2-.63-.66c-.51-.29-.74-.57-.78-.81h.05l.2,0,.2,0,.2,0,.2,0,.2,0,.2,0,.2,0,.2,0,.2,0,.2,0,.2,0,.2,0c.41,0,.77-.22,1.55-1.14,1.11-1.31,1.27-1.56.45-1.78a1.59,1.59,0,0,1-1.1-.77l.18,0,.2,0,.2,0,.2,0,.2,0,.2,0,.2,0,.2,0,.2,0,.2,0,.2,0,.19,0,.2,0c.36,0,.56-.16.9-.55l1.35-1.6c.32-.37.37-.72-.25-.88a1.57,1.57,0,0,1-1.08-.67h.1l.2,0,.2,0,.19,0,.2,0,.2,0,.2,0,.2,0,.19,0,.2,0,.2,0,.2,0,.19,0,.2,0a1,1,0,0,0,.81-.4,14.88,14.88,0,0,0,1.77-2.09c.07-.28-.7-.42-1.06-.58a.73.73,0,0,1-.41-.41l.2,0,.2,0,.19,0,.2,0,.2,0,.2,0,.2,0,.19,0,.2,0,.2,0,.2,0,.19,0,.2,0c.4,0,.7-.18,1.35-.71,1.12-.92,1.86-1.5,1.92-1.84s-.63-.48-1-.62a1.06,1.06,0,0,1-.56-.39h.07l.2,0,.2,0,.19,0,.2,0,.2,0,.2,0,.2,0,.19,0,.2,0,.2,0,.2,0,.19,0,.2,0a1.63,1.63,0,0,0,1-.36c.74-.58,2.26-1.77,2.41-1.91a.37.37,0,0,0-.24-.62c-.38,0-1.06-.27-1.2-.71h0l.19,0,.2,0,.2,0,.2,0,.2,0,.19,0,.2,0,.2,0,.2,0,.2,0,.19,0,.2,0,.2,0,.2,0,.19,0,.2,0a1.73,1.73,0,0,0,1-.39c.42-.26,2.42-1.61,2.71-1.81s.46-.66-.14-.76-1.07-.25-1.21-.53h2.89a9.87,9.87,0,0,0,3.61-1.54c1-.61,1-.91.9-1.06s-.89-.19-1.22-.41a.87.87,0,0,1-.18-.16h.09l.21,0,.19,0,.2,0,.2,0,.2,0,.21,0,.19,0,.2,0,.2,0,.2,0,.2,0,.19,0,.2,0,.2,0,.21,0,.19,0,.2,0a5.27,5.27,0,0,0,2.35-.67c1.85-1,2.44-1.37,2.29-1.57s-.87-.38-1.21-.63h0l.19,0,.21,0,.18,0,.2,0,.2,0,.19,0,.21,0,.18,0,.2,0,.2,0,.2,0,.21,0,.18,0,.2,0,.2,0,.21,0,.18,0,.2,0a5.33,5.33,0,0,0,3.91-1.81c2-2.32,2.06-11.69-.84-15.24a.38.38,0,0,0-.44-.12h0a11.2,11.2,0,0,0-.92-1.7ZM119.43,25.4a3.69,3.69,0,0,1-1.72,1.14,2.73,2.73,0,0,1,.43-2.82,2.76,2.76,0,0,1,.48-.44l1.59-1.13A3.73,3.73,0,0,1,119.43,25.4Z"/><polygon class="cls-2" points="23.66 112.6 14.4 110.81 11.89 105.19 92.84 9.6 103.35 18.5 23.66 112.6"/><polygon class="cls-3" points="61.1 48.86 70.95 57.2 4.62 135.53 3.96 133.47 0 121.01 61.1 48.86"/><polygon class="cls-4" points="7.15 112.57 11.77 127.09 11.22 127.73 6.6 113.21 7.15 112.57"/><polygon class="cls-4" points="14 104.48 18.61 119.01 18.06 119.65 13.45 105.13 14 104.48"/><polygon class="cls-4" points="20.84 96.4 25.45 110.93 24.91 111.57 20.29 97.06 20.84 96.4"/><polygon class="cls-4" points="27.68 88.32 32.3 102.84 31.75 103.49 27.13 88.97 27.68 88.32"/><polygon class="cls-4" points="34.53 80.24 39.14 94.76 38.59 95.41 33.98 80.89 34.53 80.24"/><polygon class="cls-4" points="41.37 72.16 45.98 86.69 45.44 87.33 40.82 72.81 41.37 72.16"/><polygon class="cls-1" points="69.56 56.01 70.95 57.2 4.62 135.53 3.96 133.47 69.56 56.01"/><path class="cls-1" d="M12.81,103.23a2.56,2.56,0,0,0-.37,2.42l1,2.32a.81.81,0,0,0,1.49.23L96.08,12.35,92.41,9.24Z"/><path class="cls-5" d="M12.26,102.77a2.56,2.56,0,0,0-.37,2.42l1,2.32a.81.81,0,0,0,1.49.23L95.54,11.89,91.86,8.78Z"/><path class="cls-1" d="M21.1,110.36a.81.81,0,0,0,.47,1.42l2.42.56a2.58,2.58,0,0,0,2.33-.77l78.07-92.19-3.63-3.08Z"/><path class="cls-5" d="M21.65,110.82a.81.81,0,0,0,.47,1.42l2.42.56a2.58,2.58,0,0,0,2.33-.77l78.07-92.19-3.63-3.08Z"/><path class="cls-6" d="M101.3,16.76l.55.46L22.2,111.28a.88.88,0,0,0-.22.92.79.79,0,0,1-.32-1.38Z"/><path class="cls-6" d="M91.86,8.78l.55.46-79.6,94a2.56,2.56,0,0,0-.36,2.42l1,2.32.07.13a.92.92,0,0,1-.61-.6l-1-2.32a2.56,2.56,0,0,1,.36-2.42Z"/><g class="cls-1"><rect x="52.95" y="49.57" width="26.23" height="10.03" rx="1.32" ry="1.32" transform="translate(-18.29 69.72) rotate(-49.74)"/></g><rect class="cls-7" x="51.94" y="48.72" width="26.23" height="10.03" rx="1.32" ry="1.32" transform="translate(-17.99 68.65) rotate(-49.74)"/><circle class="cls-1" cx="56.47" cy="60.24" r="0.88" transform="translate(-26 64.4) rotate(-49.74)"/><circle class="cls-8" cx="56.16" cy="59.98" r="0.88" transform="translate(-25.91 64.07) rotate(-49.74)"/><circle class="cls-1" cx="59.19" cy="57.03" r="0.88" transform="translate(-22.58 65.34) rotate(-49.74)"/><circle class="cls-8" cx="58.88" cy="56.77" r="0.88" transform="translate(-22.49 65.01) rotate(-49.74)"/><circle class="cls-1" cx="61.91" cy="53.82" r="0.88" transform="translate(-19.17 66.28) rotate(-49.74)"/><circle class="cls-8" cx="61.6" cy="53.56" r="0.88" transform="translate(-19.08 65.95) rotate(-49.74)"/><circle class="cls-1" cx="64.63" cy="50.61" r="0.88" transform="translate(-15.76 67.22) rotate(-49.74)"/><circle class="cls-8" cx="64.32" cy="50.35" r="0.88" transform="translate(-15.67 66.89) rotate(-49.74)"/><circle class="cls-1" cx="67.34" cy="47.4" r="0.88" transform="translate(-12.35 68.16) rotate(-49.74)"/><circle class="cls-8" cx="67.04" cy="47.13" r="0.88" transform="translate(-12.26 67.83) rotate(-49.74)"/><circle class="cls-1" cx="70.06" cy="44.18" r="0.88" transform="translate(-8.93 69.1) rotate(-49.74)"/><circle class="cls-8" cx="69.76" cy="43.92" r="0.88" transform="translate(-8.84 68.77) rotate(-49.74)"/><circle class="cls-1" cx="58.52" cy="61.98" r="0.88" transform="translate(-26.6 66.58) rotate(-49.74)"/><circle class="cls-8" cx="58.21" cy="61.72" r="0.88" transform="translate(-26.51 66.25) rotate(-49.74)"/><circle class="cls-1" cx="61.24" cy="58.77" r="0.88" transform="translate(-23.18 67.52) rotate(-49.74)"/><circle class="cls-8" cx="60.93" cy="58.51" r="0.88" transform="translate(-23.09 67.19) rotate(-49.74)"/><circle class="cls-1" cx="63.96" cy="55.56" r="0.88" transform="translate(-19.77 68.46) rotate(-49.74)"/><circle class="cls-8" cx="63.65" cy="55.3" r="0.88" transform="translate(-19.68 68.13) rotate(-49.74)"/><circle class="cls-1" cx="66.68" cy="52.35" r="0.88" transform="translate(-16.36 69.4) rotate(-49.74)"/><circle class="cls-8" cx="66.37" cy="52.08" r="0.88" transform="translate(-16.27 69.07) rotate(-49.74)"/><circle class="cls-1" cx="69.4" cy="49.13" r="0.88" transform="translate(-12.95 70.34) rotate(-49.74)"/><circle class="cls-8" cx="69.09" cy="48.87" r="0.88" transform="matrix(0.65, -0.76, 0.76, 0.65, -12.86, 70.01)"/><circle class="cls-1" cx="72.12" cy="45.92" r="0.88" transform="translate(-9.53 71.28) rotate(-49.74)"/><circle class="cls-8" cx="71.81" cy="45.66" r="0.88" transform="translate(-9.44 70.95) rotate(-49.74)"/><circle class="cls-1" cx="60.57" cy="63.72" r="0.88" transform="translate(-27.2 68.76) rotate(-49.74)"/><circle class="cls-8" cx="60.27" cy="63.46" r="0.88" transform="translate(-27.11 68.44) rotate(-49.74)"/><circle class="cls-1" cx="63.29" cy="60.51" r="0.88" transform="translate(-23.78 69.7) rotate(-49.74)"/><circle class="cls-8" cx="62.99" cy="60.25" r="0.88" transform="translate(-23.69 69.38) rotate(-49.74)"/><circle class="cls-1" cx="66.01" cy="57.3" r="0.88" transform="translate(-20.37 70.64) rotate(-49.74)"/><circle class="cls-8" cx="65.7" cy="57.03" r="0.88" transform="translate(-20.28 70.31) rotate(-49.74)"/><circle class="cls-1" cx="68.73" cy="54.08" r="0.88" transform="translate(-16.96 71.58) rotate(-49.74)"/><circle class="cls-8" cx="68.42" cy="53.82" r="0.88" transform="translate(-16.87 71.25) rotate(-49.74)"/><circle class="cls-1" cx="71.45" cy="50.87" r="0.88" transform="translate(-13.55 72.52) rotate(-49.74)"/><circle class="cls-8" cx="71.14" cy="50.61" r="0.88" transform="matrix(0.65, -0.76, 0.76, 0.65, -13.46, 72.19)"/><circle class="cls-1" cx="74.17" cy="47.66" r="0.88" transform="translate(-10.14 73.46) rotate(-49.74)"/><circle class="cls-8" cx="73.86" cy="47.4" r="0.88" transform="translate(-10.04 73.13) rotate(-49.74)"/><path class="cls-7" d="M88.93,4.81a19.86,19.86,0,0,1,19.61-2.4C118.23,6.59,120.68,13,120.68,13l-13.59,7.18Z"/><path class="cls-9" d="M119.28,13.64C118.21,14.11,108,19,107,19s-2.23-1.45-5.51-4.22c0,0-9.71-8.22-10.53-8.84s-1.8-1.35-2.51-1.07A21.25,21.25,0,0,0,86,6.66c-.39.47-.68.66-.16,1.52s.74,1.24,0,1-2.07-.27-2.44.17L82,11a.9.9,0,0,0,.21,1.13c.44.45.75.91.65,1a5.54,5.54,0,0,1-1.79-.22c-.45-.11-1-.07-1.72.8s-1.18,1.49-.82,1.91,1.19,1.12,1.07,1.27-2.27-.52-2.62-.29-2,1.71-2.12,2.2,1.35,1.71,1.09,2-2.56-.43-2.8-.15-1.44,1.69-1.51,1.79a.59.59,0,0,0,.11.81c.37.4,1.16,1.29,1,1.45s-2.88-.44-3.09-.2l-1.34,1.58c-.23.27-.27.82.32,1.32s.73.82.61,1-2.71-.32-2.95,0L64.8,30.2a1.39,1.39,0,0,0,.14,1.12c.23.19,1.2.56,1.19,1.19s-2.58-.66-3-.17S61,34.49,61.5,34.91s1.78.88,1.28,1.47-2.84-.44-3.3.1-1.84,1.93-1.38,2.32,1.92.78,1.35,1.6-2.48-.79-3.25.12-2,2-1.47,2.49,2.09.62,1.53,1.28-2.73-.49-3.23.1-2,2.16-1.46,2.6,1.94.36,1.42,1.5c-.38.82-2.48-.85-3.24,0s-2,2.07-1.52,2.44,2.1.8,1.59,1.41c-.85,1-3-.22-3.45.32,0,0-24.32,33-24.83,34.13A7,7,0,0,0,21.3,90c0,.33,1,.79,1.27.91l2.31.54a.79.79,0,0,0,.82-.26L93.89,10.5,102.75,18l-65,76.79s-.77.71.63,1.2,3.08,1,3.79,1.21a2.52,2.52,0,0,0,1.52-.09A3.54,3.54,0,0,0,45.56,96L77.87,61.4s.21-.2-.62-.66-.9-.93-.68-1.19,1-.12,1.76.07,1,.27,2.13-1,1.27-1.56.45-1.78-1.2-.7-1.14-1.06.51-.51,1.62-.15,1.32.33,1.88-.33l1.35-1.6c.32-.37.37-.72-.25-.88s-1.15-.46-1.14-.86.48-.51,1.59-.25,1.42.39,2-.19a14.84,14.84,0,0,0,1.77-2.09c.07-.28-.7-.42-1.06-.58a.66.66,0,0,1-.45-.57c0-.11,0-.46,1.39-.22s1.45.37,2.57-.54,1.86-1.5,1.92-1.84-.63-.48-1-.62-.68-.33-.61-.67.53-.31,1.37-.14,1.59.41,2.32-.17,2.26-1.77,2.41-1.91a.37.37,0,0,0-.23-.62c-.4,0-1.13-.29-1.22-.76s.74-.41,2.22-.25,1.63-.09,2-.35,2.42-1.61,2.71-1.81.46-.66-.15-.76-1.22-.3-1.24-.64,1.92-.07,2.92-.12a9.87,9.87,0,0,0,3.6-1.54c1-.61,1-.91.9-1.06s-.89-.19-1.22-.41-.64-.72,1.07-.6,2.72.44,4.57-.52,2.44-1.37,2.29-1.57-.92-.39-1.24-.66-.3-.48,1.13-.37,4.46.6,6.42-1.71,2.06-11.69-.84-15.25C120.89,12.74,120.34,13.16,119.28,13.64Zm.16,11.77a3.7,3.7,0,0,1-1.87,1.19L111,28.91a2.72,2.72,0,0,1-2.45-4.79L114.22,20a3.75,3.75,0,0,1,5.21,5.35Z"/><path class="cls-9" d="M119.28,13.64C118.21,14.11,108,19,107,19s-2.23-1.45-5.51-4.22c0,0-9.71-8.22-10.53-8.84s-1.8-1.35-2.51-1.07A21.25,21.25,0,0,0,86,6.66c-.39.47-.68.66-.16,1.52s.74,1.24,0,1-2.07-.27-2.44.17L82,11a.9.9,0,0,0,.21,1.13c.44.45.75.91.65,1a5.54,5.54,0,0,1-1.79-.22c-.45-.11-1-.07-1.72.8s-1.18,1.49-.82,1.91,1.19,1.12,1.07,1.27-2.27-.52-2.62-.29-2,1.71-2.12,2.2,1.35,1.71,1.09,2-2.56-.43-2.8-.15-1.44,1.69-1.51,1.79a.59.59,0,0,0,.11.81c.37.4,1.16,1.29,1,1.45s-2.88-.44-3.09-.2l-1.34,1.58c-.23.27-.27.82.32,1.32s.73.82.61,1-2.71-.32-2.95,0L64.8,30.2a1.39,1.39,0,0,0,.14,1.12c.23.19,1.2.56,1.19,1.19s-2.58-.66-3-.17S61,34.49,61.5,34.91s1.78.88,1.28,1.47-2.84-.44-3.3.1-1.84,1.93-1.38,2.32,1.92.78,1.35,1.6-2.48-.79-3.25.12-2,2-1.47,2.49,2.09.62,1.53,1.28-2.73-.49-3.23.1-2,2.16-1.46,2.6,1.94.36,1.42,1.5c-.38.82-2.48-.85-3.24,0s-2,2.07-1.52,2.44,2.1.8,1.59,1.41c-.85,1-3-.22-3.45.32,0,0-24.32,33-24.83,34.13A7,7,0,0,0,21.3,90c0,.33,1,.79,1.27.91l2.31.54a.79.79,0,0,0,.82-.26L93.89,10.5,102.75,18l-65,76.79s-.77.71.63,1.2,3.08,1,3.79,1.21a2.52,2.52,0,0,0,1.52-.09A3.54,3.54,0,0,0,45.56,96L77.87,61.4s.21-.2-.62-.66-.9-.93-.68-1.19,1-.12,1.76.07,1,.27,2.13-1,1.27-1.56.45-1.78-1.2-.7-1.14-1.06.51-.51,1.62-.15,1.32.33,1.88-.33l1.35-1.6c.32-.37.37-.72-.25-.88s-1.15-.46-1.14-.86.48-.51,1.59-.25,1.42.39,2-.19a14.84,14.84,0,0,0,1.77-2.09c.07-.28-.7-.42-1.06-.58a.66.66,0,0,1-.45-.57c0-.11,0-.46,1.39-.22s1.45.37,2.57-.54,1.86-1.5,1.92-1.84-.63-.48-1-.62-.68-.33-.61-.67.53-.31,1.37-.14,1.59.41,2.32-.17,2.26-1.77,2.41-1.91a.37.37,0,0,0-.23-.62c-.4,0-1.13-.29-1.22-.76s.74-.41,2.22-.25,1.63-.09,2-.35,2.42-1.61,2.71-1.81.46-.66-.15-.76-1.22-.3-1.24-.64,1.92-.07,2.92-.12a9.87,9.87,0,0,0,3.6-1.54c1-.61,1-.91.9-1.06s-.89-.19-1.22-.41-.64-.72,1.07-.6,2.72.44,4.57-.52,2.44-1.37,2.29-1.57-.92-.39-1.24-.66-.3-.48,1.13-.37,4.46.6,6.42-1.71,2.06-11.69-.84-15.25C120.89,12.74,120.34,13.16,119.28,13.64Zm.16,11.77a3.7,3.7,0,0,1-1.87,1.19L111,28.91a2.72,2.72,0,0,1-2.45-4.79L114.22,20a3.75,3.75,0,0,1,5.21,5.35Z"/><path class="cls-1" d="M119.76,11.3a11.15,11.15,0,0,1,.92,1.7c-.32.09-.78.35-1.41.63C118.21,14.11,108,19,107,19s-2.23-1.45-5.51-4.22c0,0-9.71-8.21-10.53-8.84a5.09,5.09,0,0,0-2-1.12,13.64,13.64,0,0,1,1.59-1.09h0l.24.18c.82.63,10.53,8.84,10.53,8.84,3.28,2.77,4.5,4.19,5.51,4.22s11.24-4.89,12.3-5.36Z"/><circle class="cls-7" cx="52.05" cy="69" r="2.23" transform="translate(-34.24 64.12) rotate(-49.74)"/></g></g></g></svg>