<svg id="Layer_1" data-name="Layer 1" xmlns="http://www.w3.org/2000/svg" viewBox="0 0 947 527"><defs><style>.cls-1{fill:#ff9b6d;}.cls-2{fill:#d5af86;}.cls-3{fill:#fff;}.cls-4{fill:#a4d7c7;}.cls-5{fill:#f2f2f2;}</style></defs><title>camaleao4</title><g id="assets"><g id="Imported-Layers-Copy-6"><path id="Fill-2" class="cls-1" d="M513,370.09c-7.91-36.34-104.57-141.66-144.13-89.26C343.38,314.53,478.45,339.34,479,388.55c.49,45.72-92.49,91.66-89.91,137.7,21.22-25.56,51.2-8.17,76.82,0L468.71,516c-10.94-3.56-17-11.48-29.38-13.13C464,456.53,526.38,431.74,513,370.09"/><path id="Fill-3" class="cls-1" d="M726.79,393.17c-25.29,1.73-44.29,3.56-39.52-14.38,1.76-6.6,12.2-37,15.1-42.56,7.4-14.21,46.69-36.47,30.13-51.77-44.83-41.39-98.36,90-80,124.31C678.88,458,748.89,401.1,790,431.08l-7,8,12.62,10.32c7.32-27.19,32.56-30.72,41.29-50.31-35.19-.09-71.4-8.57-110.12-5.92"/><path id="Fill-4" class="cls-2" d="M883.18,149c-25.36-28.18-67-59.7-98.91-79.07C759.8,55.09,709.16,25.72,690.41,59c-9,15.9,19.34,26.8,8.07,46.12-10,17.16-30.94,5.75-44.4,1.79-45-13.23-72-35.92-122.38-36.09C489.88,70.71,446,76.1,409.58,97.72,333.2,143,301.75,227.78,202.64,234.13,126.9,239,12,165.21,52.25,76.11c33.76-74.78,156.62-31.55,123,42.4-36.65,80.61-123.78-23.72-59.42-41.07,28.77-7.76,44.3,30.32,14.43,39.88-21.86,7-14.1-28.5-14.09-28.49-.24-.21-16.37,24.64.48,35.74,19,12.54,39.16-8.07,39.78-26.3,2-60.87-105.19-35.08-77.43,32.89,26.17,64.06,111.17,34.11,125-21.71,13.34-53.76-28.66-98.19-78.34-107.3C58.41-10.18,10.67,45,2.43,107-7,177.94,30.22,230.89,82.19,274c54.59,45.34,122.23,62.79,193.32,63.82,32.89.47,64,4.38,95,9.12-1.35,18.36,4.11,48-2.87,60.24-13.93,24.34-28.37,23.45-56.48,30.31-32.06,7.82-83.88,23.6-95.32,52.66,22.32-9.77,44.74,17.36,48.65,35.34l17.38-10.19c-56.76-41.24,76.67-45.43,95.84-59,24.75-17.47,39.82-46,44.74-76.28a89.74,89.74,0,0,0,0-24.87c17.23,2.68,34.72,5.19,52.76,7.1,24.45,2.59,49.3,2.48,74.1,1-13.45,34.37-.73,59,42.46,86,15.67,9.81,38.78,13.64,41,35.55,1.11,11-31.73,9.84-21.9,37.55,21.56-19.39,54.83-31.57,82.74-20.21,7.65-25.94-14.27-12.67-24.94-24.24-20.46-22.17-33-47.5-61.2-68.48-40.2-30-26.4-29.05-1-51.29l14.1-1.57c20.07-2.26,44.59-2.2,63.55-9.42,18.29-7,31.36-27.26,48.84-30.41,35.24-6.34,70.45,25.45,110.28,17.21,31.85-6.59,95-37.15,102.85-73,6.21-28.3-43.49-90.57-62.92-112.16"/><path id="Fill-5" class="cls-3" d="M806,199.63c0,21.75,18.1,39.38,40.42,39.38s40.42-17.63,40.42-39.38-18.1-39.38-40.42-39.38S806,177.88,806,199.63"/><path id="Fill-6" class="cls-4" d="M845.66,126.6c9,1.59,20.07,4.67,26.22,10.65-9.66-9.48-20.68-19.1-32.16-28.29A106.6,106.6,0,0,0,814.58,111c-11.08,2.53-22.58,7.45-31.48,14.62-10.15,8.18-18.55,25.64-18.55,25.64s18.36-12.07,30.79-17.15c11.82-4.83,37.57-9.8,50.32-7.55"/><path id="Fill-7" class="cls-5" d="M796.86,243.59s.74,17.62,7.48,28.39c12.43,19.86,52.07,35.63,73.7,37.64,6.89.64,14.18,1.17,21.75,1.34,22.39-13.25,42.15-30.78,46.32-49.8a22.83,22.83,0,0,0,.45-3.23c-42.35,22.33-94.95,30.62-134.15,2.15C807.2,256.3,796.86,243.59,796.86,243.59Z"/><path id="Fill-8" class="cls-4" d="M490.17,72.89a237.07,237.07,0,0,0-44.34,8.93c16.73,17.89,19.53,55.12,24.66,80,7.66,37.22,17,66.79,21.86,105.59,9.22-33.71,17.76-68.82,15.74-103.95-1.62-28.2-21-63.69-17.92-90.59"/><path id="Fill-9" class="cls-4" d="M161.39,288.38c11.18-15.09,11.8-43.5,19.07-54.91-4.21-.48-8.48-1.17-12.78-2,1.74,17.21-2.73,45.14-6.29,56.94"/><path id="Fill-10" class="cls-4" d="M87.39,248.61c10.62-6.82,22-22.82,34.16-33.24q-6.14-3.08-12.06-6.6c-4.38,13.23-17,29.78-22.1,39.84"/><path id="Fill-11" class="cls-4" d="M273.86,212.09q-6.72,4-13.92,7.46c6.06,24.73,19.37,73.27,21.34,81,0-25.08-8.13-58.6-7.42-88.42"/><path id="Fill-12" class="cls-4" d="M639.67,102.22c-20.28-7.3-37.35-16-56-22.39,4.56,15.81,6.76,32.84,7.67,46.19,3.8,56.11,17.43,107.24,12.21,165.28C625.74,229,646.43,173.49,640,106.57c-.13-1.37-.24-2.82-.33-4.35"/><path id="Fill-13" class="cls-4" d="M74,180.86c-3.5,6.1-11.37,11.62-24.7,14.72,9.41-.7,19.86-6.3,29.89-9.54q-2.67-2.54-5.19-5.18"/><path id="Fill-14" class="cls-4" d="M366,130.73c-5.11,4.64-10.07,9.38-15,14.15,9.88,6.4,7.25,24.23,16.59,46.18,11.65,27.34,21.38,40.51,25.3,71.41,7.31-24.1,6.18-64.88-.27-88.78-3-11.15-19.32-29.1-26.67-43"/><path id="Fill-15" class="cls-1" d="M848.36,188.65a11.49,11.49,0,1,0,11.46,11.49,11.48,11.48,0,0,0-11.46-11.49"/><path id="Fill-16" class="cls-1" d="M924.34,235.94c-.57-1.9-4.15-2.5-8-1.33s-6.49,3.65-5.91,5.55,4.15,2.5,8,1.33,6.49-3.65,5.91-5.55"/><path id="Fill-17" class="cls-1" d="M66,171.69a62,62,0,0,0-26.46,10c13.45-3.85,24.07-5,31.68-3.8q-2.72-3-5.22-6.18"/><path id="Fill-18" class="cls-1" d="M202.64,234.13l-.95.05c12.83,20.08,20.47,55,21.27,70.05,1.55-15-4.2-45.15-4.59-71.85-5.06.8-10.29,1.4-15.73,1.75"/><path id="Fill-19" class="cls-1" d="M69.87,222.71c8.11-3.18,18.68-13.54,29.52-20.41a170,170,0,0,1-14.05-10.76c.08,7.77-5,18.42-15.47,31.17"/><path id="Fill-20" class="cls-1" d="M428.59,88.13a159.86,159.86,0,0,0-19,9.59c-15.18,9-28.58,19.57-41.1,30.77a65,65,0,0,1,9.06,1.65c20.13,5,49.52,38.62,48.41,60.53,23.78-33.53-5.54-71.36,2.64-102.54"/><path id="Fill-21" class="cls-1" d="M699.61,134c.51-10.45,2.59-34.51,1.32-40.91a17.3,17.3,0,0,1-2.45,12c-6.28,10.77-16.88,10.28-27.22,7.45l30.6,132.61c-1.52-36.79-3.58-83.58-2.24-111.16"/><path id="Fill-22" class="cls-1" d="M505.07,71.6c16.12,24.33,20.9,78.55,37.52,98.83,20.47-32.76,15.1-63.34,19.14-96.59a153.77,153.77,0,0,0-30-3c-8.81,0-17.72.19-26.62.75"/><path id="Fill-23" class="cls-1" d="M114.73,276.12c11.1-11.31,22.41-35,37.28-48.61-5.86-1.76-11.71-3.84-17.48-6.22-3.73,16.48-17.21,41.19-19.79,54.84"/><path id="Fill-24" class="cls-1" d="M301.88,191.83c19.7,6.65,37,15.32,41.64,22.45,2.15-18.66.8-38.08-9.45-52.58-10.54,10.49-21.05,20.76-32.19,30.13"/></g></g></svg>