<svg id="Layer_1" data-name="Layer 1" xmlns="http://www.w3.org/2000/svg" viewBox="0 0 181 101"><defs><style>.cls-1{fill:#a4bed7;}.cls-2{fill:#d5af86;}.cls-3{fill:#fff;}.cls-4{fill:#cfe795;}.cls-5{fill:#a4d7c7;}</style></defs><title>camaleao1</title><g id="assets"><g id="Imported-Layers-Copy-5"><path id="Fill-2" class="cls-1" d="M97.53,70.39c-1.51-6.91-19.91-26.94-27.45-17C65.24,59.83,91,64.55,91.06,73.9c.09,8.7-17.61,17.43-17.12,26.19,4-4.86,9.75-1.55,14.63,0l.54-2c-2.08-.68-3.24-2.18-5.59-2.5,4.69-8.81,16.58-13.52,14-25.25"/><path id="Fill-3" class="cls-1" d="M138.25,74.78c-4.82.33-8.43.68-7.53-2.73.33-1.26,2.32-7,2.88-8.1,1.41-2.7,8.89-6.94,5.74-9.85-8.54-7.87-18.73,17.11-15.23,23.65,5,9.36,18.35-1.46,26.17,4.24L149,83.51l2.4,2c1.39-5.17,6.2-5.84,7.86-9.57-6.7,0-13.6-1.63-21-1.13"/><path id="Fill-4" class="cls-2" d="M168,28.34C163.2,23,155.28,17,149.2,13.3c-4.66-2.82-14.3-8.41-17.88-2.07-1.7,3,3.68,5.1,1.54,8.77-1.91,3.26-5.89,1.09-8.45.34-8.57-2.52-13.7-6.83-23.3-6.86-8,0-16.32,1-23.25,5.11C63.3,27.21,57.31,43.32,38.44,44.53,24,45.46,2.14,31.43,9.8,14.48c6.43-14.22,29.82-6,23.42,8.06-7,15.33-23.57-4.51-11.32-7.81,5.48-1.48,8.44,5.77,2.75,7.58C20.49,23.64,22,16.89,22,16.9s-3.12,4.69.09,6.8c3.63,2.39,7.46-1.53,7.57-5C30,7.11,9.61,12,14.89,24.95c5,12.18,21.17,6.49,23.81-4.13C41.24,10.59,33.24,2.14,23.78.41,11-1.94,1.88,8.55.31,20.36-1.48,33.85,5.61,43.92,15.5,52.13c10.4,8.62,23.28,11.94,36.81,12.14A130.77,130.77,0,0,1,70.4,66c-.26,3.49.78,9.14-.55,11.46-2.65,4.63-5.4,4.46-10.76,5.77-6.1,1.49-16,4.49-18.15,10,4.25-1.86,8.52,3.3,9.26,6.72L53.52,98c-10.81-7.85,14.6-8.64,18.25-11.21,4.71-3.32,7.58-8.76,8.52-14.51a17,17,0,0,0,0-4.73c3.28.51,6.61,1,10,1.35a86.73,86.73,0,0,0,14.11.2c-2.56,6.54-.14,11.22,8.09,16.36,3,1.87,7.38,2.59,7.81,6.76.21,2.09-6,1.87-4.17,7.14,4.11-3.69,10.44-6,15.76-3.84,1.46-4.93-2.72-2.41-4.75-4.61-3.9-4.22-6.29-9-11.65-13-7.66-5.7-5-5.53-.18-9.76l2.69-.3c3.82-.43,8.49-.42,12.1-1.79s6-5.19,9.3-5.78c6.71-1.21,13.42,4.84,21,3.27,6.06-1.25,18.09-7.07,19.59-13.88,1.18-5.38-8.28-17.23-12-21.33"/><path id="Fill-5" class="cls-3" d="M153.34,38a7.7,7.7,0,1,0,7.7-7.49,7.6,7.6,0,0,0-7.7,7.49"/><path id="Fill-6" class="cls-4" d="M160.88,24.08c1.72.3,3.82.89,5,2-1.84-1.8-3.94-3.63-6.12-5.38a20.32,20.32,0,0,0-4.79.4,15.09,15.09,0,0,0-6,2.78,17,17,0,0,0-3.53,4.88,45.18,45.18,0,0,1,5.86-3.26c2.25-.92,7.16-1.86,9.58-1.44"/><path id="Fill-7" class="cls-5" d="M154.55,49.47a26.11,26.11,0,0,1-3-3.14,13.24,13.24,0,0,0,1.42,5.4c2.37,3.78,9.92,6.78,14,7.16,1.31.12,2.7.22,4.14.25,4.26-2.52,8-5.86,8.82-9.47a4.34,4.34,0,0,0,.09-.61c-8.07,4.25-18.08,5.82-25.55.41"/><path id="Fill-8" class="cls-4" d="M93.19,13.86a45.19,45.19,0,0,0-8.44,1.7C87.93,19,88.47,26,89.44,30.78c1.46,7.08,3.24,12.7,4.16,20.08,1.75-6.41,3.38-13.09,3-19.77-.31-5.36-4-12.11-3.41-17.23"/><path id="Fill-9" class="cls-4" d="M30.58,54.85c2.13-2.87,2.25-8.27,3.63-10.44-.8-.09-1.62-.22-2.43-.39a35.5,35.5,0,0,1-1.2,10.83"/><path id="Fill-10" class="cls-4" d="M16.49,47.29c2-1.3,4.18-4.34,6.51-6.32q-1.17-.59-2.3-1.26c-.83,2.52-3.25,5.66-4.21,7.58"/><path id="Fill-11" class="cls-4" d="M52,40.34q-1.28.77-2.65,1.42c1.15,4.7,3.69,13.94,4.06,15.4,0-4.77-1.55-11.15-1.41-16.82"/><path id="Fill-12" class="cls-4" d="M121.66,19.44c-3.86-1.39-7.11-3-10.67-4.26A43.39,43.39,0,0,1,112.45,24c.72,10.67,3.32,20.4,2.32,31.44,4.24-11.84,8.17-22.41,7-35.14,0-.26,0-.54-.06-.83"/><path id="Fill-13" class="cls-4" d="M13.95,34.4c-.67,1.16-2.17,2.21-4.7,2.8C11,37.07,13,36,14.94,35.39q-.51-.48-1-1"/><path id="Fill-14" class="cls-4" d="M69.54,24.87c-1,.88-1.92,1.78-2.85,2.69,1.88,1.22,1.38,4.61,3.16,8.78,2.22,5.2,4.07,7.71,4.82,13.58,1.39-4.58,1.18-12.34-.05-16.89-.57-2.12-3.68-5.53-5.08-8.17"/><path id="Fill-15" class="cls-1" d="M161.4,35.88a2.19,2.19,0,1,0,2.18,2.19,2.18,2.18,0,0,0-2.18-2.19"/><path id="Fill-16" class="cls-1" d="M175.87,44.88c-.11-.36-.79-.48-1.52-.25s-1.24.69-1.13,1.05.79.48,1.52.25,1.24-.69,1.13-1.05"/><path id="Fill-17" class="cls-1" d="M12.43,32.66a11.82,11.82,0,0,0-5,1.9,14.89,14.89,0,0,1,6-.72q-.52-.58-1-1.18"/><path id="Fill-18" class="cls-1" d="M38.44,44.53h-.18c2.44,3.82,3.9,10.46,4,13.32.29-2.86-.8-8.59-.87-13.67-1,.15-2,.27-3,.33"/><path id="Fill-19" class="cls-1" d="M13.16,42.36c1.55-.61,3.56-2.58,5.62-3.88a32.37,32.37,0,0,1-2.68-2c0,1.48-.94,3.5-2.95,5.93"/><path id="Fill-20" class="cls-1" d="M81.46,16.76a30.46,30.46,0,0,0-3.62,1.82A50,50,0,0,0,70,24.44a12.38,12.38,0,0,1,1.73.31c3.83,1,9.43,7.35,9.22,11.51,4.53-6.38-1.06-13.57.5-19.5"/><path id="Fill-21" class="cls-1" d="M133.07,25.5c.1-2,.49-6.56.25-7.78a3.29,3.29,0,0,1-.47,2.28c-1.2,2-3.21,2-5.18,1.42l5.83,25.22c-.29-7-.68-15.9-.43-21.14"/><path id="Fill-22" class="cls-1" d="M96,13.62c3.07,4.63,4,14.94,7.15,18.8,3.9-6.23,2.88-12,3.65-18.37a29.31,29.31,0,0,0-5.72-.57c-1.68,0-3.37,0-5.07.14"/><path id="Fill-23" class="cls-1" d="M21.7,52.52c2.11-2.15,4.27-6.66,7.1-9.25-1.12-.33-2.23-.73-3.33-1.18-.71,3.13-3.28,7.83-3.77,10.43"/><path id="Fill-24" class="cls-1" d="M57.34,36.49c3.75,1.26,7,2.91,7.93,4.27.41-3.55.15-7.24-1.8-10-2,2-4,3.95-6.13,5.73"/></g></g></svg>