<svg id="Layer_1" data-name="Layer 1" xmlns="http://www.w3.org/2000/svg" viewBox="0 0 572 615"><defs><style>.cls-1{fill:#d5af86;}.cls-2{fill:#fff;}.cls-3{fill:#fbd37c;}.cls-4{fill:#f2f2f2;}.cls-5{fill:#cfe795;}</style></defs><title>camaleao2</title><g id="assets"><g id="Imported-Layers-Copy"><path id="Fill-2" class="cls-1" d="M157.91,343.06c27.62-8.34,135.62,17.78,114.91,64.36-13.32,30-81.1-52.46-114.71-34.29-31.24,16.86-27.42,97.4-59.7,113,9.41-24.08-13.79-37.86-28.94-52.21,2-1.92,3.91-3.88,5.93-5.8,6.57,6.08,14.18,7.23,20,15,22.31-34.21,15.59-85.93,62.53-100.06"/><path id="Fill-4" class="cls-1" d="M259.67,45.64c19.27,11,58.31,34.45,42.78,59.64-7.36,12.09-25.46-3-34.37,11.85-7.85,13.27,7.7,23.17,15.5,30.85,26,25.62,51.5,35.37,70.59,69.6,15.84,28.38,28.7,60.24,27.73,93.13-2,68.93-47.71,122.26-14.75,192C392.47,556,485.88,606.37,531.23,545.45c38.11-51.08-37.57-118.32-75.21-67.61-40.93,55.28,62.73,75.22,50.3,24.94-5.61-22.5-37.32-18.65-32.54,5.23,3.52,17.49,24.66-1.09,24.61-1.18.27.08-10.55,20.37-24.51,13.13-15.66-8.24-9.23-29.64,2.86-36.92,40.59-24.33,63.4,58.27,6.8,65.06-53.4,6.39-65.06-62.72-32.29-93.12,31.6-29.41,77.72-17.58,102.56,12.78,33.7,41,14.26,94.2-24.89,123.21-44.65,33.1-94.61,27.75-143.5,8.65-51.34-20-88.74-59.43-116.2-107.32-12.76-22.2-27.07-41.82-42-61.1-12,7.89-34.17,15.28-39.87,24.61-11.29,18.61-5.25,28.07.73,49.79,6.74,24.74,15.6,65.9.15,84.64-1.74-18.82-28.68-23.89-42.38-19.73.09-5.2.27-10.44.36-15.64,49.37,23.06,2-69.24,3.94-87.36,2.59-23.39,16.33-44.38,35-59.19A68.86,68.86,0,0,1,202,399c-8.33-10.7-16.59-21.68-24.69-33.19-11-15.65-20.23-32.58-28.62-50-18.26,22.13-39.77,22.73-74.42,3.52-12.56-7-23.86-21.19-39.6-14.52-7.87,3.33,5.33,25.29-17.3,29,5.06-22,.78-49.14-17.44-63.85,14.72-14.9,14,5,25.85,7.85,22.75,5.57,44.73,4.59,69.61,15.84,35.5,16,29.71,7,35.15-18.68l-4.28-10.2c-6-14.52-15.29-31.09-17.56-46.75-2.16-15,6.71-31.62,2.22-44.68-9-26.34-43.84-38.24-53.27-68.46C50.16,80.82,47.17,26.34,68.53,7.53c16.91-14.86,78-4.57,99.89.54C197.35,14.89,234.44,31.27,259.67,45.64Z"/><path id="Fill-5" class="cls-2" d="M163.31,79.72c-14.78,8.19-33.6,2.5-42-12.63S118.09,33,132.87,24.8s33.6-2.5,42,12.63,3.24,34.1-11.54,42.3"/><path id="Fill-6" class="cls-3" d="M198.06,25.25c-4.44-5.54-10.71-11.9-17.15-13.82,10.11,3,20.75,6.91,31.36,11.2a84.12,84.12,0,0,1,8.05,17.83c2.42,8.49,3.41,18.12,1.91,27-1.77,10-10.42,22.24-10.42,22.24s1.29-17.06,0-27.35c-1.22-9.84-7.51-29.22-13.8-37.06"/><path id="Fill-7" class="cls-4" d="M119.92,98.18c4.48,2.09,17.06,4.38,17.06,4.38s-12.27,6.12-22.14,5.64c-18.17-1-43.86-22-53.32-36-3.06-4.48-6.12-9.18-9.07-14.3.57-20.21,5-40.27,16.39-50.25a18.67,18.67,0,0,1,2-1.56c.73,37.21,14.88,76.13,49.08,92"/><path id="Fill-8" class="cls-3" d="M368.49,246.69a191.67,191.67,0,0,1,10.69,33.52c-18.46-4.63-44.8,7.46-63.71,13.36-28.19,8.76-51.79,13.62-80,24.89,19.42-19,40.1-38,64.75-49.84,19.65-9.52,51.06-9.78,68.22-21.92"/><path id="Fill-9" class="cls-3" d="M345.89,551.22c6-13.28,25.1-24.43,30.17-33.65,1.95,2.69,4,5.34,6.2,7.88-12.44,5.41-29.77,18.9-36.37,25.76"/><path id="Fill-10" class="cls-3" d="M400.8,586.53c.61-9.83,7.19-23.54,9.72-35.69,3,2,5.94,3.91,9,5.75-7.41,7.88-13.8,22.74-18.74,29.94"/><path id="Fill-11" class="cls-3" d="M355.3,446.08c-.14,4.08-.06,8.15.16,12.26-19.07,5.2-57,14.47-63.06,16,17.1-9.37,43-16.51,62.9-28.23"/><path id="Fill-12" class="cls-3" d="M292.21,156.11c12.65,11.06,24.9,19.35,36.31,29.61a180.4,180.4,0,0,0-34.31,12.16c-39.59,18.51-79.4,28.58-116.91,53.94,33.94-38.6,63.84-73.57,111.74-94.41,1.06-.36,2.07-.8,3.17-1.3"/><path id="Fill-13" class="cls-3" d="M451.84,570.13c-2.8,4.64-3.61,12.06-.66,22.32-3.1-6.63-3.18-15.84-4.78-23.88,1.77.51,3.58,1.1,5.44,1.56"/><path id="Fill-14" class="cls-3" d="M375.86,352.82c-1.21,5.24-2.6,10.36-4,15.48-8.11-4.31-19.16,4.22-37.65,6.12-22.91,2.41-35.6.75-58.09,9.68,13.59-14.05,41.75-28.63,60.45-33.28,8.82-2,27.17,2.2,39.3,2"/><path id="Fill-15" class="cls-5" d="M154.89,46.78a8.9,8.9,0,1,1-12.1-3.47,8.92,8.92,0,0,1,12.1,3.47"/><path id="Fill-16" class="cls-5" d="M94.1,13C95.6,12.64,97.31,14.9,98,18s0,5.73-1.53,6.11-3.21-1.88-3.88-4.94,0-5.73,1.53-6.11"/><path id="Fill-17" class="cls-5" d="M461.06,572.11a48.1,48.1,0,0,1,3.17,21.8c-2.47-10.64-5.65-18.25-9.3-23,2,.36,4.11.81,6.14,1.17"/><path id="Fill-18" class="cls-5" d="M367.2,502.83l.34.61c-18.49-1.18-45.05,6.79-55.58,11.94,9.65-6.72,32.3-14.13,50.55-23.9,1.37,3.7,2.87,7.44,4.69,11.35"/><path id="Fill-19" class="cls-5" d="M425,588.68c-.87-6.72,2.15-17.77,2.8-27.74a112.62,112.62,0,0,0,12.63,5.46C435,569.28,429.7,576.8,425,588.68"/><path id="Fill-20" class="cls-5" d="M381.25,294.27a136.18,136.18,0,0,1,.7,16.53,202.62,202.62,0,0,1-5.44,39.49,38.7,38.7,0,0,0-4.53-5.49c-11-11.75-44.9-19.13-59.34-10.1,13.77-28.79,50.49-23.19,68.6-40.43"/><path id="Fill-21" class="cls-5" d="M248,127.33c6.89-4.28,22.47-14.74,27.33-16.29a13.15,13.15,0,0,0-7.21,6.17c-5,8.36-.65,15.34,5.16,21.27L171.66,167.59c25.56-12.68,58.08-28.88,76.35-40.26"/><path id="Fill-22" class="cls-5" d="M363.74,236.06c-22.59-1.77-61.21,15.4-81.33,11.69,14.51-26.22,37.36-34.09,58.37-49.39a119.46,119.46,0,0,1,13.31,19.26c3.43,6,6.6,12.12,9.65,18.43"/><path id="Fill-23" class="cls-5" d="M371.8,578.37c3.53-11.79,15.35-28.41,19-43.69,3.45,3.34,7,6.5,10.79,9.57-9.79,8.74-21.49,27.23-29.79,34.12"/><path id="Fill-24" class="cls-5" d="M358.55,419.35c-12-10.86-24.32-19.33-30.93-19.9,11.86-8.52,25.6-14.88,39.22-13.4-3.15,11.23-6.08,22.24-8.3,33.3"/></g></g></svg>