<svg id="Layer_1" data-name="Layer 1" xmlns="http://www.w3.org/2000/svg" viewBox="0 0 421 234"><defs><style>.cls-1{fill:#d5af86;}.cls-2{fill:#a4bed7;}.cls-3{fill:#fff;}.cls-4{fill:#cfe795;}.cls-5{fill:#a4d7c7;}</style></defs><title>camaleao3</title><g id="assets"><g id="Imported-Layers-Copy-4"><path id="Fill-2" class="cls-1" d="M193.44,69.91c3.51,16.11,46.42,62.81,64,39.58,11.29-14.94-48.66-25.94-48.89-47.76-.22-20.27,41.05-40.64,39.91-61.05C239,12,225.71,4.3,214.34.67l-1.26,4.56c4.86,1.58,7.55,5.09,13,5.82-10.93,20.53-38.64,31.52-32.68,58.85"/><path id="Fill-3" class="cls-1" d="M98.53,59.68c11.23-.77,19.66-1.58,17.54,6.37-.78,2.93-5.41,16.4-6.7,18.87-3.28,6.3-20.73,16.17-13.37,23,19.9,18.35,43.66-39.88,35.49-55.12-11.7-21.82-42.77,3.4-61-9.89l3.09-3.54L68,34.75C64.72,46.8,53.52,48.37,49.64,57.05c15.62,0,31.7,3.8,48.88,2.62"/><path id="Fill-4" class="cls-2" d="M29.1,167.94C40.36,180.43,58.83,194.41,73,203c10.86,6.58,33.34,19.6,41.67,4.83,4-7-8.58-11.88-3.58-20.45,4.44-7.61,13.73-2.55,19.71-.8,20,5.87,31.94,15.93,54.32,16,18.56.06,38-2.33,54.21-11.91,33.9-20.09,47.86-57.66,91.86-60.48,33.62-2.15,84.61,30.55,66.76,70.06-15,33.16-69.52,14-54.6-18.8,16.27-35.74,54.94,10.52,26.38,18.21C357,203.1,350.06,186.22,363.32,182c9.7-3.1,6.26,12.63,6.26,12.63s7.27-10.93-.21-15.85c-8.45-5.56-17.38,3.58-17.66,11.66-.91,27,46.69,15.55,34.37-14.58-11.61-28.4-49.35-15.13-55.5,9.62C324.66,209.3,343.3,229,365.35,233c29.86,5.47,51-19,54.7-46.51,4.18-31.43-12.34-54.91-35.4-74-24.23-20.1-54.26-27.84-85.81-28.3-14.6-.21-28.4-1.94-42.17-4,.6-8.14-1.83-21.3,1.27-26.71C264.13,42.65,270.54,43,283,40c14.23-3.47,37.23-10.46,42.31-23.35C315.42,21,305.47,9,303.73,1L296,5.51c25.19,18.29-34,20.14-42.54,26.14-11,7.74-17.68,20.41-19.86,33.82a39.74,39.74,0,0,0,0,11c-7.65-1.19-15.41-2.3-23.42-3.15a202.17,202.17,0,0,0-32.89-.46c6-15.24.32-26.16-18.85-38.14-7-4.35-17.21-6-18.2-15.76-.49-4.88,14.09-4.36,9.72-16.65-9.57,8.6-24.34,14-36.73,9-3.39,11.5,6.34,5.62,11.07,10.75C133.41,31.87,139,43.1,151.5,52.4c17.85,13.28,11.72,12.88.43,22.74l-6.26.7c-8.91,1-19.79,1-28.21,4.17-8.12,3.08-13.92,12.09-21.68,13.48-15.64,2.81-31.27-11.28-49-7.63C32.69,88.78,4.66,102.33,1.17,118.21c-2.75,12.55,19.3,40.16,27.93,49.73"/><path id="Fill-5" class="cls-3" d="M63.36,145.49A17.71,17.71,0,0,0,45.41,128a17.47,17.47,0,1,0,0,34.92,17.71,17.71,0,0,0,17.94-17.46"/><path id="Fill-6" class="cls-4" d="M45.76,177.87c-4-.7-8.91-2.07-11.64-4.72,4.29,4.2,9.18,8.47,14.28,12.54a47.37,47.37,0,0,0,11.16-.92,35.18,35.18,0,0,0,14-6.48c4.5-3.63,8.23-11.37,8.23-11.37s-8.15,5.35-13.67,7.6c-5.25,2.14-16.68,4.34-22.34,3.35"/><path id="Fill-7" class="cls-5" d="M60.52,118.69c2.31,1.67,6.9,7.31,6.9,7.31s-.33-7.81-3.32-12.59c-5.52-8.8-23.11-15.8-32.71-16.69-3.06-.28-6.29-.52-9.65-.59C11.8,102,3,109.78,1.17,118.21a10.12,10.12,0,0,0-.2,1.43c18.8-9.9,42.15-13.57,59.55-1"/><path id="Fill-8" class="cls-4" d="M203.56,201.68a105.34,105.34,0,0,0,19.68-4c-7.42-7.93-8.67-24.44-10.95-35.48-3.4-16.5-7.55-29.61-9.7-46.82-4.09,14.95-7.88,30.51-7,46.09.72,12.5,9.3,28.24,8,40.17"/><path id="Fill-9" class="cls-4" d="M349.5,106.14c-5,6.69-5.24,19.29-8.46,24.35,1.87.21,3.77.52,5.67.9-.77-7.63,1.21-20,2.79-25.25"/><path id="Fill-10" class="cls-4" d="M382.34,123.77c-4.71,3-9.75,10.12-15.17,14.74q2.73,1.37,5.36,2.93c1.95-5.87,7.57-13.2,9.81-17.66"/><path id="Fill-11" class="cls-4" d="M299.57,140q3-1.78,6.18-3.31c-2.69-11-8.6-32.49-9.47-35.9,0,11.12,3.61,26,3.3,39.2"/><path id="Fill-12" class="cls-4" d="M137.19,188.68c9,3.24,16.58,7.09,24.88,9.93a101.15,101.15,0,0,1-3.4-20.48c-1.69-24.88-7.73-47.55-5.42-73.28-9.87,27.6-19.05,52.23-16.2,81.9.06.61.11,1.25.14,1.93"/><path id="Fill-13" class="cls-4" d="M388.27,153.81c1.55-2.7,5-5.15,11-6.53-4.18.31-8.82,2.79-13.27,4.23q1.19,1.13,2.3,2.3"/><path id="Fill-14" class="cls-4" d="M258.68,176c2.27-2.06,4.47-4.16,6.64-6.27-4.39-2.84-3.22-10.74-7.37-20.47-5.17-12.12-9.49-18-11.23-31.66-3.25,10.69-2.75,28.76.12,39.36,1.34,4.94,8.58,12.9,11.84,19"/><path id="Fill-15" class="cls-1" d="M44.56,150.36a5.09,5.09,0,1,0-5.09-5.09,5.09,5.09,0,0,0,5.09,5.09"/><path id="Fill-16" class="cls-1" d="M10.84,129.39c.25.84,1.84,1.11,3.55.59s2.88-1.62,2.63-2.46-1.84-1.11-3.55-.59-2.88,1.62-2.63,2.46"/><path id="Fill-17" class="cls-1" d="M391.82,157.88a27.55,27.55,0,0,0,11.74-4.43c-6,1.71-10.68,2.21-14.06,1.69q1.21,1.34,2.32,2.74"/><path id="Fill-18" class="cls-1" d="M331.19,130.19l.42,0c-5.7-8.9-9.08-24.37-9.44-31.06-.69,6.66,1.86,20,2,31.86,2.24-.36,4.57-.62,7-.78"/><path id="Fill-19" class="cls-1" d="M390.12,135.25c-3.6,1.41-8.29,6-13.1,9a75.46,75.46,0,0,1,6.24,4.77c0-3.44,2.2-8.17,6.87-13.82"/><path id="Fill-20" class="cls-1" d="M230.89,194.92a71,71,0,0,0,8.44-4.25A116.66,116.66,0,0,0,257.57,177a28.86,28.86,0,0,1-4-.73c-8.94-2.24-22-17.12-21.49-26.84-10.55,14.87,2.46,31.64-1.17,45.46"/><path id="Fill-21" class="cls-1" d="M110.59,174.57c-.23,4.64-1.15,15.3-.58,18.14a7.66,7.66,0,0,1,1.09-5.33c2.79-4.78,7.49-4.56,12.08-3.3l-13.58-58.8c.68,16.31,1.59,37.06,1,49.29"/><path id="Fill-22" class="cls-1" d="M196.94,202.25c-7.16-10.79-9.28-34.83-16.66-43.82-9.09,14.52-6.7,28.08-8.5,42.83a68.33,68.33,0,0,0,13.34,1.32c3.91,0,7.86-.08,11.82-.33"/><path id="Fill-23" class="cls-1" d="M370.21,111.57c-4.93,5-9.95,15.52-16.55,21.55,2.6.78,5.2,1.7,7.76,2.76,1.66-7.3,7.64-18.26,8.79-24.31"/><path id="Fill-24" class="cls-1" d="M287.13,148.94c-8.75-2.95-16.4-6.79-18.48-10-1,8.28-.36,16.89,4.2,23.31,4.68-4.65,9.35-9.2,14.29-13.36"/></g></g></svg>