<svg id="Layer_1" xmlns="http://www.w3.org/2000/svg" viewBox="0 0 960 120"><style>.st0{fill:#A4D7C7;} .st1{fill:#353330;} .st2{fill:#D5AF86;} .st3{fill:#FBD37C;} .st4{fill:#D4D4D4;} .st5{fill:#FFFFFF;} .st6{fill:#F2F2F2;} .st7{fill:#FF9B6D;} .st8{fill:#CFE795;} .st9{fill:#1E91D6;}</style><path id="Fill-1" class="st0" d="M60 .2C93 .2 119.8 27 119.8 60S93.1 119.8 60 119.8.3 93 .3 60 27 .2 60 .2"/><path id="Fill-2" class="st1" d="M90.9 66c.5.7.8 1.5 1.2 2.3.5 1 1 2.1 1.5 3.1.2.8.5 1.5.8 2.2l.9 1.5c.9 1.5 1.8 2.9 2.9 4.2.4.4.9.7 1.4.8.7.2.9.2 1.2-.6.6-2.7-.5-5.8-.8-8.5-.2-1.5-.5-3-1-4.4-.4-1.4-1-2.7-1.7-3.8-.6-.6-1.5-.8-2.3-.6-.6.1-1.2.9-1.6 1.3-.5.3-.9 1-1.4 1.5-.2.2-.7.6-.7.8"/><path id="Fill-3" class="st1" d="M21.2 77.3c.2 0 .7-1.5.8-1.7.2-.8.6-1.5.9-2.2.7-1.4 1.1-2.9 1.3-4.4-.5-.2-1.1-.3-1.6-.3-.3-.1-.7-.1-1 0-.2.1-.2.1-.4.5-.2 1.5-.3 3-.4 4.5l.3 2.7c0 .2 0 .5.1.9"/><path id="Fill-4" class="st2" d="M39.3 45.5c1.5 1.4 4.7.9 6.6 1 2.4 0 4-.9 6.2-1.5 2.1-.6 4.2-1 6.4-1.4.8-.1 3-.8 3.8-.3 1 .6 1 2.2 1.3 3.2.2 1.4 1.2 1.7 2.2 2.7.8.8 1.7 1.5 2.7 2.1 1.9 1.4 3.7 3 5.7 4.4 3.5 2.6 7.2 4.5 10.1 8 1.3 1.6 3.1 3.2 2.9 5.6-.4 2-2.2 3.4-4.2 3.4-1.3-.1-1.4-.9-2-1.9-.5-1-1.4-1.8-2.4-2.3-1.7-.9-3.8-2.4-5.7-3.2.7 1.7 2.8 2.8 4.2 3.9 1.6 1.4 3.5 1.6 3.4 4.2-.1 2.2-2.1 3-4.1 3.4-2.6.3-3-1.5-5.1-2.2.9.6 1.7 1.4 2.4 2.2.4.9 0 2-.9 2.4-1.4 1-3.9 1.2-5.1-.3-.2 2.4-3.1 3.5-5.2 2.6-2.1-.9-4.1-2.7-6.2-3.8-2.3-1.3-4.7-2.7-7-3.9-2-1.2-4-2.2-5.9-3.4s-3.7-2.4-5.7-3.5c-2.5-1.3-4.8-2.1-5.9-5-1-2.6-1.7-5.3-2-8-.2-1.6.2-3.2.9-4.5 1.2-2.1 3.1-4.1 5.8-3.7"/><path id="Fill-5" class="st3" d="M47 73.1c-2.1.5-4.1.6-5.7-1-.7-.6-1.1-1.5-1-2.4-.1-.9.4-1.8 1.3-2.2 1-.2 2 0 2.8.7.9.7 1.6 1.6 2.1 2.7.2.4.5.7.9.9.5.1.5-.3.8-.7.7-.9 1.9-1.1 2.9-.7 1 .3 1.8 1.1 2.2 2 .3.9.4 1.9.1 2.8.8-.4 1.7-.5 2.6-.3.8.3 1.6.8 2.2 1.4.6.7.9 1.6.8 2.6 0 .7-.2.7-.8.9-.6.3-1.2.4-1.9.5-1.1.1-2.2-.4-3-1.2-.6-.8-.9-1.7-.8-2.7-.7 1.4-3 .7-4-.1-.4-.4-.7-.9-1-1.4-.2-.7-.2-1.2-.5-1.8"/><path id="Fill-6" class="st4" d="M54.2 76.6c-.1.7 1.4 1.4 1.9 1.7.2.2.8.5.6.9-.1.2-.8.2-1 .2-1.4 0-3-2-1.6-3"/><path id="Fill-7" class="st4" d="M48.5 72.3c.4.7 1 1.4 1.7 1.9.3.2.8.2.7.7s-.5.6-.8.6c-1.7.6-2.8-1.3-2-2.8"/><path id="Fill-8" class="st4" d="M40.9 70.1c.1.6.7.9 1 1.3s1.4.8.6 1.2c-1 .3-2.7-1.5-1.7-2.3"/><path id="Fill-9" class="st3" d="M84.5 47c-5.1 1.6-9.6-2.8-14.2-4.3-2.1-.6-4.3-.7-6.5-.2-2.1.3-4.9-.2-6.6 1.2s-2.1 4-3.7 5.6c-.9.9-1.9 1.6-1 2.9.7 1 2.2 1 3.2.9.9-.2 1.9-.5 2.7-1 .9-.6 1.7-1.7 2.8-2.2 2-.8 4.9 0 6.4 1.2 3.9 2.8 6.4 4.9 11.1 8.7 1.8 1.3 3.6 2.6 5.2 4.1 1 1 3.2 5 4.4 2.4.5-1.2.2-3.2.2-4.4 0-1.6.3-3.2.2-4.9-.4-3.1-1.6-6.1-3.4-8.7"/><path id="Fill-10" class="st4" d="M54.2 48.6c.5 0 1.6.2 1.5.8s-1.2.9-1.5 1.2-1.9.5-1.5-.3c.1-.2.6-.5.7-.7.2-.4.5-.7.8-1"/><path id="Fill-11" class="st5" d="M27.7 41.5c4.6 1.2 9.4 2.7 13.8 4.1-.8 1-.9 3-1.2 4.3-.2 1.5-.3 3-.6 4.5-.5 2.9-.9 5.8-1.6 8.7-.5 2.9-1.5 5.7-2.9 8.4-1.5 2.7-5.2 2.1-8 2.1-1.9-.1-3.7-.6-5.5-1.4-.6-.2-2.4-.5-2.8-.8s-.1-2.1-.1-2.7c0-1.9.1-3.7.1-5.6.2-5.4 1.2-10.8 2.8-16 .5-2 1.8-3.8 3.6-4.9"/><path id="Fill-12" class="st4" d="M27.7 66.7c1.2.1 2.1 1.2 1.9 2.5-.1 1.2-1.2 2.1-2.5 1.9-1.1-.1-2-1.1-2-2.3.2-1.2 1.4-2.2 2.6-2.1"/><path id="Fill-13" class="st5" d="M80.1 46.6c1.4 2.3 2.5 4.8 3.4 7.3 1.2 3.2 2.9 6.5 3.7 9.8.2 1.2.5 2.4.9 3.6.5.8-.1.6.8.9.7.1 1.4.1 2-.1 1.4-.2 2.9-.8 4.2-1.2 1-.2 3.6-.5 3.9-1.5.3-1-1.3-3.5-1.6-4.3-.9-1.9-1.7-3.9-2.3-5.9-1-2.3-2.2-4.6-3.5-6.8-.5-.9-.9-2.6-1.6-3.2-.9-.8-1.6-.2-2.8.1-2.3.7-4.7 1.1-7.1 1.2"/><path id="Fill-14" class="st1" d="M85.6 45.4c1.9 1.9 3 5.1 3.9 7.5 1.3 3 2.3 6.2 3.9 9.2 1.7 3.2 2.2 7.1 3.4 10.4.9 2.7 2.2 5.3 3.4 7.9 1.6-.9 3.2-1.6 4.9-2.2 1.4-.3 2.8-.7 4.2-1.3 2.4-1.4 2.7-6.3 2.9-8.9.4-6.5 0-12.4-3.5-17.9-1.2-2-2.7-3.8-4.4-5.3-1.2-1.2-3.1-3.6-4.9-3.8-2-.2-4.6 1.3-6.6 1.7-2.4.7-4.7 1.6-7 2.6"/><path id="Fill-15" class="st1" d="M31.3 42c-4 5.2-5.7 12.7-7.6 18.9-1 3-1.7 6.1-2 9.3-.1 2.4-.6 4.8-.7 7.3-.7-.1-.9-.7-1.5-1.2-1.2-.7-2.4-1.3-3.7-1.7-1.7-.7-3.5-1.4-5.1-2.1-2.1-.8-2.1-2-2.4-4.1-.3-2.1-.5-4.2-.6-6.4-.2-8.3.3-13.7 6.3-20.5 1.1-1.2 2.5-2.2 4.1-2.8 1-.2 5.3 1 6.4 1.3 2.2.5 4.5 1.1 6.8 2"/><g><path id="path-1" class="st0" d="M199.8 120c33.1 0 60-26.9 60-60s-26.9-60-60-60-60 26.9-60 60 26.9 60 60 60z"/><path id="Fill-162_1_" class="st3" d="M167.8 40.5H232v49.2h-64.2V40.5z"/><path id="path-3" class="st6" d="M225.3 41.2l-25.1-25.1c-.1-.1-.2-.1-.3-.1-.1 0-.3 0-.3.1l-25.2 25.1-2.2-2.2 25.1-25.1c.7-.7 1.6-1 2.5-1 .9 0 1.9.3 2.5 1L227.4 39l-2.1 2.2z"/><path id="path-13" class="st1" d="M199.8 21.2c2 0 3.5-1.6 3.5-3.5s-1.6-3.5-3.5-3.5c-2 0-3.5 1.6-3.5 3.5s1.6 3.5 3.5 3.5z"/><path id="path-11" class="st2" d="M163.1 37.6c-1 .5-2 .9-2.9 1.4 2.2.7 3.8 2.6 4.1 4.9.5 2.4.3 4.9-.6 7.2-.7 1.4-1.3 2.9-1.7 4.4-.4 1.6.2 3.3 1.6 4.2-1.1 1.1-1.2 2.8-.3 4.1.4.6 1 1.1 1.7 1.4-.7.3-1.2.8-1.7 1.4-.9 1.3-.8 3 .3 4.1-1.3 1-2 2.6-1.6 4.2.4 1.5 1 3 1.7 4.4.9 2.3 1.1 4.8.6 7.2-.3 2.3-1.9 4.2-4.1 4.9 1 .5 2 .9 2.9 1.4.2.1.5.2.8.2s.5-.1.8-.2c2.3-1 4.1-2.8 5-5 .4-1.4.7-2.9.6-4.4V72.6c0-2.5-.1-5.2-1.7-7.4 1.6-2.2 1.7-4.9 1.7-7.4V47c0-1.5-.2-2.9-.6-4.3-1-2.2-2.8-4-5.1-5-.2-.1-.5-.2-.8-.2-.1-.1-.4-.1-.7.1z"/><path id="path-9" class="st2" d="M236.5 92.8c1-.5 2-.9 2.9-1.4-2.2-.7-3.8-2.6-4.1-4.9-.5-2.4-.3-4.9.6-7.1.7-1.4 1.3-2.9 1.7-4.4.4-1.6-.2-3.3-1.6-4.2 1.1-1.1 1.2-2.8.3-4.1-.4-.6-1-1.1-1.7-1.4.7-.3 1.2-.8 1.7-1.4.9-1.3.8-3-.3-4.1 1.4-1 2-2.7 1.6-4.3-.4-1.5-1-3-1.7-4.4-.9-2.3-1.1-4.8-.6-7.2.3-2.3 1.9-4.2 4.1-4.9-1-.5-2-.9-2.9-1.4-.2-.1-.5-.2-.8-.2s-.5.1-.8.2c-2.3 1-4.1 2.8-5.1 5-.4 1.4-.7 2.9-.6 4.4v10.8c0 2.5.1 5.2 1.7 7.4-1.6 2.2-1.7 4.9-1.7 7.4v10.8c0 1.5.2 2.9.6 4.3 1 2.2 2.8 4 5.1 5 .2.1.5.2.8.2.3.1.5 0 .8-.1z"/><path id="path-7" class="st2" d="M164.2 94.1c.6 1 1.2 2 1.8 2.9 1-2.6 3.7-3.7 6.3-4.1 3.1-.5 6.3-.3 9.3.6 1.8.7 3.7 1.3 5.7 1.7 2 .4 4-.2 5.5-1.6 1.6 1.1 3.6 1.2 5.3.3.8-.4 1.4-1 1.8-1.7.5.7 1.1 1.3 1.8 1.7 1.7.9 3.7.8 5.3-.3 1.5 1.4 3.5 2 5.5 1.6 1.9-.4 3.8-1 5.7-1.7 3-.9 6.2-1.1 9.3-.6 2.6.4 5.3 1.6 6.3 4.1.6-1 1.2-2 1.8-2.9.2-.2.3-.5.3-.8s-.1-.5-.3-.8c-1.5-2.4-3.8-4.2-6.5-5.1-1.8-.4-3.7-.7-5.6-.6h-14c-3.3 0-6.7.1-9.5 1.7-2.8-1.6-6.3-1.7-9.5-1.7h-14c-1.9 0-3.8.2-5.6.6-2.7.8-5 2.6-6.5 5.1-.2.2-.3.5-.3.8-.2.3-.1.5.1.8z"/><path id="path-5" class="st2" d="M235.5 36.3c-.6-1-1.2-2-1.8-2.9-1 2.5-3.7 3.7-6.3 4.1-3.1.5-6.3.3-9.3-.6-1.8-.7-3.7-1.3-5.7-1.7s-4 .2-5.5 1.6c-1.6-1.1-3.6-1.2-5.3-.3-.8.4-1.4 1-1.8 1.7-.5-.7-1.1-1.3-1.9-1.7-1.7-.9-3.7-.8-5.3.3-1.5-1.4-3.5-2-5.5-1.6-1.9.4-3.8 1-5.7 1.7-3 .9-6.2 1.1-9.3.6-2.5-.4-5.3-1.6-6.3-4.1-.6 1-1.2 2-1.8 2.9-.2.2-.3.5-.3.8s.1.5.3.8c1.5 2.4 3.8 4.2 6.5 5.1 1.8.4 3.7.6 5.6.6h14c3.3 0 6.7-.1 9.5-1.7 2.8 1.6 6.3 1.7 9.5 1.7h14c1.9 0 3.8-.2 5.6-.6 2.7-.8 5-2.6 6.5-5.1.2-.2.3-.5.3-.8.3-.3.1-.6 0-.8z"/></g><g><path id="Fill-1_1_" class="st0" d="M339.8 0c33.1 0 60 26.9 60 60s-26.9 60-60 60-60-26.9-60-60 26.9-60 60-60"/><path id="Fill-2_1_" class="st7" d="M361.6 56.8c-1.9-1.5-4.6-1.2-6.1.7-.1.1-.1.2-.2.3L348 68.3l-12.6-10.1c-2.1-1.1-4.3-1.7-6.6-1.9h-8c-6.5 0-11.9 5.6-11.9 12.5v21.7c0 .7.6 1.3 1.3 1.3h29.1c.7 0 1.3-.5 1.3-1.2V74.4l5.4 4.4c1.8 1.5 4.6 1.3 6.1-.6.1-.1.2-.2.3-.4l10-14.5c1.5-2 1.1-4.9-.8-6.5"/><path id="Fill-3_1_" class="st5" d="M324.8 42.2s-4.6 6.2-8.8 6.8c2.2 4.9 7.9 7.1 12.8 4.9 3-1.4 5.1-4.2 5.6-7.4-3.6.2-7.2-1.4-9.6-4.3"/><path id="Fill-4_1_" class="st2" d="M324.8 42.2c2.3 2.9 5.9 4.4 9.6 4.2 1.1-5.7-2.6-11.3-8.4-12.4-.4-.1-.9-.1-1.3-.2-5.8.3-10.2 5.2-9.9 11 .1 1.4.4 2.8 1.1 4.1 4.4-.4 8.9-6.7 8.9-6.7"/><path id="path-1_1_" class="st8" d="M349.6 47.9c.3-1.1 1.5-1.8 2.6-1.5s1.8 1.5 1.5 2.6c-.3 1.1-1.5 1.8-2.6 1.5s-1.7-1.5-1.5-2.6m2.6 13.5c-.9-.2-1.7-.6-2.5-1-.6-.3-1.2-.7-1.8-1.1h-.2v.2c.5.7 1.1 1.4 1.8 2 .5.5 1.1.9 1.7 1.3.6.4 1.2.7 1.8 1l1.5.6c.7.3 1.4.4 2.2.5.7.1 1.3.2 2 .2 2.3.1 4.6-.5 6.6-1.5 1-.5 1.9-1.1 2.8-1.8.7-.5 1.3-1.1 1.8-1.8.5-.6.9-1.2 1.3-1.8.3-.6.6-1.1.9-1.7.4-1 .7-2.1.9-3.2.1-.6.2-1.2.2-1.9v-1.5c0-.6-.1-1.3-.2-1.9-.1-.7-.3-1.4-.5-2-.4-1.1-.9-2.2-1.6-3.2-.5-.8-1.1-1.5-1.8-2.1-.5-.4-1-.8-1.6-1.2-1.3-.8-2.8-1.4-4.4-1.6-.6-.1-1.2-.1-1.8-.1-1.2 0-2.5.2-3.6.7-.9.4-1.8.9-2.6 1.6-.5.4-.9.9-1.3 1.4 0 .1-.1.1-.1.2 0 0-.1.1-.2.1l-.1-.1c0-.4-.1-.7-.1-1.1 0-.4-.1-.8-.1-1.2s-.1-.8-.1-1.1c0-.2-.1-.2-.2-.1-1.1.5-2.1 1.2-3 2l-1.5 1.5c-.4.5-.8 1-1.2 1.6-.3.5-.6 1-.8 1.5l-.3.6c-.4.8-.6 1.7-.8 2.6-.1.7-.2 1.4-.2 2.1 0 .6.1 1.2.3 1.8.2.8.8 1.4 1.6 1.6.6.2 1.3.3 1.9.4h1.2c.5 0 1.1 0 1.6-.1.4 0 .9-.1 1.3-.2 1.1-.2 2.3-.4 3.4-.7l2.1-.6c.2 0 .2 0 .2.1 0 .4 0 .8-.2 1.2-.3.6-.7 1-1.3 1.3-.4.2-.9.4-1.3.6-.6.2-1.1.5-1.6.9-.2.2-.4.5-.5.8-.1.2 0 .3.2.3.5 0 1.1.1 1.6.1h1.4s1-.1 1.5-.2c.9-.2 1.8-.5 2.7-.9 1.2-.6 2.4-1.4 3.4-2.4.4-.4.8-.8 1.3-1.2.1-.2.3-.3.5-.3.1 0 .2 0 .3.1.2.2.4.5.4.9 0 .6-.1 1.3-.4 1.8-.3.7-.7 1.3-1.3 1.9l-1.5 1.5c-.8.7-1.7 1.3-2.7 1.8s-2 .9-3.1 1.1c-.6.1-1.3.2-1.9.3h-1.5c-1-.2-1.8-.4-2.5-.6"/></g><g><path id="path-1_2_" class="st0" d="M479.8 0c-33.1 0-60 26.9-60 60s26.9 60 60 60 60-26.9 60-60-26.8-60-60-60z"/><path id="path-17" class="st1" d="M477.8 35.3c-.4-.3-.9-.5-1.4-.5-.5.1-1 .4-1.3.8-.4.8-.8 1.6-1 2.5-.4.8-1.2 1.6-2 1.4-.8-.2-1.4-1.2-1.4-2.1.1-.9-.1-1.8-.4-2.6-.1-.3-.4-.5-.7-.5-.5-.1-.9.3-1.2.8-.6.9-1 2-1 3.1-.3-.4-.8-.5-1.2-.3s-.8.5-1 .9c-.7.8-1.2 1.7-1.9 2.5s-1.6 1.4-2.6 1.6c-1 .2-2.1-.2-2.7-1.2-.2-.6-.3-1.3-.2-1.9l.1-3.8c0-1.3 0-2.7-1-3.5-.9-.4-1.9-.4-2.8 0-.8.5-1.7.9-2.6 1.2-.6.2-1.2.2-1.8.2 0 .2 0 .4-.1.7-.4 3.6-.4 7.2-.1 10.7 0 .9.2 1.7.6 2.5.9.9 2.1 1.4 3.4 1.3 5.2.3 10.2-.3 15.4-.6 4.2-.2 8.3-.3 12.4-.3 0-2.9 0-5.9-.1-8.8-1.2-1.3-2-3.1-3.4-4.1z"/><path id="path-11_1_" class="st2" d="M504 28.6h-3.2l-6.5 23.1h16L504 28.6z"/><path id="path-7_1_" class="st1" d="M500 116.5c1.8-.6 3.6-1.4 5.4-2.2l-.1-62.5c0-1.5-1.2-2.7-2.7-2.7s-2.7 1.2-2.7 2.7v.1l.1 64.6z"/><path id="path-5_1_" class="st3" d="M507.8 49.1c-1.4 0-2.5 1.1-2.5 2.5l.1 62.8c1.7-.8 3.3-1.7 5-2.7l-.1-60.1c0-1.4-1.1-2.5-2.5-2.5z"/><path id="path-3_1_" class="st3" d="M499.9 51.9c0-1.6-1.3-2.8-2.8-2.8-1.6 0-2.8 1.3-2.8 2.8l.1 66.3c1.9-.5 3.8-1 5.6-1.7l-.1-64.6z"/><path id="path-13_1_" class="st1" d="M503.5 27.1c-.2-.6-.8-1-1.4-.8-.4.1-.7.4-.8.8l-1.6 4.9h5.2l-1.4-4.9z"/><path id="Fill-200_1_" class="st4" d="M449.6 45.7h31.8v15.7h-31.8V45.7z"/><path id="path-15" class="st7" d="M451.6 33.7c.9-.3 1.7-.8 2.6-1.2s1.9-.4 2.7 0c1 .7 1.1 2.2 1 3.5-.1 1.3-.1 2.5-.1 3.8-.1.7 0 1.3.2 1.9.5.9 1.6 1.4 2.7 1.2 1-.2 1.9-.8 2.6-1.6s1.2-1.7 1.9-2.5c.3-.4.6-.7 1-.9s.9-.1 1.2.3c0-1.1.4-2.2 1-3.1.3-.4.7-.8 1.2-.8.3.1.5.3.7.5.4.8.5 1.7.4 2.6 0 .9.4 1.9 1.3 2.1.9.2 1.7-.6 2-1.4.2-.9.6-1.7 1-2.5.3-.4.8-.7 1.3-.8.5 0 1.1.1 1.5.5 1.4 1 2.2 2.8 3.4 3.9 0-3.7 0-7.5-.1-11.2.1-.5-.1-1.1-.5-1.5-.3-.1-.6-.2-.8-.2-1.9-.1-3.8.1-5.7.3-.3 0-.5.1-.8.3-.3.3-.4.8-.4 1.2l-.3 5.4-.7-4.7c0-.7-.3-1.4-.8-2-.9-.6-2-.8-3-.6-4.7.4-9.4.4-14.1 0-.8-.1-1.5-.1-2.3 0-.8.1-1.4.6-1.8 1.3-.2.9-.2 1.8 0 2.6 0 1.2 0 2.4-.3 3.5.9.2 1.5.2 2 .1z"/><path id="path-9_1_" class="st9" d="M471.8 77.2c1.9-4.5 8.9-9 9.6-11.1.7-2.1 0-5.7 0-5.7L465.5 57l-15.9 3.5s-.8 3.6 0 5.7 7.7 6.6 9.6 11.1 0 21.5-1 26.5c-.8 4.2-1.5 8-1.9 11.6 6 2.5 12.3 4.1 18.8 4.6-.5-5.4-1.3-10.8-2.4-16.2-.9-5.1-2.8-22.1-.9-26.6z"/></g><g><path id="path-1_3_" class="st3" d="M619.8 120c33.1 0 60-26.9 60-60s-26.9-60-60-60-60 26.9-60 60 26.9 60 60 60z"/><path id="path-7_2_" class="st5" d="M647.2 33.1H592V35h56.2l-1-1.9z"/><path id="path-5_2_" class="st5" d="M592 30.3v1.9h54.8l-.9-1.9H592z"/><path id="path-3_2_" class="st5" d="M592 27.4v2h53.5l-.9-2H592z"/><path id="path-11_2_" class="st2" d="M598.2 38c-4.3 0-7.8-3-7.8-6.8v57.6c0 3.5 3.1 6.4 7 6.7v.1h51.7V38h-50.9z"/><path id="path-13_2_" class="st1" d="M598.5 38h-.3c-4.3 0-7.8-3-7.8-6.8v57.6c0 3.5 3.1 6.4 7 6.7v.1h1V38h.1z"/><path id="path-15_1_" class="st5" d="M615.1 66.2l-6.3-9.7-6.5 9.7V38h12.8v28.2z"/><path id="path-9_2_" class="st1" d="M598.2 36.1c-3.2 0-5.8-2.2-5.8-4.8s2.6-4.8 5.8-4.8h46l-.8-1.9h-45.2c-4.3 0-7.8 3-7.8 6.8s3.5 6.8 7.8 6.8h51l-.8-1.9-50.2-.2z"/></g><g><path id="path-1_4_" class="st8" d="M759.8 120c33.1 0 60-26.9 60-60s-26.9-60-60-60-60 26.9-60 60 26.9 60 60 60z"/><path id="path-3_3_" class="st1" d="M789.1 93.8h-50.3c-.2 0-.4-.2-.4-.4V22.9c0-.2.2-.4.4-.4h50.4c.2 0 .4.2.4.4v70.5c-.1.2-.2.4-.5.4z"/><path id="Fill-208_1_" class="st0" d="M740.6 24.5h46.7v59.7h-46.7V24.5z"/><path id="path-7_3_" class="st9" d="M776.1 28.6c-2.9-.5-6.4-1-8.9.9s-2.7 5.1-1.6 7.8c1.5 3.5 4.9 6.3 7.8 8.7 3.2 2.7 10.2 8.8 4 12.4-2.9 1.7-5.5 3.3-6.2 6.8-.3 1.4.1 2.6 0 4.1 0 1.6-.8 1.8-2.3 2-1.3.3-2.6.3-3.9.1-5.5-1-4.6-8.7-3.9-12.6.5-2.8-.3-6.3-3.8-6.3-.7.1-1.2.7-1.2 1.4.1.6.5 1.1 1.2 1.2 2.6 0 .7 6.3.7 7.7-.1 1.8.2 3.7.7 5.5.9 3.1 3.1 5.3 6.4 5.8 2.2.3 7.1.3 8.4-2 .7-1.2.3-2.6.1-3.8-.3-2.2.5-4.4 2.1-5.8 2.6-2.2 5.9-2.5 6.5-6.3.6-3.8-1.8-7.2-4.5-9.6-3.1-2.8-7.1-5.2-9.2-8.9-1.2-2-1.7-4.9.8-6.2 1.8-1 4.3-.5 6.2-.2 1.5 0 2.2-2.4.6-2.7z"/><path id="path-5_3_" class="st4" d="M764 91.4c1.5 0 2.7-1.2 2.7-2.6 0-1.5-1.2-2.7-2.6-2.7-1.5 0-2.7 1.2-2.7 2.6-.1 1.5 1.1 2.7 2.6 2.7z"/><path id="path-13_3_" class="st5" d="M734 97.3l-11.3-11.4c-.4-.4-.4-1.1 0-1.5l7.4-7.3c.4-.4 1.1-.4 1.5 0l11.3 11.3c.4.4.4 1.1 0 1.5l-7.4 7.4c-.4.4-1 .4-1.5 0z"/><path id="path-11_3_" class="st2" d="M758.3 72c-.7-.8-1.9-.8-2.7-.1l-.1.1-3.9 3.6 4.3-4.8c.9-.8.9-2.2.1-3.1-.9-.8-2.2-.8-3.1.1l-4.7 4.3 4.3-4.8c.9-.8.9-2.2.1-3.1-.8-.8-2.2-.8-3 0l-.1.1-4.7 4.3 10.9-11.8c1.9-1.9 1.9-3.2 1-4.1-.9-.9-2.2-.8-4.1 1l-11 10.7 2.2-2.4c.3-.5.2-1.2-.3-1.5-.3-.2-.7-.3-1.1-.1-8.4 3.5-10.4 8.8-10.5 12.3-.6 1.8-1 4.3-.3 5l9.9 10c.9.9 2.5.9 3.4 0l13.2-13.2c.8-.6.9-1.7.2-2.5z"/><path id="path-15_2_" class="st4" d="M735.8 92c1 0 1.8-.8 1.8-1.8s-.8-1.8-1.8-1.8-1.8.8-1.8 1.8.8 1.8 1.8 1.8z"/></g><g><path id="path-1_5_" class="st2" d="M899.8 120c33.1 0 60-26.9 60-60s-26.9-60-60-60-60 26.9-60 60 26.9 60 60 60z"/><path id="path-23" class="st5" d="M870.7 53c-5.1 0-9.3 4.2-9.3 9.3s4.2 9.3 9.3 9.3c5.1 0 9.3-4.2 9.3-9.3 0-.9-.1-1.8-.4-2.7-1.1-3.9-4.8-6.6-8.9-6.6z"/><path id="path-21" class="st3" d="M890.5 85.9c0 7 5.7 12.7 12.7 12.7s12.7-5.7 12.7-12.7-5.7-12.7-12.7-12.7h-.5c-6.8.3-12.2 5.9-12.2 12.7z"/><path id="path-19" class="st8" d="M928.6 54.7c-3.5 0-6.6 1.9-8.4 4.9-.5.8-.8 1.7-1 2.6-.2.7-.3 1.5-.3 2.2 0 5.3 4.4 9.6 9.7 9.6s9.6-4.4 9.6-9.7c0-5.3-4.3-9.6-9.6-9.6z"/><path id="path-17_1_" class="st7" d="M895.5 32.2c2.8-1.2 4.2-4.4 3-7.2s-4.4-4.2-7.2-3-4.2 4.4-3 7.2c.8 1.8 2.5 3.1 4.4 3.4h.7c.7 0 1.4-.2 2.1-.4z"/><path id="path-15_3_" class="st9" d="M920.2 35.4c1 .8 2.3 1.2 3.5 1.2 3.1 0 5.7-2.5 5.7-5.7 0-3.1-2.5-5.7-5.7-5.7-3.1 0-5.7 2.5-5.7 5.7 0 .8.1 1.5.5 2.2.4 1 1 1.7 1.7 2.3z"/><path id="path-13_4_" class="st4" d="M909 51.2c0-2.2-.6-4.3-1.7-6.2-.5-.8-1-1.5-1.7-2.2-2.3-2.5-5.5-3.9-8.9-3.9h-.2c-.9 0-1.8.1-2.7.4-6.6 1.7-10.6 8.4-8.9 15v.2c.2.9.6 1.7 1 2.5 2.2 4 6.3 6.4 10.8 6.4h1.2c.9-.1 1.8-.3 2.7-.6 2.9-1 5.3-3 6.8-5.7.4-.8.8-1.7 1-2.5.3-1.1.5-2.2.6-3.4z"/><path id="path-11_4_" class="st0" d="M878.4 57.2c.5.8.9 1.6 1.2 2.5l6.3-2.6c-.4-.8-.8-1.7-1-2.5l-6.5 2.6z"/><path id="path-9_3_" class="st0" d="M908.5 54.6c-.2.9-.6 1.7-1 2.5l11.7 5c.2-.9.6-1.8 1-2.6l-11.7-4.9z"/><path id="path-7_4_" class="st0" d="M895.5 32.2c-.7.3-1.4.4-2.1.4h-.7l1 6.8c.9-.2 1.8-.3 2.7-.4l-.9-6.8z"/><path id="path-5_4_" class="st0" d="M900 73.6c.9-.2 1.8-.4 2.7-.4l-2.1-10.3c-.9.3-1.8.5-2.7.6l2.1 10.1z"/><path id="path-3_4_" class="st0" d="M920.2 35.4c-.7-.6-1.3-1.4-1.7-2.2l-12.9 9.6c.6.7 1.2 1.4 1.7 2.2l12.9-9.6z"/></g></svg>