<svg id="Layer_1" data-name="Layer 1" xmlns="http://www.w3.org/2000/svg" viewBox="0 0 2336.06 84.52"><defs><style>.cls-1{fill:#353330;}.cls-1,.cls-10,.cls-11,.cls-12,.cls-2,.cls-3,.cls-4,.cls-5,.cls-6,.cls-7,.cls-8,.cls-9{fill-rule:evenodd;}.cls-2{fill:#d5af86;}.cls-3{fill:#a4d7c7;}.cls-4{fill:#ff9b6d;}.cls-5{fill:#bf9d78;}.cls-6{fill:#fff;}.cls-7{fill:#93c1b2;}.cls-8{fill:#aa8c6b;}.cls-9{fill:#83ac9f;}.cls-10{fill:#82734f;}.cls-11{fill:#6e6247;}.cls-12{fill:#5a5340;}</style></defs><title>sprite2</title><path id="setabaixo" class="cls-1" d="M39.69,33.07V47.84l-4.76-4.76a1.09,1.09,0,0,0-.29-.21,1.6,1.6,0,0,0-.33-.12,1.33,1.33,0,0,0-.66,0,1.21,1.21,0,0,0-.31.12,1.26,1.26,0,0,0-.27.21,1.18,1.18,0,0,0-.21,1.6,1.09,1.09,0,0,0,.21.29l8,7.75L49,45a1.37,1.37,0,0,0,.37-.94,1.33,1.33,0,0,0-1.31-1.31,1.37,1.37,0,0,0-.94.37l-4.8,4.84V33.07a1.24,1.24,0,0,0-.39-.94,1.3,1.3,0,0,0-.92-.37,1.37,1.37,0,0,0-.53.1,1.18,1.18,0,0,0-.68.68A1.37,1.37,0,0,0,39.69,33.07ZM58,35.12A18.22,18.22,0,0,1,58,49.4,18.29,18.29,0,0,1,54,55.26a18.71,18.71,0,0,1-5.89,3.92,18.22,18.22,0,0,1-14.27,0,18.05,18.05,0,0,1-9.78-9.78,18.22,18.22,0,0,1,0-14.27,18.05,18.05,0,0,1,9.78-9.78,18.22,18.22,0,0,1,14.27,0A18.71,18.71,0,0,1,54,29.26,18.29,18.29,0,0,1,58,35.12Zm-35.15-3.4a21,21,0,0,0,7.65,28.73A21,21,0,0,0,59.19,52.8a21,21,0,0,0-7.65-28.73,21,21,0,0,0-28.73,7.65Z"/><path id="logo" class="cls-2" d="M237.45,57.54q9.32-5.52,11.38-12.65,2.11-7.3-2.41-15.12t-11.92-9.41Q227.11,18.78,218,24L206,31l19.37,33.55,6.35-3.67L217.51,36.23,235.15,26,238,31l-11.91,6.88,3.16,5.48,11.32-6.54,2.87,5-11.32,6.54Z"/><path id="linkedin" class="cls-3" d="M434,30.52a7,7,0,0,0-7-7H403.54a7,7,0,0,0-7,7V54a7,7,0,0,0,7,7H427a7,7,0,0,0,7-7ZM422.57,54.93V45.86c0-2.3-.8-3.84-2.83-3.84a3.11,3.11,0,0,0-2.9,2.06,4,4,0,0,0-.17,1.37v9.49H411c.07-15.39,0-17,0-17h5.63v2.47h0a5.56,5.56,0,0,1,5.1-2.86c3.71,0,6.49,2.42,6.49,7.63v9.74ZM408.3,32.72a3,3,0,0,1-3.2,2.94h0a2.95,2.95,0,1,1,3.22-2.94Zm-6,22.21V38h5.63v17Z"/><path id="behance" class="cls-3" d="M600.21,33.75v1.88h-7.78V33.75Zm-3.83,6.51a3,3,0,0,0-3.17,3h6.2C599.24,41.4,598.28,40.25,596.38,40.25Zm.24,9a3.17,3.17,0,0,0,3-1.81H603c-1,3.18-3.17,4.67-6.51,4.67-4.39,0-7.12-3-7.12-7.31a7,7,0,0,1,7.12-7.39c4.37,0,6.78,3.45,6.78,7.56,0,.24,0,.49,0,.73h-10C593.21,47.89,594.38,49.21,596.63,49.21Zm-15.85-.78c1.73,0,3.12-.59,3.12-2.54s-1.17-2.76-3-2.76h-4.61v5.31Zm-.22-8.2c1.51,0,2.59-.66,2.59-2.3s-1.39-2.2-2.9-2.2h-4v4.5Zm.54-7.78c3.29,0,6.15.93,6.15,4.77a4.14,4.14,0,0,1-2.61,4,4.68,4.68,0,0,1,3.49,4.89c0,3.91-3.27,5.58-6.76,5.58H572V32.45Zm18.27-9H575.94a7,7,0,0,0-7,7V54a7,7,0,0,0,7,7h23.42a7,7,0,0,0,7-7V30.52A7,7,0,0,0,599.36,23.47Z"/><path id="dribbble" class="cls-3" d="M773.31,42a13.5,13.5,0,1,0-13.5,13.5A13.5,13.5,0,0,0,773.31,42Zm-2-.12a27,27,0,0,0-8-.37c-.09-.19-.16-.4-.25-.6-.25-.56-.51-1.12-.77-1.67a15,15,0,0,0,6.43-4.57A11.56,11.56,0,0,1,771.35,41.85Zm-3.92-8.53c0,.05-1.67,2.55-6,4.17a56.33,56.33,0,0,0-4.32-6.71,11.68,11.68,0,0,1,2.72-.33A11.44,11.44,0,0,1,767.43,33.32Zm-10.37-2.55,0,0Zm14.15,13a11.58,11.58,0,0,1-4.94,7.73A51.45,51.45,0,0,0,764,43.29,17.11,17.11,0,0,1,771.21,43.8Zm-12-5.61a43.63,43.63,0,0,1-10.65,1.41,11.55,11.55,0,0,1,6.36-8.05A69.64,69.64,0,0,1,759.18,38.19Zm1.88,3.73-.46.14s-6.22,2-9.37,7.61a11.52,11.52,0,0,1-3-7.7,2.59,2.59,0,0,1,0-.37A42.36,42.36,0,0,0,760.13,40C760.46,40.62,760.78,41.27,761.06,41.92Zm3.25,10.67a11.55,11.55,0,0,1-11.85-1.72s.16.11.26.19c2.21-4.82,9.05-7.21,9.05-7.21l.07,0A48.62,48.62,0,0,1,764.31,52.59Zm14.47-22.07a7,7,0,0,0-7-7H748.34a7,7,0,0,0-7,7V54a7,7,0,0,0,7,7h23.42a7,7,0,0,0,7-7Z"/><path id="fechar" class="cls-1" d="M1445.88,36a1.25,1.25,0,0,0-2.12-.89l-5.35,5.37-5.35-5.37a1.25,1.25,0,0,0-1.77,1.78l5.35,5.37-5.35,5.37a1.33,1.33,0,0,0-.33.55,1.1,1.1,0,0,0,0,.65,1.32,1.32,0,0,0,.33.57,1.28,1.28,0,0,0,1.77,0l5.35-5.37,5.35,5.37a1.28,1.28,0,0,0,1.77,0,1.32,1.32,0,0,0,.33-.57,1.1,1.1,0,0,0,0-.65,1.34,1.34,0,0,0-.33-.55l-5.35-5.37,5.35-5.37A1.21,1.21,0,0,0,1445.88,36Z"/><path id="linguas" class="cls-4" d="M1535.91,40.07c0-6.91-7.83-12.5-17.5-12.5s-17.5,5.59-17.5,12.5c0,3.81,2.38,7.21,6.11,9.49-.51,4.12-2,5-3.2,6.19-.23.21-.47.41-.39.72a.64.64,0,0,0,.68.47c.59-.06,1.15-.16,1.68-.25a16.87,16.87,0,0,0,8.5-4.47,23.46,23.46,0,0,0,4.12.35C1528.08,52.57,1535.91,47,1535.91,40.07Zm-7.5,0a2.5,2.5,0,1,1-2.5-2.5A2.49,2.49,0,0,1,1528.41,40.07Zm-7.5,0a2.5,2.5,0,1,1-2.5-2.5A2.49,2.49,0,0,1,1520.91,40.07Zm-7.5,0a2.5,2.5,0,1,1-2.5-2.5A2.49,2.49,0,0,1,1513.41,40.07Z"/><path id="linkexterno" class="cls-5" d="M1576.91,34a.76.76,0,0,0-.75-.75h-6a.76.76,0,0,0-.75.75.75.75,0,0,0,.22.53l2.06,2.06-7.64,7.64a.37.37,0,0,0,0,.54l1.34,1.34a.37.37,0,0,0,.54,0l7.64-7.64,2.06,2.06a.75.75,0,0,0,.53.22.76.76,0,0,0,.75-.75Zm-4.5,10.13a.37.37,0,0,0-.37-.37h-.75a.37.37,0,0,0-.37.38v3.75a1.88,1.88,0,0,1-1.87,1.88h-9.75a1.88,1.88,0,0,1-1.87-1.87V38.13a1.88,1.88,0,0,1,1.88-1.87h8.25a.37.37,0,0,0,.38-.37v-.75a.37.37,0,0,0-.37-.37h-8.25a3.38,3.38,0,0,0-3.37,3.38v9.75a3.38,3.38,0,0,0,3.38,3.37H1569a3.38,3.38,0,0,0,3.38-3.37Z"/><path id="curso" class="cls-6" d="M1682.76,34.78a.65.65,0,0,0-.43-.6l-21.8-6.85a1,1,0,0,0-.39,0l-21.8,6.85a.64.64,0,0,0,0,1.21l6.48,2a12.58,12.58,0,0,0-1.91,6.42,2.48,2.48,0,0,0-.14,4.24l-1.13,8.43a.64.64,0,0,0,.16.49.62.62,0,0,0,.47.21H1646a.62.62,0,0,0,.47-.21.64.64,0,0,0,.16-.49l-1.13-8.43a2.48,2.48,0,0,0,1.13-2.08,2.43,2.43,0,0,0-1.23-2.12c.16-2.63.93-4.77,2-5.65l12.69,4a1,1,0,0,0,.39,0l21.8-6.85A.65.65,0,0,0,1682.76,34.78Zm-10.32,6.31-11.17,3.52a3.27,3.27,0,0,1-1.87,0l-11.17-3.52-.35,6.15c-.16,2.74,5.59,5,12.46,5s12.61-2.24,12.46-5Z"/><path id="organizacao" class="cls-2" d="M1799.12,33.78a2.42,2.42,0,0,0-1.59-2.27l-13.33-4.85a2.37,2.37,0,0,0-1.67,0L1769.2,31.5a2.42,2.42,0,0,0-1.59,2.27V48.32a2.41,2.41,0,0,0,1.27,2.12l13.33,7.27a2.35,2.35,0,0,0,2.31,0l13.33-7.27a2.41,2.41,0,0,0,1.27-2.12Zm-15.76,4.77-13.22-4.81,13.22-4.81,13.22,4.81Zm1.21,16.38V40.69l12.12-4.41v12Z"/><path id="faculdade" class="cls-2" d="M1913.13,44.76a2.51,2.51,0,0,0-1.52-2.3l-8.48-3.63V31a2.54,2.54,0,0,0-1.52-2.3L1892.86,25a2.54,2.54,0,0,0-2,0l-8.75,3.75a2.54,2.54,0,0,0-1.52,2.3v7.81l-8.48,3.63a2.54,2.54,0,0,0-1.52,2.3v8.13a2.46,2.46,0,0,0,1.39,2.23l8.75,4.38a2.4,2.4,0,0,0,2.23,0l8.75-4.37a.16.16,0,0,1,.27,0l8.75,4.38a2.4,2.4,0,0,0,2.23,0l8.75-4.37a2.46,2.46,0,0,0,1.39-2.23Zm-21.25-10.12L1883.27,31l8.61-3.69L1900.5,31Zm1.25,7.4V36.83l7.5-3.2v5.2Zm8.75,5.72L1894,44.39l7.89-3.38,7.89,3.38Zm1.25,8.87V50l7.5-3.2v6.13Zm-21.25-8.87L1874,44.39l7.89-3.38,7.89,3.38Zm1.25,8.87V50l7.5-3.2v6.13Z"/><path id="calendário" class="cls-2" d="M2030.63,31.49a2.71,2.71,0,0,0-2.69-2.69h-2.69v-2a3.38,3.38,0,0,0-3.37-3.37h-1.35a3.38,3.38,0,0,0-3.37,3.37v2h-8.08v-2a3.38,3.38,0,0,0-3.37-3.37h-1.35a3.38,3.38,0,0,0-3.37,3.37v2h-2.69a2.71,2.71,0,0,0-2.69,2.69V58.41a2.71,2.71,0,0,0,2.69,2.69h29.62a2.71,2.71,0,0,0,2.69-2.69Zm-8.08,1.35a.69.69,0,0,1-.67.67h-1.35a.69.69,0,0,1-.67-.67V26.78a.69.69,0,0,1,.67-.67h1.35a.69.69,0,0,1,.67.67Zm-.67,10.1V36.88h6.06v6.06Zm-8.08,0V36.88h6.73v6.06Zm8.08,8.08V44.28h6.06V51ZM2006.4,32.84a.69.69,0,0,1-.67.67h-1.35a.69.69,0,0,1-.67-.67V26.78a.69.69,0,0,1,.67-.67h1.35a.69.69,0,0,1,.67.67Zm7.4,18.17V44.28h6.73V51Zm8.08,7.4V52.36h6.06v6.06Zm-16.15-15.48V36.88h6.73v6.06Zm8.08,15.48V52.36h6.73v6.06Zm-15.48-15.48V36.88h6.06v6.06Zm7.4,8.08V44.28h6.73V51Zm-7.4,0V44.28h6.06V51Zm7.4,7.4V52.36h6.73v6.06Zm-7.4,0V52.36h6.06v6.06Z"/><path id="informacao" class="cls-2" d="M2140.56,42.26a17.5,17.5,0,1,0-17.5,17.5A17.5,17.5,0,0,0,2140.56,42.26ZM2126,32.78a.72.72,0,0,1-.73.73h-4.37a.72.72,0,0,1-.73-.73V29.13a.72.72,0,0,1,.73-.73h4.38a.72.72,0,0,1,.73.73Zm2.92,20.42a.72.72,0,0,1-.73.73H2118a.72.72,0,0,1-.73-.73V49.55a.72.72,0,0,1,.73-.73h2.19V41.53H2118a.72.72,0,0,1-.73-.73V37.16a.72.72,0,0,1,.73-.73h7.29a.72.72,0,0,1,.73.73V48.82h2.19a.72.72,0,0,1,.73.73Z"/><path id="cargo" class="cls-6" d="M2206.06,33.32a4.07,4.07,0,0,0-4.06-4.06h-8.94V25.2a2.44,2.44,0,0,0-2.44-2.44H2176a2.44,2.44,0,0,0-2.44,2.44v4.06h-8.94a4.07,4.07,0,0,0-4.06,4.06v9.75h45.5Zm-19.5,12.19h-6.5v3.25h6.5Zm19.5,0H2189v4.06a1.64,1.64,0,0,1-1.62,1.63h-8.12a1.64,1.64,0,0,1-1.62-1.62V45.51h-17.06V57.7a4.07,4.07,0,0,0,4.06,4.06H2202a4.07,4.07,0,0,0,4.06-4.06Zm-29.25-16.25V26h13v3.25Z"/><path id="telemovel" class="cls-4" d="M2261.06,31.32a6.56,6.56,0,0,0-6.56-6.56h-21.87a6.56,6.56,0,0,0-6.56,6.56V53.2a6.56,6.56,0,0,0,6.56,6.56h21.88a6.56,6.56,0,0,0,6.56-6.56ZM2255.22,49a8,8,0,0,1-.5,2.3c-.68,1.5-3.55,2.6-5.13,2.6a12.57,12.57,0,0,1-4.33-1.14A23.12,23.12,0,0,1,2233,40.55a12.57,12.57,0,0,1-1.14-4.33c0-1.57,1.09-4.44,2.6-5.13a8,8,0,0,1,2.3-.5,1,1,0,0,1,.36,0c.41.14,2.1,3.46,2.46,4.1.25.43.75,1,.75,1.48,0,1-3,2.48-3,3.37A3.67,3.67,0,0,0,2238,41a16.69,16.69,0,0,0,6.77,6.77,3.67,3.67,0,0,0,1.44.64c.89,0,2.37-3,3.37-3,.52,0,1,.5,1.48.75.64.36,4,2.05,4.1,2.46A1,1,0,0,1,2255.22,49Z"/><path id="email" class="cls-4" d="M2310.22,35.77c0,1.14-1.34,2.51-2.23,3.1-2,1.34-4.06,2.64-6.08,4-.87.57-2.3,1.62-3.35,1.62s-2.48-1-3.35-1.62c-2-1.32-4.08-2.57-6.08-3.92-1-.64-2.23-2-2.23-3.21a2.19,2.19,0,0,1,2.19-2.19h19A2.19,2.19,0,0,1,2310.22,35.77Zm0,13.06A2.19,2.19,0,0,1,2308,51h-19a2.19,2.19,0,0,1-2.19-2.19V38.89c.52.39.93.89,1.46,1.23,2.12,1.46,4.35,2.76,6.47,4.22a5.23,5.23,0,0,0,7.47,0c2.12-1.46,4.33-2.78,6.47-4.19a7,7,0,0,0,1.46-1.25Zm-.73-24.06h-21.87a6.56,6.56,0,0,0-6.56,6.56V53.2a6.56,6.56,0,0,0,6.56,6.56h21.88a6.56,6.56,0,0,0,6.56-6.56V31.32A6.56,6.56,0,0,0,2309.49,24.76Z"/><path id="setabaixo-2" data-name="setabaixo" class="cls-6" d="M101.69,33.07V47.84l-4.76-4.76a1.09,1.09,0,0,0-.29-.21,1.6,1.6,0,0,0-.33-.12,1.33,1.33,0,0,0-.66,0,1.21,1.21,0,0,0-.31.12,1.26,1.26,0,0,0-.27.21,1.18,1.18,0,0,0-.21,1.6,1.09,1.09,0,0,0,.21.29l8,7.75L111,45a1.37,1.37,0,0,0,.37-.94,1.33,1.33,0,0,0-1.31-1.31,1.37,1.37,0,0,0-.94.37l-4.8,4.84V33.07a1.24,1.24,0,0,0-.39-.94,1.3,1.3,0,0,0-.92-.37,1.37,1.37,0,0,0-.53.1,1.18,1.18,0,0,0-.68.68A1.37,1.37,0,0,0,101.69,33.07ZM120,35.12a18.22,18.22,0,0,1,0,14.27A18.29,18.29,0,0,1,116,55.26a18.71,18.71,0,0,1-5.89,3.92,18.22,18.22,0,0,1-14.27,0,18.05,18.05,0,0,1-9.78-9.78,18.22,18.22,0,0,1,0-14.27,18.05,18.05,0,0,1,9.78-9.78,18.22,18.22,0,0,1,14.27,0A18.71,18.71,0,0,1,116,29.26,18.29,18.29,0,0,1,120,35.12Zm-35.15-3.4a21,21,0,0,0,7.65,28.73A21,21,0,0,0,124,42.26,21,21,0,0,0,84.81,31.72Z"/><path id="logo-2" data-name="logo" class="cls-5" d="M301,57.54q9.32-5.52,11.38-12.65,2.11-7.3-2.41-15.12T298,20.37q-7.4-1.58-16.5,3.67l-12,6.94,19.37,33.55,6.35-3.67L281,36.23,298.66,26l2.87,5-11.91,6.88,3.16,5.48,11.32-6.54,2.87,5-11.32,6.54Z"/><path id="linkedin-2" data-name="linkedin" class="cls-7" d="M491.45,30.52a7,7,0,0,0-7-7H461a7,7,0,0,0-7,7V54a7,7,0,0,0,7,7h23.42a7,7,0,0,0,7-7ZM480,54.93V45.86c0-2.3-.8-3.84-2.83-3.84a3.11,3.11,0,0,0-2.9,2.06,4,4,0,0,0-.17,1.37v9.49H468.5c.07-15.39,0-17,0-17h5.63v2.47h0a5.56,5.56,0,0,1,5.1-2.86c3.71,0,6.49,2.42,6.49,7.63v9.74ZM465.76,32.72a3,3,0,0,1-3.2,2.94h0a2.95,2.95,0,1,1,3.22-2.94Zm-6,22.21V38h5.63v17Z"/><path id="behance-2" data-name="behance" class="cls-7" d="M657.68,33.75v1.88H649.9V33.75Zm-3.83,6.51a3,3,0,0,0-3.17,3h6.2C656.7,41.4,655.75,40.25,653.85,40.25Zm.24,9a3.17,3.17,0,0,0,3-1.81h3.37c-1,3.18-3.17,4.67-6.51,4.67-4.39,0-7.12-3-7.12-7.31a7,7,0,0,1,7.12-7.39c4.37,0,6.78,3.45,6.78,7.56,0,.24,0,.49,0,.73h-10C650.68,47.89,651.85,49.21,654.09,49.21Zm-15.85-.78c1.73,0,3.12-.59,3.12-2.54s-1.17-2.76-3-2.76h-4.61v5.31Zm-.22-8.2c1.51,0,2.59-.66,2.59-2.3s-1.39-2.2-2.9-2.2h-4v4.5Zm.54-7.78c3.29,0,6.15.93,6.15,4.77a4.14,4.14,0,0,1-2.61,4,4.68,4.68,0,0,1,3.49,4.89c0,3.91-3.27,5.58-6.76,5.58H629.5V32.45Zm18.27-9H633.41a7,7,0,0,0-7,7V54a7,7,0,0,0,7,7h23.42a7,7,0,0,0,7-7V30.52A7,7,0,0,0,656.82,23.47Z"/><path id="dribbble-2" data-name="dribbble" class="cls-7" d="M830.78,42a13.5,13.5,0,1,0-13.5,13.5A13.5,13.5,0,0,0,830.78,42Zm-2-.12a27,27,0,0,0-8-.37c-.09-.19-.16-.4-.25-.6-.25-.56-.51-1.12-.77-1.67a15,15,0,0,0,6.43-4.57A11.56,11.56,0,0,1,828.81,41.85Zm-3.92-8.53c0,.05-1.67,2.55-6,4.17a56.33,56.33,0,0,0-4.32-6.71,11.68,11.68,0,0,1,2.72-.33A11.44,11.44,0,0,1,824.89,33.32Zm-10.37-2.55,0,0Zm14.15,13a11.58,11.58,0,0,1-4.94,7.73,51.45,51.45,0,0,0-2.25-8.24A17.11,17.11,0,0,1,828.67,43.8Zm-12-5.61A43.63,43.63,0,0,1,806,39.6a11.55,11.55,0,0,1,6.36-8.05A69.64,69.64,0,0,1,816.65,38.19Zm1.88,3.73-.46.14s-6.22,2-9.37,7.61a11.52,11.52,0,0,1-3-7.7,2.59,2.59,0,0,1,0-.37A42.36,42.36,0,0,0,817.6,40C817.93,40.62,818.25,41.27,818.53,41.92Zm3.25,10.67a11.55,11.55,0,0,1-11.85-1.72s.16.11.26.19c2.21-4.82,9.05-7.21,9.05-7.21l.07,0A48.62,48.62,0,0,1,821.78,52.59Zm14.47-22.07a7,7,0,0,0-7-7H805.81a7,7,0,0,0-7,7V54a7,7,0,0,0,7,7h23.42a7,7,0,0,0,7-7Z"/><path id="fechar-2" data-name="fechar" class="cls-6" d="M1480.88,36a1.25,1.25,0,0,0-2.12-.89l-5.35,5.37-5.35-5.37a1.25,1.25,0,0,0-1.77,1.78l5.35,5.37-5.35,5.37a1.33,1.33,0,0,0-.33.55,1.1,1.1,0,0,0,0,.65,1.32,1.32,0,0,0,.33.57,1.28,1.28,0,0,0,1.77,0l5.35-5.37,5.35,5.37a1.28,1.28,0,0,0,1.77,0,1.32,1.32,0,0,0,.33-.57,1.1,1.1,0,0,0,0-.65,1.34,1.34,0,0,0-.33-.55l-5.35-5.37,5.35-5.37A1.21,1.21,0,0,0,1480.88,36Z"/><path id="linkexterno-2" data-name="linkexterno" class="cls-8" d="M1617.91,34a.76.76,0,0,0-.75-.75h-6a.76.76,0,0,0-.75.75.75.75,0,0,0,.22.53l2.06,2.06-7.64,7.64a.37.37,0,0,0,0,.54l1.34,1.34a.37.37,0,0,0,.54,0l7.64-7.64,2.06,2.06a.75.75,0,0,0,.53.22.76.76,0,0,0,.75-.75Zm-4.5,10.13a.37.37,0,0,0-.37-.37h-.75a.37.37,0,0,0-.37.38v3.75a1.88,1.88,0,0,1-1.87,1.88h-9.75a1.88,1.88,0,0,1-1.87-1.87V38.13a1.88,1.88,0,0,1,1.88-1.87h8.25a.37.37,0,0,0,.38-.37v-.75a.37.37,0,0,0-.37-.37h-8.25a3.38,3.38,0,0,0-3.37,3.38v9.75a3.38,3.38,0,0,0,3.38,3.37H1610a3.38,3.38,0,0,0,3.38-3.37Z"/><path id="curso-2" data-name="curso" class="cls-1" d="M1747.61,34.78a.65.65,0,0,0-.43-.6l-21.8-6.85a1,1,0,0,0-.39,0l-21.8,6.85a.64.64,0,0,0,0,1.21l6.48,2a12.58,12.58,0,0,0-1.91,6.42,2.48,2.48,0,0,0-.14,4.24l-1.13,8.43a.64.64,0,0,0,.16.49.62.62,0,0,0,.47.21h3.74a.62.62,0,0,0,.47-.21.64.64,0,0,0,.16-.49l-1.13-8.43a2.48,2.48,0,0,0,1.13-2.08,2.43,2.43,0,0,0-1.23-2.12c.16-2.63.93-4.77,2-5.65l12.69,4a1,1,0,0,0,.39,0l21.8-6.85A.65.65,0,0,0,1747.61,34.78Zm-10.32,6.31-11.17,3.52a3.27,3.27,0,0,1-1.87,0l-11.17-3.52-.35,6.15c-.16,2.74,5.59,5,12.46,5s12.61-2.24,12.46-5Z"/><path id="organizacao-2" data-name="organizacao" class="cls-6" d="M1850.63,33.78A2.42,2.42,0,0,0,1849,31.5l-13.33-4.85a2.37,2.37,0,0,0-1.67,0l-13.33,4.85a2.42,2.42,0,0,0-1.59,2.27V48.32a2.41,2.41,0,0,0,1.27,2.12l13.33,7.27a2.35,2.35,0,0,0,2.31,0l13.33-7.27a2.41,2.41,0,0,0,1.27-2.12Zm-15.76,4.77-13.22-4.81,13.22-4.81,13.22,4.81Zm1.21,16.38V40.69l12.12-4.41v12Z"/><path id="faculdade-2" data-name="faculdade" class="cls-1" d="M1975.63,44.76a2.51,2.51,0,0,0-1.52-2.3l-8.48-3.63V31a2.54,2.54,0,0,0-1.52-2.3L1955.36,25a2.54,2.54,0,0,0-2,0l-8.75,3.75a2.54,2.54,0,0,0-1.52,2.3v7.81l-8.48,3.63a2.54,2.54,0,0,0-1.52,2.3v8.13a2.46,2.46,0,0,0,1.39,2.23l8.75,4.38a2.4,2.4,0,0,0,2.23,0l8.75-4.37a.16.16,0,0,1,.27,0l8.75,4.38a2.4,2.4,0,0,0,2.23,0l8.75-4.37a2.46,2.46,0,0,0,1.39-2.23Zm-21.25-10.12L1945.77,31l8.61-3.69L1963,31Zm1.25,7.4V36.83l7.5-3.2v5.2Zm8.75,5.72-7.89-3.38,7.89-3.38,7.89,3.38Zm1.25,8.87V50l7.5-3.2v6.13Zm-21.25-8.87-7.89-3.38,7.89-3.38,7.89,3.38Zm1.25,8.87V50l7.5-3.2v6.13Z"/><path id="calendário-2" data-name="calendário" class="cls-6" d="M2085.63,31.49a2.71,2.71,0,0,0-2.69-2.69h-2.69v-2a3.38,3.38,0,0,0-3.37-3.37h-1.35a3.38,3.38,0,0,0-3.37,3.37v2h-8.08v-2a3.38,3.38,0,0,0-3.37-3.37h-1.35a3.38,3.38,0,0,0-3.37,3.37v2h-2.69a2.71,2.71,0,0,0-2.69,2.69V58.41a2.71,2.71,0,0,0,2.69,2.69h29.62a2.71,2.71,0,0,0,2.69-2.69Zm-8.08,1.35a.69.69,0,0,1-.67.67h-1.35a.69.69,0,0,1-.67-.67V26.78a.69.69,0,0,1,.67-.67h1.35a.69.69,0,0,1,.67.67Zm-.67,10.1V36.88h6.06v6.06Zm-8.08,0V36.88h6.73v6.06Zm8.08,8.08V44.28h6.06V51ZM2061.4,32.84a.69.69,0,0,1-.67.67h-1.35a.69.69,0,0,1-.67-.67V26.78a.69.69,0,0,1,.67-.67h1.35a.69.69,0,0,1,.67.67Zm7.4,18.17V44.28h6.73V51Zm8.08,7.4V52.36h6.06v6.06Zm-16.15-15.48V36.88h6.73v6.06Zm8.08,15.48V52.36h6.73v6.06Zm-15.48-15.48V36.88h6.06v6.06Zm7.4,8.08V44.28h6.73V51Zm-7.4,0V44.28h6.06V51Zm7.4,7.4V52.36h6.73v6.06Zm-7.4,0V52.36h6.06v6.06Z"/><path id="setabaixo-3" data-name="setabaixo" class="cls-6" d="M163.69,33.07V47.84l-4.76-4.76a1.09,1.09,0,0,0-.29-.21,1.6,1.6,0,0,0-.33-.12,1.33,1.33,0,0,0-.66,0,1.21,1.21,0,0,0-.31.12,1.26,1.26,0,0,0-.27.21,1.18,1.18,0,0,0-.21,1.6,1.09,1.09,0,0,0,.21.29l8,7.75L173,45a1.37,1.37,0,0,0,.37-.94,1.33,1.33,0,0,0-1.31-1.31,1.37,1.37,0,0,0-.94.37l-4.8,4.84V33.07a1.24,1.24,0,0,0-.39-.94,1.3,1.3,0,0,0-.92-.37,1.37,1.37,0,0,0-.53.1,1.18,1.18,0,0,0-.68.68A1.37,1.37,0,0,0,163.69,33.07Zm-16.88-1.35a21,21,0,0,0,7.65,28.73A21,21,0,0,0,186,42.26a21,21,0,0,0-39.19-10.54Z"/><path id="logo-3" data-name="logo" class="cls-8" d="M364.47,57.54q9.32-5.52,11.38-12.65,2.11-7.3-2.41-15.12t-11.92-9.41Q354.12,18.78,345,24L333,31l19.37,33.55,6.35-3.67L344.52,36.23,362.16,26,365,31l-11.91,6.88,3.16,5.48,11.32-6.54,2.87,5-11.32,6.54Z"/><path id="linkedin-3" data-name="linkedin" class="cls-9" d="M548.92,30.52a7,7,0,0,0-7-7H518.47a7,7,0,0,0-7,7V54a7,7,0,0,0,7,7h23.42a7,7,0,0,0,7-7ZM537.5,54.93V45.86c0-2.3-.8-3.84-2.83-3.84a3.11,3.11,0,0,0-2.9,2.06,4,4,0,0,0-.17,1.37v9.49H526c.07-15.39,0-17,0-17h5.63v2.47h0a5.56,5.56,0,0,1,5.1-2.86c3.71,0,6.49,2.42,6.49,7.63v9.74ZM523.23,32.72a3,3,0,0,1-3.2,2.94h0a2.95,2.95,0,1,1,3.22-2.94Zm-6,22.21V38h5.63v17Z"/><path id="behance-3" data-name="behance" class="cls-9" d="M715.14,33.75v1.88h-7.78V33.75Zm-3.83,6.51a3,3,0,0,0-3.17,3h6.2C714.17,41.4,713.22,40.25,711.31,40.25Zm.24,9a3.17,3.17,0,0,0,3-1.81h3.37c-1,3.18-3.17,4.67-6.51,4.67-4.39,0-7.12-3-7.12-7.31a7,7,0,0,1,7.12-7.39c4.37,0,6.78,3.45,6.78,7.56,0,.24,0,.49,0,.73h-10C708.14,47.89,709.31,49.21,711.56,49.21Zm-15.85-.78c1.73,0,3.12-.59,3.12-2.54s-1.17-2.76-3-2.76h-4.61v5.31Zm-.22-8.2c1.51,0,2.59-.66,2.59-2.3s-1.39-2.2-2.9-2.2h-4v4.5Zm.54-7.78c3.29,0,6.15.93,6.15,4.77a4.14,4.14,0,0,1-2.61,4A4.68,4.68,0,0,1,703,46.13c0,3.91-3.27,5.58-6.76,5.58H687V32.45Zm18.27-9H690.87a7,7,0,0,0-7,7V54a7,7,0,0,0,7,7h23.42a7,7,0,0,0,7-7V30.52A7,7,0,0,0,714.29,23.47Z"/><path id="dribbble-3" data-name="dribbble" class="cls-9" d="M888.25,42a13.5,13.5,0,1,0-13.5,13.5A13.5,13.5,0,0,0,888.25,42Zm-2-.12a27,27,0,0,0-8-.37c-.09-.19-.16-.4-.25-.6-.25-.56-.51-1.12-.77-1.67a15,15,0,0,0,6.43-4.57A11.56,11.56,0,0,1,886.28,41.85Zm-3.92-8.53c0,.05-1.67,2.55-6,4.17A56.33,56.33,0,0,0,872,30.77a11.68,11.68,0,0,1,2.72-.33A11.44,11.44,0,0,1,882.36,33.32ZM872,30.77l0,0Zm14.15,13a11.58,11.58,0,0,1-4.94,7.73,51.45,51.45,0,0,0-2.25-8.24A17.11,17.11,0,0,1,886.14,43.8Zm-12-5.61a43.63,43.63,0,0,1-10.65,1.41,11.55,11.55,0,0,1,6.36-8.05A69.64,69.64,0,0,1,874.11,38.19ZM876,41.92l-.46.14s-6.22,2-9.37,7.61a11.52,11.52,0,0,1-3-7.7,2.59,2.59,0,0,1,0-.37A42.36,42.36,0,0,0,875.06,40C875.4,40.62,875.71,41.27,876,41.92Zm3.25,10.67a11.55,11.55,0,0,1-11.85-1.72s.16.11.26.19c2.21-4.82,9.05-7.21,9.05-7.21l.07,0A48.62,48.62,0,0,1,879.25,52.59Zm14.47-22.07a7,7,0,0,0-7-7H863.27a7,7,0,0,0-7,7V54a7,7,0,0,0,7,7h23.42a7,7,0,0,0,7-7Z"/><path id="linkedin-4" data-name="linkedin" class="cls-10" d="M951.18,30.52a7,7,0,0,0-7-7H920.74a7,7,0,0,0-7,7V54a7,7,0,0,0,7,7h23.42a7,7,0,0,0,7-7ZM939.76,54.93V45.86c0-2.3-.8-3.84-2.83-3.84a3.11,3.11,0,0,0-2.9,2.06,4,4,0,0,0-.17,1.37v9.49h-5.63c.07-15.39,0-17,0-17h5.63v2.47h0a5.56,5.56,0,0,1,5.1-2.86c3.71,0,6.49,2.42,6.49,7.63v9.74ZM925.49,32.72a3,3,0,0,1-3.2,2.94h0a2.95,2.95,0,1,1,3.22-2.94Zm-6,22.21V38h5.63v17Z"/><path id="behance-4" data-name="behance" class="cls-10" d="M1117.41,33.75v1.88h-7.78V33.75Zm-3.83,6.51a3,3,0,0,0-3.17,3h6.2C1116.43,41.4,1115.48,40.25,1113.58,40.25Zm.24,9a3.17,3.17,0,0,0,3-1.81h3.37c-1,3.18-3.17,4.67-6.51,4.67-4.39,0-7.12-3-7.12-7.31a7,7,0,0,1,7.12-7.39c4.37,0,6.78,3.45,6.78,7.56,0,.24,0,.49,0,.73h-10C1110.41,47.89,1111.58,49.21,1113.82,49.21ZM1098,48.42c1.73,0,3.12-.59,3.12-2.54s-1.17-2.76-3-2.76h-4.61v5.31Zm-.22-8.2c1.51,0,2.59-.66,2.59-2.3s-1.39-2.2-2.9-2.2h-4v4.5Zm.54-7.78c3.29,0,6.15.93,6.15,4.77a4.14,4.14,0,0,1-2.61,4,4.68,4.68,0,0,1,3.49,4.89c0,3.91-3.27,5.58-6.76,5.58h-9.32V32.45Zm18.27-9h-23.42a7,7,0,0,0-7,7V54a7,7,0,0,0,7,7h23.42a7,7,0,0,0,7-7V30.52A7,7,0,0,0,1116.55,23.47Z"/><path id="dribbble-4" data-name="dribbble" class="cls-10" d="M1290.51,42a13.5,13.5,0,1,0-13.5,13.5A13.5,13.5,0,0,0,1290.51,42Zm-2-.12a27,27,0,0,0-8-.37c-.09-.19-.16-.4-.25-.6-.25-.56-.51-1.12-.77-1.67a15,15,0,0,0,6.43-4.57A11.56,11.56,0,0,1,1288.54,41.85Zm-3.92-8.53c0,.05-1.67,2.55-6,4.17a56.33,56.33,0,0,0-4.32-6.71,11.68,11.68,0,0,1,2.72-.33A11.44,11.44,0,0,1,1284.62,33.32Zm-10.37-2.55,0,0Zm14.15,13a11.58,11.58,0,0,1-4.94,7.73,51.45,51.45,0,0,0-2.25-8.24A17.11,17.11,0,0,1,1288.4,43.8Zm-12-5.61a43.63,43.63,0,0,1-10.65,1.41,11.55,11.55,0,0,1,6.36-8.05A69.64,69.64,0,0,1,1276.38,38.19Zm1.88,3.73-.46.14s-6.22,2-9.37,7.61a11.52,11.52,0,0,1-3-7.7,2.59,2.59,0,0,1,0-.37A42.36,42.36,0,0,0,1277.33,40C1277.66,40.62,1278,41.27,1278.26,41.92Zm3.25,10.67a11.55,11.55,0,0,1-11.85-1.72s.16.11.26.19c2.21-4.82,9.05-7.21,9.05-7.21l.07,0A48.62,48.62,0,0,1,1281.51,52.59ZM1296,30.52a7,7,0,0,0-7-7h-23.42a7,7,0,0,0-7,7V54a7,7,0,0,0,7,7H1289a7,7,0,0,0,7-7Z"/><path id="linkedin-5" data-name="linkedin" class="cls-11" d="M1008.65,30.52a7,7,0,0,0-7-7H978.2a7,7,0,0,0-7,7V54a7,7,0,0,0,7,7h23.42a7,7,0,0,0,7-7ZM997.23,54.93V45.86c0-2.3-.8-3.84-2.83-3.84a3.11,3.11,0,0,0-2.9,2.06,4,4,0,0,0-.17,1.37v9.49h-5.63c.07-15.39,0-17,0-17h5.63v2.47h0a5.56,5.56,0,0,1,5.1-2.86c3.71,0,6.49,2.42,6.49,7.63v9.74ZM983,32.72a3,3,0,0,1-3.2,2.94h0A2.95,2.95,0,1,1,983,32.72Zm-6,22.21V38h5.63v17Z"/><path id="behance-5" data-name="behance" class="cls-11" d="M1174.87,33.75v1.88h-7.78V33.75ZM1171,40.25a3,3,0,0,0-3.17,3h6.2C1173.9,41.4,1172.95,40.25,1171,40.25Zm.24,9a3.17,3.17,0,0,0,3-1.81h3.37c-1,3.18-3.17,4.67-6.51,4.67-4.39,0-7.12-3-7.12-7.31a7,7,0,0,1,7.12-7.39c4.37,0,6.78,3.45,6.78,7.56,0,.24,0,.49,0,.73h-10C1167.87,47.89,1169,49.21,1171.29,49.21Zm-15.85-.78c1.73,0,3.12-.59,3.12-2.54s-1.17-2.76-3-2.76h-4.61v5.31Zm-.22-8.2c1.51,0,2.59-.66,2.59-2.3s-1.39-2.2-2.9-2.2h-4v4.5Zm.54-7.78c3.29,0,6.15.93,6.15,4.77a4.14,4.14,0,0,1-2.61,4,4.68,4.68,0,0,1,3.49,4.89c0,3.91-3.27,5.58-6.76,5.58h-9.32V32.45Zm18.27-9H1150.6a7,7,0,0,0-7,7V54a7,7,0,0,0,7,7H1174a7,7,0,0,0,7-7V30.52A7,7,0,0,0,1174,23.47Z"/><path id="dribbble-5" data-name="dribbble" class="cls-11" d="M1348,42a13.5,13.5,0,1,0-13.5,13.5A13.5,13.5,0,0,0,1348,42Zm-2-.12a27,27,0,0,0-8-.37c-.09-.19-.16-.4-.25-.6-.25-.56-.51-1.12-.77-1.67a15,15,0,0,0,6.43-4.57A11.56,11.56,0,0,1,1346,41.85Zm-3.92-8.53c0,.05-1.67,2.55-6,4.17a56.33,56.33,0,0,0-4.32-6.71,11.68,11.68,0,0,1,2.72-.33A11.44,11.44,0,0,1,1342.09,33.32Zm-10.37-2.55,0,0Zm14.15,13a11.58,11.58,0,0,1-4.94,7.73,51.45,51.45,0,0,0-2.25-8.24A17.11,17.11,0,0,1,1345.87,43.8Zm-12-5.61a43.63,43.63,0,0,1-10.65,1.41,11.55,11.55,0,0,1,6.36-8.05A69.64,69.64,0,0,1,1333.84,38.19Zm1.88,3.73-.46.14s-6.22,2-9.37,7.61a11.52,11.52,0,0,1-3-7.7,2.59,2.59,0,0,1,0-.37A42.36,42.36,0,0,0,1334.79,40C1335.13,40.62,1335.44,41.27,1335.72,41.92ZM1339,52.59a11.55,11.55,0,0,1-11.85-1.72s.16.11.26.19c2.21-4.82,9.05-7.21,9.05-7.21l.07,0A48.62,48.62,0,0,1,1339,52.59Zm14.47-22.07a7,7,0,0,0-7-7H1323a7,7,0,0,0-7,7V54a7,7,0,0,0,7,7h23.42a7,7,0,0,0,7-7Z"/><path id="linkedin-6" data-name="linkedin" class="cls-12" d="M1066.11,30.52a7,7,0,0,0-7-7h-23.42a7,7,0,0,0-7,7V54a7,7,0,0,0,7,7h23.42a7,7,0,0,0,7-7ZM1054.7,54.93V45.86c0-2.3-.8-3.84-2.83-3.84a3.11,3.11,0,0,0-2.9,2.06,4,4,0,0,0-.17,1.37v9.49h-5.63c.07-15.39,0-17,0-17h5.63v2.47h0a5.56,5.56,0,0,1,5.1-2.86c3.71,0,6.49,2.42,6.49,7.63v9.74Zm-14.27-22.21a3,3,0,0,1-3.2,2.94h0a2.95,2.95,0,1,1,3.22-2.94Zm-6,22.21V38h5.63v17Z"/><path id="behance-6" data-name="behance" class="cls-12" d="M1232.34,33.75v1.88h-7.78V33.75Zm-3.83,6.51a3,3,0,0,0-3.17,3h6.2C1231.36,41.4,1230.41,40.25,1228.51,40.25Zm.24,9a3.17,3.17,0,0,0,3-1.81h3.37c-1,3.18-3.17,4.67-6.51,4.67-4.39,0-7.12-3-7.12-7.31a7,7,0,0,1,7.12-7.39c4.37,0,6.78,3.45,6.78,7.56,0,.24,0,.49,0,.73h-10C1225.34,47.89,1226.51,49.21,1228.75,49.21Zm-15.85-.78c1.73,0,3.12-.59,3.12-2.54s-1.17-2.76-3-2.76h-4.61v5.31Zm-.22-8.2c1.51,0,2.59-.66,2.59-2.3s-1.39-2.2-2.9-2.2h-4v4.5Zm.54-7.78c3.29,0,6.15.93,6.15,4.77a4.14,4.14,0,0,1-2.61,4,4.68,4.68,0,0,1,3.49,4.89c0,3.91-3.27,5.58-6.76,5.58h-9.32V32.45Zm18.27-9h-23.42a7,7,0,0,0-7,7V54a7,7,0,0,0,7,7h23.42a7,7,0,0,0,7-7V30.52A7,7,0,0,0,1231.49,23.47Z"/><path id="dribbble-6" data-name="dribbble" class="cls-12" d="M1405.44,42a13.5,13.5,0,1,0-13.5,13.5A13.5,13.5,0,0,0,1405.44,42Zm-2-.12a27,27,0,0,0-8-.37c-.09-.19-.16-.4-.25-.6-.25-.56-.51-1.12-.77-1.67a15,15,0,0,0,6.43-4.57A11.56,11.56,0,0,1,1403.47,41.85Zm-3.92-8.53c0,.05-1.67,2.55-6,4.17a56.33,56.33,0,0,0-4.32-6.71,11.68,11.68,0,0,1,2.72-.33A11.44,11.44,0,0,1,1399.55,33.32Zm-10.37-2.55,0,0Zm14.15,13a11.58,11.58,0,0,1-4.94,7.73,51.45,51.45,0,0,0-2.25-8.24A17.11,17.11,0,0,1,1403.33,43.8Zm-12-5.61a43.63,43.63,0,0,1-10.65,1.41,11.55,11.55,0,0,1,6.36-8.05A69.64,69.64,0,0,1,1391.31,38.19Zm1.88,3.73-.46.14s-6.22,2-9.37,7.61a11.52,11.52,0,0,1-3-7.7,2.59,2.59,0,0,1,0-.37A42.36,42.36,0,0,0,1392.26,40C1392.59,40.62,1392.91,41.27,1393.19,41.92Zm3.25,10.67a11.55,11.55,0,0,1-11.85-1.72s.16.11.26.19c2.21-4.82,9.05-7.21,9.05-7.21l.07,0A48.62,48.62,0,0,1,1396.44,52.59Zm14.47-22.07a7,7,0,0,0-7-7h-23.42a7,7,0,0,0-7,7V54a7,7,0,0,0,7,7h23.42a7,7,0,0,0,7-7Z"/></svg>